<svg width="645" height="407" viewBox="0 0 645 407" fill="none" xmlns="http://www.w3.org/2000/svg">
<path fill-rule="evenodd" clip-rule="evenodd" d="M5.74986 144.033C5.74986 145.708 4.46271 147.066 2.87493 147.066C1.28715 147.066 0 145.708 0 144.033C0 142.358 1.28715 141 2.87493 141C4.46271 141 5.74986 142.358 5.74986 144.033ZM29.4257 144.033C29.4257 145.708 28.1385 147.066 26.5507 147.066C24.9629 147.066 23.6758 145.708 23.6758 144.033C23.6758 142.358 24.9629 141 26.5507 141C28.1385 141 29.4257 142.358 29.4257 144.033ZM50.2265 147.066C51.8143 147.066 53.1015 145.708 53.1015 144.033C53.1015 142.358 51.8143 141 50.2265 141C48.6387 141 47.3516 142.358 47.3516 144.033C47.3516 145.708 48.6387 147.066 50.2265 147.066ZM76.7792 144.033C76.7792 145.708 75.492 147.066 73.9042 147.066C72.3164 147.066 71.0293 145.708 71.0293 144.033C71.0293 142.358 72.3164 141 73.9042 141C75.492 141 76.7792 142.358 76.7792 144.033ZM97.58 147.066C99.1678 147.066 100.455 145.708 100.455 144.033C100.455 142.358 99.1678 141 97.58 141C95.9922 141 94.7051 142.358 94.7051 144.033C94.7051 145.708 95.9922 147.066 97.58 147.066ZM124.129 144.033C124.129 145.708 122.842 147.066 121.254 147.066C119.666 147.066 118.379 145.708 118.379 144.033C118.379 142.358 119.666 141 121.254 141C122.842 141 124.129 142.358 124.129 144.033ZM144.93 147.066C146.517 147.066 147.805 145.708 147.805 144.033C147.805 142.358 146.517 141 144.93 141C143.342 141 142.055 142.358 142.055 144.033C142.055 145.708 143.342 147.066 144.93 147.066ZM171.482 144.033C171.482 145.708 170.195 147.066 168.607 147.066C167.02 147.066 165.733 145.708 165.733 144.033C165.733 142.358 167.02 141 168.607 141C170.195 141 171.482 142.358 171.482 144.033ZM192.281 147.066C193.869 147.066 195.156 145.708 195.156 144.033C195.156 142.358 193.869 141 192.281 141C190.693 141 189.406 142.358 189.406 144.033C189.406 145.708 190.693 147.066 192.281 147.066ZM218.832 144.033C218.832 145.708 217.545 147.066 215.957 147.066C214.369 147.066 213.082 145.708 213.082 144.033C213.082 142.358 214.369 141 215.957 141C217.545 141 218.832 142.358 218.832 144.033ZM239.635 147.066C241.222 147.066 242.51 145.708 242.51 144.033C242.51 142.358 241.222 141 239.635 141C238.047 141 236.76 142.358 236.76 144.033C236.76 145.708 238.047 147.066 239.635 147.066ZM266.185 144.033C266.185 145.708 264.898 147.066 263.31 147.066C261.723 147.066 260.435 145.708 260.435 144.033C260.435 142.358 261.723 141 263.31 141C264.898 141 266.185 142.358 266.185 144.033ZM286.986 147.066C288.574 147.066 289.861 145.708 289.861 144.033C289.861 142.358 288.574 141 286.986 141C285.398 141 284.111 142.358 284.111 144.033C284.111 145.708 285.398 147.066 286.986 147.066ZM313.535 144.033C313.535 145.708 312.248 147.066 310.66 147.066C309.072 147.066 307.785 145.708 307.785 144.033C307.785 142.358 309.072 141 310.66 141C312.248 141 313.535 142.358 313.535 144.033ZM334.338 147.066C335.926 147.066 337.213 145.708 337.213 144.033C337.213 142.358 335.926 141 334.338 141C332.75 141 331.463 142.358 331.463 144.033C331.463 145.708 332.75 147.066 334.338 147.066ZM360.888 144.033C360.888 145.708 359.601 147.066 358.013 147.066C356.426 147.066 355.138 145.708 355.138 144.033C355.138 142.358 356.426 141 358.013 141C359.601 141 360.888 142.358 360.888 144.033ZM381.689 147.066C383.277 147.066 384.564 145.708 384.564 144.033C384.564 142.358 383.277 141 381.689 141C380.102 141 378.814 142.358 378.814 144.033C378.814 145.708 380.102 147.066 381.689 147.066ZM408.24 144.033C408.24 145.708 406.953 147.066 405.365 147.066C403.777 147.066 402.49 145.708 402.49 144.033C402.49 142.358 403.777 141 405.365 141C406.953 141 408.24 142.358 408.24 144.033ZM429.041 147.066C430.629 147.066 431.916 145.708 431.916 144.033C431.916 142.358 430.629 141 429.041 141C427.453 141 426.166 142.358 426.166 144.033C426.166 145.708 427.453 147.066 429.041 147.066ZM455.591 144.033C455.591 145.708 454.304 147.066 452.717 147.066C451.129 147.066 449.842 145.708 449.842 144.033C449.842 142.358 451.129 141 452.717 141C454.304 141 455.591 142.358 455.591 144.033ZM476.393 147.066C477.98 147.066 479.267 145.708 479.267 144.033C479.267 142.358 477.98 141 476.393 141C474.805 141 473.518 142.358 473.518 144.033C473.518 145.708 474.805 147.066 476.393 147.066ZM502.945 144.033C502.945 145.708 501.658 147.066 500.07 147.066C498.482 147.066 497.195 145.708 497.195 144.033C497.195 142.358 498.482 141 500.07 141C501.658 141 502.945 142.358 502.945 144.033ZM523.744 147.066C525.332 147.066 526.619 145.708 526.619 144.033C526.619 142.358 525.332 141 523.744 141C522.156 141 520.869 142.358 520.869 144.033C520.869 145.708 522.156 147.066 523.744 147.066ZM550.297 144.033C550.297 145.708 549.01 147.066 547.422 147.066C545.834 147.066 544.547 145.708 544.547 144.033C544.547 142.358 545.834 141 547.422 141C549.01 141 550.297 142.358 550.297 144.033ZM571.098 147.066C572.685 147.066 573.973 145.708 573.973 144.033C573.973 142.358 572.685 141 571.098 141C569.51 141 568.223 142.358 568.223 144.033C568.223 145.708 569.51 147.066 571.098 147.066ZM597.648 144.033C597.648 145.708 596.361 147.066 594.773 147.066C593.186 147.066 591.898 145.708 591.898 144.033C591.898 142.358 593.186 141 594.773 141C596.361 141 597.648 142.358 597.648 144.033ZM618.449 147.066C620.037 147.066 621.324 145.708 621.324 144.033C621.324 142.358 620.037 141 618.449 141C616.861 141 615.574 142.358 615.574 144.033C615.574 145.708 616.861 147.066 618.449 147.066ZM645 144.033C645 145.708 643.713 147.066 642.125 147.066C640.537 147.066 639.25 145.708 639.25 144.033C639.25 142.358 640.537 141 642.125 141C643.713 141 645 142.358 645 144.033ZM5.74986 165.442C5.74986 167.117 4.46271 168.475 2.87493 168.475C1.28715 168.475 0 167.117 0 165.442C0 163.767 1.28715 162.409 2.87493 162.409C4.46271 162.409 5.74986 163.767 5.74986 165.442ZM29.4257 165.442C29.4257 167.117 28.1385 168.475 26.5507 168.475C24.9629 168.475 23.6758 167.117 23.6758 165.442C23.6758 163.767 24.9629 162.409 26.5507 162.409C28.1385 162.409 29.4257 163.767 29.4257 165.442ZM50.2265 168.475C51.8143 168.475 53.1015 167.117 53.1015 165.442C53.1015 163.767 51.8143 162.409 50.2265 162.409C48.6387 162.409 47.3516 163.767 47.3516 165.442C47.3516 167.117 48.6387 168.475 50.2265 168.475ZM76.7792 165.442C76.7792 167.117 75.492 168.475 73.9042 168.475C72.3164 168.475 71.0293 167.117 71.0293 165.442C71.0293 163.767 72.3164 162.409 73.9042 162.409C75.492 162.409 76.7792 163.767 76.7792 165.442ZM97.58 168.475C99.1678 168.475 100.455 167.117 100.455 165.442C100.455 163.767 99.1678 162.409 97.58 162.409C95.9922 162.409 94.7051 163.767 94.7051 165.442C94.7051 167.117 95.9922 168.475 97.58 168.475ZM124.129 165.442C124.129 167.117 122.842 168.475 121.254 168.475C119.666 168.475 118.379 167.117 118.379 165.442C118.379 163.767 119.666 162.409 121.254 162.409C122.842 162.409 124.129 163.767 124.129 165.442ZM144.93 168.475C146.517 168.475 147.805 167.117 147.805 165.442C147.805 163.767 146.517 162.409 144.93 162.409C143.342 162.409 142.055 163.767 142.055 165.442C142.055 167.117 143.342 168.475 144.93 168.475ZM171.482 165.442C171.482 167.117 170.195 168.475 168.607 168.475C167.02 168.475 165.733 167.117 165.733 165.442C165.733 163.767 167.02 162.409 168.607 162.409C170.195 162.409 171.482 163.767 171.482 165.442ZM192.281 168.475C193.869 168.475 195.156 167.117 195.156 165.442C195.156 163.767 193.869 162.409 192.281 162.409C190.693 162.409 189.406 163.767 189.406 165.442C189.406 167.117 190.693 168.475 192.281 168.475ZM218.832 165.442C218.832 167.117 217.545 168.475 215.957 168.475C214.369 168.475 213.082 167.117 213.082 165.442C213.082 163.767 214.369 162.409 215.957 162.409C217.545 162.409 218.832 163.767 218.832 165.442ZM239.635 168.475C241.222 168.475 242.51 167.117 242.51 165.442C242.51 163.767 241.222 162.409 239.635 162.409C238.047 162.409 236.76 163.767 236.76 165.442C236.76 167.117 238.047 168.475 239.635 168.475ZM266.185 165.442C266.185 167.117 264.898 168.475 263.31 168.475C261.723 168.475 260.435 167.117 260.435 165.442C260.435 163.767 261.723 162.409 263.31 162.409C264.898 162.409 266.185 163.767 266.185 165.442ZM286.986 168.475C288.574 168.475 289.861 167.117 289.861 165.442C289.861 163.767 288.574 162.409 286.986 162.409C285.398 162.409 284.111 163.767 284.111 165.442C284.111 167.117 285.398 168.475 286.986 168.475ZM313.535 165.442C313.535 167.117 312.248 168.475 310.66 168.475C309.072 168.475 307.785 167.117 307.785 165.442C307.785 163.767 309.072 162.409 310.66 162.409C312.248 162.409 313.535 163.767 313.535 165.442ZM334.338 168.475C335.926 168.475 337.213 167.117 337.213 165.442C337.213 163.767 335.926 162.409 334.338 162.409C332.75 162.409 331.463 163.767 331.463 165.442C331.463 167.117 332.75 168.475 334.338 168.475ZM360.888 165.442C360.888 167.117 359.601 168.475 358.013 168.475C356.426 168.475 355.138 167.117 355.138 165.442C355.138 163.767 356.426 162.409 358.013 162.409C359.601 162.409 360.888 163.767 360.888 165.442ZM381.689 168.475C383.277 168.475 384.564 167.117 384.564 165.442C384.564 163.767 383.277 162.409 381.689 162.409C380.102 162.409 378.814 163.767 378.814 165.442C378.814 167.117 380.102 168.475 381.689 168.475ZM408.24 165.442C408.24 167.117 406.953 168.475 405.365 168.475C403.777 168.475 402.49 167.117 402.49 165.442C402.49 163.767 403.777 162.409 405.365 162.409C406.953 162.409 408.24 163.767 408.24 165.442ZM429.041 168.475C430.629 168.475 431.916 167.117 431.916 165.442C431.916 163.767 430.629 162.409 429.041 162.409C427.453 162.409 426.166 163.767 426.166 165.442C426.166 167.117 427.453 168.475 429.041 168.475ZM455.591 165.442C455.591 167.117 454.304 168.475 452.717 168.475C451.129 168.475 449.842 167.117 449.842 165.442C449.842 163.767 451.129 162.409 452.717 162.409C454.304 162.409 455.591 163.767 455.591 165.442ZM476.393 168.475C477.98 168.475 479.267 167.117 479.267 165.442C479.267 163.767 477.98 162.409 476.393 162.409C474.805 162.409 473.518 163.767 473.518 165.442C473.518 167.117 474.805 168.475 476.393 168.475ZM502.945 165.442C502.945 167.117 501.658 168.475 500.07 168.475C498.482 168.475 497.195 167.117 497.195 165.442C497.195 163.767 498.482 162.409 500.07 162.409C501.658 162.409 502.945 163.767 502.945 165.442ZM523.744 168.475C525.332 168.475 526.619 167.117 526.619 165.442C526.619 163.767 525.332 162.409 523.744 162.409C522.156 162.409 520.869 163.767 520.869 165.442C520.869 167.117 522.156 168.475 523.744 168.475ZM550.297 165.442C550.297 167.117 549.01 168.475 547.422 168.475C545.834 168.475 544.547 167.117 544.547 165.442C544.547 163.767 545.834 162.409 547.422 162.409C549.01 162.409 550.297 163.767 550.297 165.442ZM571.098 168.475C572.685 168.475 573.973 167.117 573.973 165.442C573.973 163.767 572.685 162.409 571.098 162.409C569.51 162.409 568.223 163.767 568.223 165.442C568.223 167.117 569.51 168.475 571.098 168.475ZM597.648 165.442C597.648 167.117 596.361 168.475 594.773 168.475C593.186 168.475 591.898 167.117 591.898 165.442C591.898 163.767 593.186 162.409 594.773 162.409C596.361 162.409 597.648 163.767 597.648 165.442ZM618.449 168.475C620.037 168.475 621.324 167.117 621.324 165.442C621.324 163.767 620.037 162.409 618.449 162.409C616.861 162.409 615.574 163.767 615.574 165.442C615.574 167.117 616.861 168.475 618.449 168.475ZM645 165.442C645 167.117 643.713 168.475 642.125 168.475C640.537 168.475 639.25 167.117 639.25 165.442C639.25 163.767 640.537 162.409 642.125 162.409C643.713 162.409 645 163.767 645 165.442ZM2.87493 189.885C4.46271 189.885 5.74986 188.527 5.74986 186.852C5.74986 185.177 4.46271 183.819 2.87493 183.819C1.28715 183.819 0 185.177 0 186.852C0 188.527 1.28715 189.885 2.87493 189.885ZM26.5507 189.885C28.1385 189.885 29.4257 188.527 29.4257 186.852C29.4257 185.177 28.1385 183.819 26.5507 183.819C24.9629 183.819 23.6758 185.177 23.6758 186.852C23.6758 188.527 24.9629 189.885 26.5507 189.885ZM53.1015 186.852C53.1015 188.527 51.8143 189.885 50.2265 189.885C48.6387 189.885 47.3516 188.527 47.3516 186.852C47.3516 185.177 48.6387 183.819 50.2265 183.819C51.8143 183.819 53.1015 185.177 53.1015 186.852ZM73.9042 189.885C75.492 189.885 76.7792 188.527 76.7792 186.852C76.7792 185.177 75.492 183.819 73.9042 183.819C72.3164 183.819 71.0293 185.177 71.0293 186.852C71.0293 188.527 72.3164 189.885 73.9042 189.885ZM100.455 186.852C100.455 188.527 99.1678 189.885 97.58 189.885C95.9922 189.885 94.7051 188.527 94.7051 186.852C94.7051 185.177 95.9922 183.819 97.58 183.819C99.1678 183.819 100.455 185.177 100.455 186.852ZM121.254 189.885C122.842 189.885 124.129 188.527 124.129 186.852C124.129 185.177 122.842 183.819 121.254 183.819C119.666 183.819 118.379 185.177 118.379 186.852C118.379 188.527 119.666 189.885 121.254 189.885ZM147.805 186.852C147.805 188.527 146.517 189.885 144.93 189.885C143.342 189.885 142.055 188.527 142.055 186.852C142.055 185.177 143.342 183.819 144.93 183.819C146.517 183.819 147.805 185.177 147.805 186.852ZM168.607 189.885C170.195 189.885 171.482 188.527 171.482 186.852C171.482 185.177 170.195 183.819 168.607 183.819C167.02 183.819 165.733 185.177 165.733 186.852C165.733 188.527 167.02 189.885 168.607 189.885ZM195.156 186.852C195.156 188.527 193.869 189.885 192.281 189.885C190.693 189.885 189.406 188.527 189.406 186.852C189.406 185.177 190.693 183.819 192.281 183.819C193.869 183.819 195.156 185.177 195.156 186.852ZM215.957 189.885C217.545 189.885 218.832 188.527 218.832 186.852C218.832 185.177 217.545 183.819 215.957 183.819C214.369 183.819 213.082 185.177 213.082 186.852C213.082 188.527 214.369 189.885 215.957 189.885ZM242.51 186.852C242.51 188.527 241.222 189.885 239.635 189.885C238.047 189.885 236.76 188.527 236.76 186.852C236.76 185.177 238.047 183.819 239.635 183.819C241.222 183.819 242.51 185.177 242.51 186.852ZM263.31 189.885C264.898 189.885 266.185 188.527 266.185 186.852C266.185 185.177 264.898 183.819 263.31 183.819C261.723 183.819 260.435 185.177 260.435 186.852C260.435 188.527 261.723 189.885 263.31 189.885ZM289.861 186.852C289.861 188.527 288.574 189.885 286.986 189.885C285.398 189.885 284.111 188.527 284.111 186.852C284.111 185.177 285.398 183.819 286.986 183.819C288.574 183.819 289.861 185.177 289.861 186.852ZM310.66 189.885C312.248 189.885 313.535 188.527 313.535 186.852C313.535 185.177 312.248 183.819 310.66 183.819C309.072 183.819 307.785 185.177 307.785 186.852C307.785 188.527 309.072 189.885 310.66 189.885ZM337.213 186.852C337.213 188.527 335.926 189.885 334.338 189.885C332.75 189.885 331.463 188.527 331.463 186.852C331.463 185.177 332.75 183.819 334.338 183.819C335.926 183.819 337.213 185.177 337.213 186.852ZM358.013 189.885C359.601 189.885 360.888 188.527 360.888 186.852C360.888 185.177 359.601 183.819 358.013 183.819C356.426 183.819 355.138 185.177 355.138 186.852C355.138 188.527 356.426 189.885 358.013 189.885ZM384.564 186.852C384.564 188.527 383.277 189.885 381.689 189.885C380.102 189.885 378.814 188.527 378.814 186.852C378.814 185.177 380.102 183.819 381.689 183.819C383.277 183.819 384.564 185.177 384.564 186.852ZM405.365 189.885C406.953 189.885 408.24 188.527 408.24 186.852C408.24 185.177 406.953 183.819 405.365 183.819C403.777 183.819 402.49 185.177 402.49 186.852C402.49 188.527 403.777 189.885 405.365 189.885ZM431.916 186.852C431.916 188.527 430.629 189.885 429.041 189.885C427.453 189.885 426.166 188.527 426.166 186.852C426.166 185.177 427.453 183.819 429.041 183.819C430.629 183.819 431.916 185.177 431.916 186.852ZM452.717 189.885C454.304 189.885 455.591 188.527 455.591 186.852C455.591 185.177 454.304 183.819 452.717 183.819C451.129 183.819 449.842 185.177 449.842 186.852C449.842 188.527 451.129 189.885 452.717 189.885ZM479.267 186.852C479.267 188.527 477.98 189.885 476.393 189.885C474.805 189.885 473.518 188.527 473.518 186.852C473.518 185.177 474.805 183.819 476.393 183.819C477.98 183.819 479.267 185.177 479.267 186.852ZM500.07 189.885C501.658 189.885 502.945 188.527 502.945 186.852C502.945 185.177 501.658 183.819 500.07 183.819C498.482 183.819 497.195 185.177 497.195 186.852C497.195 188.527 498.482 189.885 500.07 189.885ZM526.619 186.852C526.619 188.527 525.332 189.885 523.744 189.885C522.156 189.885 520.869 188.527 520.869 186.852C520.869 185.177 522.156 183.819 523.744 183.819C525.332 183.819 526.619 185.177 526.619 186.852ZM547.422 189.885C549.01 189.885 550.297 188.527 550.297 186.852C550.297 185.177 549.01 183.819 547.422 183.819C545.834 183.819 544.547 185.177 544.547 186.852C544.547 188.527 545.834 189.885 547.422 189.885ZM573.973 186.852C573.973 188.527 572.685 189.885 571.098 189.885C569.51 189.885 568.223 188.527 568.223 186.852C568.223 185.177 569.51 183.819 571.098 183.819C572.685 183.819 573.973 185.177 573.973 186.852ZM594.773 189.885C596.361 189.885 597.648 188.527 597.648 186.852C597.648 185.177 596.361 183.819 594.773 183.819C593.186 183.819 591.898 185.177 591.898 186.852C591.898 188.527 593.186 189.885 594.773 189.885ZM621.324 186.852C621.324 188.527 620.037 189.885 618.449 189.885C616.861 189.885 615.574 188.527 615.574 186.852C615.574 185.177 616.861 183.819 618.449 183.819C620.037 183.819 621.324 185.177 621.324 186.852ZM642.125 189.885C643.713 189.885 645 188.527 645 186.852C645 185.177 643.713 183.819 642.125 183.819C640.537 183.819 639.25 185.177 639.25 186.852C639.25 188.527 640.537 189.885 642.125 189.885ZM5.74986 208.262C5.74986 209.937 4.46271 211.295 2.87493 211.295C1.28715 211.295 0 209.937 0 208.262C0 206.586 1.28715 205.229 2.87493 205.229C4.46271 205.229 5.74986 206.586 5.74986 208.262ZM29.4257 208.262C29.4257 209.937 28.1385 211.295 26.5507 211.295C24.9629 211.295 23.6758 209.937 23.6758 208.262C23.6758 206.586 24.9629 205.229 26.5507 205.229C28.1385 205.229 29.4257 206.586 29.4257 208.262ZM50.2265 211.295C51.8143 211.295 53.1015 209.937 53.1015 208.262C53.1015 206.586 51.8143 205.229 50.2265 205.229C48.6387 205.229 47.3516 206.586 47.3516 208.262C47.3516 209.937 48.6387 211.295 50.2265 211.295ZM76.7792 208.262C76.7792 209.937 75.492 211.295 73.9042 211.295C72.3164 211.295 71.0293 209.937 71.0293 208.262C71.0293 206.586 72.3164 205.229 73.9042 205.229C75.492 205.229 76.7792 206.586 76.7792 208.262ZM97.58 211.295C99.1678 211.295 100.455 209.937 100.455 208.262C100.455 206.586 99.1678 205.229 97.58 205.229C95.9922 205.229 94.7051 206.586 94.7051 208.262C94.7051 209.937 95.9922 211.295 97.58 211.295ZM124.129 208.262C124.129 209.937 122.842 211.295 121.254 211.295C119.666 211.295 118.379 209.937 118.379 208.262C118.379 206.586 119.666 205.229 121.254 205.229C122.842 205.229 124.129 206.586 124.129 208.262ZM144.93 211.295C146.517 211.295 147.805 209.937 147.805 208.262C147.805 206.586 146.517 205.229 144.93 205.229C143.342 205.229 142.055 206.586 142.055 208.262C142.055 209.937 143.342 211.295 144.93 211.295ZM171.482 208.262C171.482 209.937 170.195 211.295 168.607 211.295C167.02 211.295 165.733 209.937 165.733 208.262C165.733 206.586 167.02 205.229 168.607 205.229C170.195 205.229 171.482 206.586 171.482 208.262ZM192.281 211.295C193.869 211.295 195.156 209.937 195.156 208.262C195.156 206.586 193.869 205.229 192.281 205.229C190.693 205.229 189.406 206.586 189.406 208.262C189.406 209.937 190.693 211.295 192.281 211.295ZM218.832 208.262C218.832 209.937 217.545 211.295 215.957 211.295C214.369 211.295 213.082 209.937 213.082 208.262C213.082 206.586 214.369 205.229 215.957 205.229C217.545 205.229 218.832 206.586 218.832 208.262ZM239.635 211.295C241.222 211.295 242.51 209.937 242.51 208.262C242.51 206.586 241.222 205.229 239.635 205.229C238.047 205.229 236.76 206.586 236.76 208.262C236.76 209.937 238.047 211.295 239.635 211.295ZM266.185 208.262C266.185 209.937 264.898 211.295 263.31 211.295C261.723 211.295 260.435 209.937 260.435 208.262C260.435 206.586 261.723 205.229 263.31 205.229C264.898 205.229 266.185 206.586 266.185 208.262ZM286.986 211.295C288.574 211.295 289.861 209.937 289.861 208.262C289.861 206.586 288.574 205.229 286.986 205.229C285.398 205.229 284.111 206.586 284.111 208.262C284.111 209.937 285.398 211.295 286.986 211.295ZM313.535 208.262C313.535 209.937 312.248 211.295 310.66 211.295C309.072 211.295 307.785 209.937 307.785 208.262C307.785 206.586 309.072 205.229 310.66 205.229C312.248 205.229 313.535 206.586 313.535 208.262ZM334.338 211.295C335.926 211.295 337.213 209.937 337.213 208.262C337.213 206.586 335.926 205.229 334.338 205.229C332.75 205.229 331.463 206.586 331.463 208.262C331.463 209.937 332.75 211.295 334.338 211.295ZM360.888 208.262C360.888 209.937 359.601 211.295 358.013 211.295C356.426 211.295 355.138 209.937 355.138 208.262C355.138 206.586 356.426 205.229 358.013 205.229C359.601 205.229 360.888 206.586 360.888 208.262ZM381.689 211.295C383.277 211.295 384.564 209.937 384.564 208.262C384.564 206.586 383.277 205.229 381.689 205.229C380.102 205.229 378.814 206.586 378.814 208.262C378.814 209.937 380.102 211.295 381.689 211.295ZM408.24 208.262C408.24 209.937 406.953 211.295 405.365 211.295C403.777 211.295 402.49 209.937 402.49 208.262C402.49 206.586 403.777 205.229 405.365 205.229C406.953 205.229 408.24 206.586 408.24 208.262ZM429.041 211.295C430.629 211.295 431.916 209.937 431.916 208.262C431.916 206.586 430.629 205.229 429.041 205.229C427.453 205.229 426.166 206.586 426.166 208.262C426.166 209.937 427.453 211.295 429.041 211.295ZM455.591 208.262C455.591 209.937 454.304 211.295 452.717 211.295C451.129 211.295 449.842 209.937 449.842 208.262C449.842 206.586 451.129 205.229 452.717 205.229C454.304 205.229 455.591 206.586 455.591 208.262ZM476.393 211.295C477.98 211.295 479.267 209.937 479.267 208.262C479.267 206.586 477.98 205.229 476.393 205.229C474.805 205.229 473.518 206.586 473.518 208.262C473.518 209.937 474.805 211.295 476.393 211.295ZM502.945 208.262C502.945 209.937 501.658 211.295 500.07 211.295C498.482 211.295 497.195 209.937 497.195 208.262C497.195 206.586 498.482 205.229 500.07 205.229C501.658 205.229 502.945 206.586 502.945 208.262ZM523.744 211.295C525.332 211.295 526.619 209.937 526.619 208.262C526.619 206.586 525.332 205.229 523.744 205.229C522.156 205.229 520.869 206.586 520.869 208.262C520.869 209.937 522.156 211.295 523.744 211.295ZM550.297 208.262C550.297 209.937 549.01 211.295 547.422 211.295C545.834 211.295 544.547 209.937 544.547 208.262C544.547 206.586 545.834 205.229 547.422 205.229C549.01 205.229 550.297 206.586 550.297 208.262ZM571.098 211.295C572.685 211.295 573.973 209.937 573.973 208.262C573.973 206.586 572.685 205.229 571.098 205.229C569.51 205.229 568.223 206.586 568.223 208.262C568.223 209.937 569.51 211.295 571.098 211.295ZM597.648 208.262C597.648 209.937 596.361 211.295 594.773 211.295C593.186 211.295 591.898 209.937 591.898 208.262C591.898 206.586 593.186 205.229 594.773 205.229C596.361 205.229 597.648 206.586 597.648 208.262ZM618.449 211.295C620.037 211.295 621.324 209.937 621.324 208.262C621.324 206.586 620.037 205.229 618.449 205.229C616.861 205.229 615.574 206.586 615.574 208.262C615.574 209.937 616.861 211.295 618.449 211.295ZM645 208.262C645 209.937 643.713 211.295 642.125 211.295C640.537 211.295 639.25 209.937 639.25 208.262C639.25 206.586 640.537 205.229 642.125 205.229C643.713 205.229 645 206.586 645 208.262ZM2.87493 232.704C4.46271 232.704 5.74986 231.346 5.74986 229.671C5.74986 227.996 4.46271 226.638 2.87493 226.638C1.28715 226.638 0 227.996 0 229.671C0 231.346 1.28715 232.704 2.87493 232.704ZM26.5507 232.704C28.1385 232.704 29.4257 231.346 29.4257 229.671C29.4257 227.996 28.1385 226.638 26.5507 226.638C24.9629 226.638 23.6758 227.996 23.6758 229.671C23.6758 231.346 24.9629 232.704 26.5507 232.704ZM53.1015 229.671C53.1015 231.346 51.8143 232.704 50.2265 232.704C48.6387 232.704 47.3516 231.346 47.3516 229.671C47.3516 227.996 48.6387 226.638 50.2265 226.638C51.8143 226.638 53.1015 227.996 53.1015 229.671ZM73.9042 232.704C75.492 232.704 76.7792 231.346 76.7792 229.671C76.7792 227.996 75.492 226.638 73.9042 226.638C72.3164 226.638 71.0293 227.996 71.0293 229.671C71.0293 231.346 72.3164 232.704 73.9042 232.704ZM100.455 229.671C100.455 231.346 99.1678 232.704 97.58 232.704C95.9922 232.704 94.7051 231.346 94.7051 229.671C94.7051 227.996 95.9922 226.638 97.58 226.638C99.1678 226.638 100.455 227.996 100.455 229.671ZM121.254 232.704C122.842 232.704 124.129 231.346 124.129 229.671C124.129 227.996 122.842 226.638 121.254 226.638C119.666 226.638 118.379 227.996 118.379 229.671C118.379 231.346 119.666 232.704 121.254 232.704ZM147.805 229.671C147.805 231.346 146.517 232.704 144.93 232.704C143.342 232.704 142.055 231.346 142.055 229.671C142.055 227.996 143.342 226.638 144.93 226.638C146.517 226.638 147.805 227.996 147.805 229.671ZM168.607 232.704C170.195 232.704 171.482 231.346 171.482 229.671C171.482 227.996 170.195 226.638 168.607 226.638C167.02 226.638 165.733 227.996 165.733 229.671C165.733 231.346 167.02 232.704 168.607 232.704ZM195.156 229.671C195.156 231.346 193.869 232.704 192.281 232.704C190.693 232.704 189.406 231.346 189.406 229.671C189.406 227.996 190.693 226.638 192.281 226.638C193.869 226.638 195.156 227.996 195.156 229.671ZM215.957 232.704C217.545 232.704 218.832 231.346 218.832 229.671C218.832 227.996 217.545 226.638 215.957 226.638C214.369 226.638 213.082 227.996 213.082 229.671C213.082 231.346 214.369 232.704 215.957 232.704ZM242.51 229.671C242.51 231.346 241.222 232.704 239.635 232.704C238.047 232.704 236.76 231.346 236.76 229.671C236.76 227.996 238.047 226.638 239.635 226.638C241.222 226.638 242.51 227.996 242.51 229.671ZM263.31 232.704C264.898 232.704 266.185 231.346 266.185 229.671C266.185 227.996 264.898 226.638 263.31 226.638C261.723 226.638 260.435 227.996 260.435 229.671C260.435 231.346 261.723 232.704 263.31 232.704ZM289.861 229.671C289.861 231.346 288.574 232.704 286.986 232.704C285.398 232.704 284.111 231.346 284.111 229.671C284.111 227.996 285.398 226.638 286.986 226.638C288.574 226.638 289.861 227.996 289.861 229.671ZM310.66 232.704C312.248 232.704 313.535 231.346 313.535 229.671C313.535 227.996 312.248 226.638 310.66 226.638C309.072 226.638 307.785 227.996 307.785 229.671C307.785 231.346 309.072 232.704 310.66 232.704ZM337.213 229.671C337.213 231.346 335.926 232.704 334.338 232.704C332.75 232.704 331.463 231.346 331.463 229.671C331.463 227.996 332.75 226.638 334.338 226.638C335.926 226.638 337.213 227.996 337.213 229.671ZM358.013 232.704C359.601 232.704 360.888 231.346 360.888 229.671C360.888 227.996 359.601 226.638 358.013 226.638C356.426 226.638 355.138 227.996 355.138 229.671C355.138 231.346 356.426 232.704 358.013 232.704ZM384.564 229.671C384.564 231.346 383.277 232.704 381.689 232.704C380.102 232.704 378.814 231.346 378.814 229.671C378.814 227.996 380.102 226.638 381.689 226.638C383.277 226.638 384.564 227.996 384.564 229.671ZM405.365 232.704C406.953 232.704 408.24 231.346 408.24 229.671C408.24 227.996 406.953 226.638 405.365 226.638C403.777 226.638 402.49 227.996 402.49 229.671C402.49 231.346 403.777 232.704 405.365 232.704ZM431.916 229.671C431.916 231.346 430.629 232.704 429.041 232.704C427.453 232.704 426.166 231.346 426.166 229.671C426.166 227.996 427.453 226.638 429.041 226.638C430.629 226.638 431.916 227.996 431.916 229.671ZM452.717 232.704C454.304 232.704 455.591 231.346 455.591 229.671C455.591 227.996 454.304 226.638 452.717 226.638C451.129 226.638 449.842 227.996 449.842 229.671C449.842 231.346 451.129 232.704 452.717 232.704ZM479.267 229.671C479.267 231.346 477.98 232.704 476.393 232.704C474.805 232.704 473.518 231.346 473.518 229.671C473.518 227.996 474.805 226.638 476.393 226.638C477.98 226.638 479.267 227.996 479.267 229.671ZM500.07 232.704C501.658 232.704 502.945 231.346 502.945 229.671C502.945 227.996 501.658 226.638 500.07 226.638C498.482 226.638 497.195 227.996 497.195 229.671C497.195 231.346 498.482 232.704 500.07 232.704ZM526.619 229.671C526.619 231.346 525.332 232.704 523.744 232.704C522.156 232.704 520.869 231.346 520.869 229.671C520.869 227.996 522.156 226.638 523.744 226.638C525.332 226.638 526.619 227.996 526.619 229.671ZM547.422 232.704C549.01 232.704 550.297 231.346 550.297 229.671C550.297 227.996 549.01 226.638 547.422 226.638C545.834 226.638 544.547 227.996 544.547 229.671C544.547 231.346 545.834 232.704 547.422 232.704ZM573.973 229.671C573.973 231.346 572.685 232.704 571.098 232.704C569.51 232.704 568.223 231.346 568.223 229.671C568.223 227.996 569.51 226.638 571.098 226.638C572.685 226.638 573.973 227.996 573.973 229.671ZM594.773 232.704C596.361 232.704 597.648 231.346 597.648 229.671C597.648 227.996 596.361 226.638 594.773 226.638C593.186 226.638 591.898 227.996 591.898 229.671C591.898 231.346 593.186 232.704 594.773 232.704ZM621.324 229.671C621.324 231.346 620.037 232.704 618.449 232.704C616.861 232.704 615.574 231.346 615.574 229.671C615.574 227.996 616.861 226.638 618.449 226.638C620.037 226.638 621.324 227.996 621.324 229.671ZM642.125 232.704C643.713 232.704 645 231.346 645 229.671C645 227.996 643.713 226.638 642.125 226.638C640.537 226.638 639.25 227.996 639.25 229.671C639.25 231.346 640.537 232.704 642.125 232.704ZM5.74986 251.081C5.74986 252.756 4.46271 254.114 2.87493 254.114C1.28715 254.114 0 252.756 0 251.081C0 249.406 1.28715 248.048 2.87493 248.048C4.46271 248.048 5.74986 249.406 5.74986 251.081ZM29.4257 251.081C29.4257 252.756 28.1385 254.114 26.5507 254.114C24.9629 254.114 23.6758 252.756 23.6758 251.081C23.6758 249.406 24.9629 248.048 26.5507 248.048C28.1385 248.048 29.4257 249.406 29.4257 251.081ZM50.2265 254.114C51.8143 254.114 53.1015 252.756 53.1015 251.081C53.1015 249.406 51.8143 248.048 50.2265 248.048C48.6387 248.048 47.3516 249.406 47.3516 251.081C47.3516 252.756 48.6387 254.114 50.2265 254.114ZM76.7792 251.081C76.7792 252.756 75.492 254.114 73.9042 254.114C72.3164 254.114 71.0293 252.756 71.0293 251.081C71.0293 249.406 72.3164 248.048 73.9042 248.048C75.492 248.048 76.7792 249.406 76.7792 251.081ZM97.58 254.114C99.1678 254.114 100.455 252.756 100.455 251.081C100.455 249.406 99.1678 248.048 97.58 248.048C95.9922 248.048 94.7051 249.406 94.7051 251.081C94.7051 252.756 95.9922 254.114 97.58 254.114ZM124.129 251.081C124.129 252.756 122.842 254.114 121.254 254.114C119.666 254.114 118.379 252.756 118.379 251.081C118.379 249.406 119.666 248.048 121.254 248.048C122.842 248.048 124.129 249.406 124.129 251.081ZM144.93 254.114C146.517 254.114 147.805 252.756 147.805 251.081C147.805 249.406 146.517 248.048 144.93 248.048C143.342 248.048 142.055 249.406 142.055 251.081C142.055 252.756 143.342 254.114 144.93 254.114ZM171.482 251.081C171.482 252.756 170.195 254.114 168.607 254.114C167.02 254.114 165.733 252.756 165.733 251.081C165.733 249.406 167.02 248.048 168.607 248.048C170.195 248.048 171.482 249.406 171.482 251.081ZM192.281 254.114C193.869 254.114 195.156 252.756 195.156 251.081C195.156 249.406 193.869 248.048 192.281 248.048C190.693 248.048 189.406 249.406 189.406 251.081C189.406 252.756 190.693 254.114 192.281 254.114ZM218.832 251.081C218.832 252.756 217.545 254.114 215.957 254.114C214.369 254.114 213.082 252.756 213.082 251.081C213.082 249.406 214.369 248.048 215.957 248.048C217.545 248.048 218.832 249.406 218.832 251.081ZM239.635 254.114C241.222 254.114 242.51 252.756 242.51 251.081C242.51 249.406 241.222 248.048 239.635 248.048C238.047 248.048 236.76 249.406 236.76 251.081C236.76 252.756 238.047 254.114 239.635 254.114ZM266.185 251.081C266.185 252.756 264.898 254.114 263.31 254.114C261.723 254.114 260.435 252.756 260.435 251.081C260.435 249.406 261.723 248.048 263.31 248.048C264.898 248.048 266.185 249.406 266.185 251.081ZM286.986 254.114C288.574 254.114 289.861 252.756 289.861 251.081C289.861 249.406 288.574 248.048 286.986 248.048C285.398 248.048 284.111 249.406 284.111 251.081C284.111 252.756 285.398 254.114 286.986 254.114ZM313.535 251.081C313.535 252.756 312.248 254.114 310.66 254.114C309.072 254.114 307.785 252.756 307.785 251.081C307.785 249.406 309.072 248.048 310.66 248.048C312.248 248.048 313.535 249.406 313.535 251.081ZM334.338 254.114C335.926 254.114 337.213 252.756 337.213 251.081C337.213 249.406 335.926 248.048 334.338 248.048C332.75 248.048 331.463 249.406 331.463 251.081C331.463 252.756 332.75 254.114 334.338 254.114ZM360.888 251.081C360.888 252.756 359.601 254.114 358.013 254.114C356.426 254.114 355.138 252.756 355.138 251.081C355.138 249.406 356.426 248.048 358.013 248.048C359.601 248.048 360.888 249.406 360.888 251.081ZM381.689 254.114C383.277 254.114 384.564 252.756 384.564 251.081C384.564 249.406 383.277 248.048 381.689 248.048C380.102 248.048 378.814 249.406 378.814 251.081C378.814 252.756 380.102 254.114 381.689 254.114ZM408.24 251.081C408.24 252.756 406.953 254.114 405.365 254.114C403.777 254.114 402.49 252.756 402.49 251.081C402.49 249.406 403.777 248.048 405.365 248.048C406.953 248.048 408.24 249.406 408.24 251.081ZM429.041 254.114C430.629 254.114 431.916 252.756 431.916 251.081C431.916 249.406 430.629 248.048 429.041 248.048C427.453 248.048 426.166 249.406 426.166 251.081C426.166 252.756 427.453 254.114 429.041 254.114ZM455.591 251.081C455.591 252.756 454.304 254.114 452.717 254.114C451.129 254.114 449.842 252.756 449.842 251.081C449.842 249.406 451.129 248.048 452.717 248.048C454.304 248.048 455.591 249.406 455.591 251.081ZM476.393 254.114C477.98 254.114 479.267 252.756 479.267 251.081C479.267 249.406 477.98 248.048 476.393 248.048C474.805 248.048 473.518 249.406 473.518 251.081C473.518 252.756 474.805 254.114 476.393 254.114ZM502.945 251.081C502.945 252.756 501.658 254.114 500.07 254.114C498.482 254.114 497.195 252.756 497.195 251.081C497.195 249.406 498.482 248.048 500.07 248.048C501.658 248.048 502.945 249.406 502.945 251.081ZM523.744 254.114C525.332 254.114 526.619 252.756 526.619 251.081C526.619 249.406 525.332 248.048 523.744 248.048C522.156 248.048 520.869 249.406 520.869 251.081C520.869 252.756 522.156 254.114 523.744 254.114ZM550.297 251.081C550.297 252.756 549.01 254.114 547.422 254.114C545.834 254.114 544.547 252.756 544.547 251.081C544.547 249.406 545.834 248.048 547.422 248.048C549.01 248.048 550.297 249.406 550.297 251.081ZM571.098 254.114C572.685 254.114 573.973 252.756 573.973 251.081C573.973 249.406 572.685 248.048 571.098 248.048C569.51 248.048 568.223 249.406 568.223 251.081C568.223 252.756 569.51 254.114 571.098 254.114ZM597.648 251.081C597.648 252.756 596.361 254.114 594.773 254.114C593.186 254.114 591.898 252.756 591.898 251.081C591.898 249.406 593.186 248.048 594.773 248.048C596.361 248.048 597.648 249.406 597.648 251.081ZM618.449 254.114C620.037 254.114 621.324 252.756 621.324 251.081C621.324 249.406 620.037 248.048 618.449 248.048C616.861 248.048 615.574 249.406 615.574 251.081C615.574 252.756 616.861 254.114 618.449 254.114ZM645 251.081C645 252.756 643.713 254.114 642.125 254.114C640.537 254.114 639.25 252.756 639.25 251.081C639.25 249.406 640.537 248.048 642.125 248.048C643.713 248.048 645 249.406 645 251.081Z" fill="url(#paint0_linear_10718_8613)" fill-opacity="0.6"/>
<g filter="url(#filter0_d_10718_8613)">
<path d="M393.725 198L477.067 198" stroke="url(#paint1_linear_10718_8613)" stroke-width="4.1215"/>
<path fill-rule="evenodd" clip-rule="evenodd" d="M225.049 136.075V134.804H226.423V136.075C226.423 136.454 226.116 136.761 225.736 136.761C225.357 136.761 225.049 136.454 225.049 136.075ZM225.736 137.929C226.116 137.929 226.423 138.237 226.423 138.616V141.158C226.423 141.537 226.116 141.845 225.736 141.845C225.357 141.845 225.049 141.537 225.049 141.158V138.616C225.049 138.237 225.357 137.929 225.736 137.929ZM225.736 143.012C226.116 143.012 226.423 143.32 226.423 143.699V146.241C226.423 146.62 226.116 146.928 225.736 146.928C225.357 146.928 225.049 146.62 225.049 146.241V143.699C225.049 143.32 225.357 143.012 225.736 143.012ZM225.736 148.096C226.116 148.096 226.423 148.403 226.423 148.782V151.324C226.423 151.703 226.116 152.011 225.736 152.011C225.357 152.011 225.049 151.703 225.049 151.324V148.782C225.049 148.403 225.357 148.096 225.736 148.096ZM225.736 153.179C226.116 153.179 226.423 153.486 226.423 153.866V156.407C226.423 156.787 226.116 157.094 225.736 157.094C225.357 157.094 225.049 156.787 225.049 156.407V153.866C225.049 153.486 225.357 153.179 225.736 153.179ZM225.736 158.262C226.116 158.262 226.423 158.569 226.423 158.949V160.22C226.423 160.652 226.444 161.079 226.485 161.5C226.522 161.878 226.246 162.214 225.868 162.25C225.49 162.287 225.155 162.011 225.118 161.633C225.073 161.168 225.049 160.696 225.049 160.22V158.949C225.049 158.569 225.357 158.262 225.736 158.262ZM226.125 163.552C226.488 163.442 226.872 163.647 226.982 164.01C227.232 164.835 227.561 165.625 227.962 166.373C228.141 166.707 228.015 167.123 227.68 167.302C227.346 167.482 226.93 167.356 226.751 167.021C226.308 166.195 225.944 165.321 225.667 164.408C225.557 164.045 225.762 163.662 226.125 163.552ZM228.418 168.404C228.711 168.164 229.144 168.206 229.385 168.499C229.928 169.16 230.534 169.766 231.195 170.309C231.488 170.55 231.531 170.983 231.29 171.276C231.049 171.569 230.616 171.611 230.323 171.371C229.593 170.771 228.923 170.101 228.324 169.371C228.083 169.078 228.125 168.645 228.418 168.404ZM232.392 172.014C232.571 171.679 232.987 171.554 233.322 171.733C234.069 172.133 234.859 172.462 235.684 172.712C236.048 172.822 236.253 173.206 236.143 173.569C236.033 173.932 235.649 174.137 235.286 174.027C234.373 173.751 233.499 173.386 232.673 172.944C232.339 172.765 232.213 172.348 232.392 172.014ZM237.444 173.826C237.481 173.449 237.816 173.172 238.194 173.209C238.615 173.25 239.042 173.271 239.475 173.271H240.83C241.209 173.271 241.517 173.579 241.517 173.958C241.517 174.337 241.209 174.645 240.83 174.645H239.475C238.998 174.645 238.526 174.622 238.061 174.576C237.683 174.54 237.407 174.204 237.444 173.826ZM242.853 173.958C242.853 173.579 243.161 173.271 243.54 173.271H246.25C246.63 173.271 246.937 173.579 246.937 173.958C246.937 174.337 246.63 174.645 246.25 174.645H243.54C243.161 174.645 242.853 174.337 242.853 173.958ZM248.274 173.958C248.274 173.579 248.581 173.271 248.961 173.271H251.671C252.05 173.271 252.358 173.579 252.358 173.958C252.358 174.337 252.05 174.645 251.671 174.645H248.961C248.581 174.645 248.274 174.337 248.274 173.958ZM253.694 173.958C253.694 173.579 254.002 173.271 254.381 173.271H257.091C257.471 173.271 257.778 173.579 257.778 173.958C257.778 174.337 257.471 174.645 257.091 174.645H254.381C254.002 174.645 253.694 174.337 253.694 173.958ZM259.115 173.958C259.115 173.579 259.422 173.271 259.802 173.271H262.512C262.891 173.271 263.199 173.579 263.199 173.958C263.199 174.337 262.891 174.645 262.512 174.645H259.802C259.422 174.645 259.115 174.337 259.115 173.958ZM264.535 173.958C264.535 173.579 264.843 173.271 265.222 173.271H267.932C268.312 173.271 268.619 173.579 268.619 173.958C268.619 174.337 268.312 174.645 267.932 174.645H265.222C264.843 174.645 264.535 174.337 264.535 173.958ZM269.956 173.958C269.956 173.579 270.263 173.271 270.643 173.271H273.353C273.732 173.271 274.04 173.579 274.04 173.958C274.04 174.337 273.732 174.645 273.353 174.645H270.643C270.263 174.645 269.956 174.337 269.956 173.958ZM275.376 173.958C275.376 173.579 275.684 173.271 276.063 173.271H278.774C279.153 173.271 279.46 173.579 279.46 173.958C279.46 174.337 279.153 174.645 278.774 174.645H276.063C275.684 174.645 275.376 174.337 275.376 173.958ZM280.797 173.958C280.797 173.579 281.104 173.271 281.484 173.271H284.194C284.573 173.271 284.881 173.579 284.881 173.958C284.881 174.337 284.573 174.645 284.194 174.645H281.484C281.104 174.645 280.797 174.337 280.797 173.958ZM286.217 173.958C286.217 173.579 286.525 173.271 286.904 173.271H289.615C289.994 173.271 290.301 173.579 290.301 173.958C290.301 174.337 289.994 174.645 289.615 174.645H286.904C286.525 174.645 286.217 174.337 286.217 173.958ZM291.638 173.958C291.638 173.579 291.945 173.271 292.325 173.271H295.035C295.414 173.271 295.722 173.579 295.722 173.958C295.722 174.337 295.414 174.645 295.035 174.645H292.325C291.945 174.645 291.638 174.337 291.638 173.958ZM297.058 173.958C297.058 173.579 297.366 173.271 297.745 173.271H300.456C300.835 173.271 301.143 173.579 301.143 173.958C301.143 174.337 300.835 174.645 300.456 174.645H297.745C297.366 174.645 297.058 174.337 297.058 173.958ZM302.479 173.958C302.479 173.579 302.787 173.271 303.166 173.271H304.521V174.645H303.166C302.787 174.645 302.479 174.337 302.479 173.958ZM175.01 201.435H173.646V200.061H175.01C175.389 200.061 175.697 200.368 175.697 200.748C175.697 201.127 175.389 201.435 175.01 201.435ZM177.049 200.748C177.049 200.368 177.357 200.061 177.736 200.061H180.463C180.842 200.061 181.15 200.368 181.15 200.748C181.15 201.127 180.842 201.435 180.463 201.435H177.736C177.357 201.435 177.049 201.127 177.049 200.748ZM182.502 200.748C182.502 200.368 182.81 200.061 183.189 200.061H185.916C186.295 200.061 186.603 200.368 186.603 200.748C186.603 201.127 186.295 201.435 185.916 201.435H183.189C182.81 201.435 182.502 201.127 182.502 200.748ZM187.956 200.748C187.956 200.368 188.263 200.061 188.642 200.061H191.369C191.748 200.061 192.056 200.368 192.056 200.748C192.056 201.127 191.748 201.435 191.369 201.435H188.642C188.263 201.435 187.956 201.127 187.956 200.748ZM193.409 200.748C193.409 200.368 193.716 200.061 194.096 200.061H196.822C197.201 200.061 197.509 200.368 197.509 200.748C197.509 201.127 197.201 201.435 196.822 201.435H194.096C193.716 201.435 193.409 201.127 193.409 200.748ZM198.862 200.748C198.862 200.368 199.169 200.061 199.549 200.061H202.275C202.654 200.061 202.962 200.368 202.962 200.748C202.962 201.127 202.654 201.435 202.275 201.435H199.549C199.169 201.435 198.862 201.127 198.862 200.748ZM204.315 200.748C204.315 200.368 204.622 200.061 205.002 200.061H207.728C208.108 200.061 208.415 200.368 208.415 200.748C208.415 201.127 208.108 201.435 207.728 201.435H205.002C204.622 201.435 204.315 201.127 204.315 200.748ZM209.768 200.748C209.768 200.368 210.075 200.061 210.455 200.061H213.181C213.561 200.061 213.868 200.368 213.868 200.748C213.868 201.127 213.561 201.435 213.181 201.435H210.455C210.075 201.435 209.768 201.127 209.768 200.748ZM215.221 200.748C215.221 200.368 215.528 200.061 215.908 200.061H218.634C219.014 200.061 219.321 200.368 219.321 200.748C219.321 201.127 219.014 201.435 218.634 201.435H215.908C215.528 201.435 215.221 201.127 215.221 200.748ZM220.674 200.748C220.674 200.368 220.981 200.061 221.361 200.061H224.087C224.467 200.061 224.774 200.368 224.774 200.748C224.774 201.127 224.467 201.435 224.087 201.435H221.361C220.981 201.435 220.674 201.127 220.674 200.748ZM226.127 200.748C226.127 200.368 226.435 200.061 226.814 200.061H229.54C229.92 200.061 230.227 200.368 230.227 200.748C230.227 201.127 229.92 201.435 229.54 201.435H226.814C226.435 201.435 226.127 201.127 226.127 200.748ZM231.58 200.748C231.58 200.368 231.888 200.061 232.267 200.061H234.994C235.373 200.061 235.68 200.368 235.68 200.748C235.68 201.127 235.373 201.435 234.994 201.435H232.267C231.888 201.435 231.58 201.127 231.58 200.748ZM237.033 200.748C237.033 200.368 237.341 200.061 237.72 200.061H240.447C240.826 200.061 241.134 200.368 241.134 200.748C241.134 201.127 240.826 201.435 240.447 201.435H237.72C237.341 201.435 237.033 201.127 237.033 200.748ZM242.486 200.748C242.486 200.368 242.794 200.061 243.173 200.061H245.9C246.279 200.061 246.587 200.368 246.587 200.748C246.587 201.127 246.279 201.435 245.9 201.435H243.173C242.794 201.435 242.486 201.127 242.486 200.748ZM247.939 200.748C247.939 200.368 248.247 200.061 248.626 200.061H251.353C251.732 200.061 252.04 200.368 252.04 200.748C252.04 201.127 251.732 201.435 251.353 201.435H248.626C248.247 201.435 247.939 201.127 247.939 200.748ZM253.392 200.748C253.392 200.368 253.7 200.061 254.079 200.061H256.806C257.185 200.061 257.493 200.368 257.493 200.748C257.493 201.127 257.185 201.435 256.806 201.435H254.079C253.7 201.435 253.392 201.127 253.392 200.748ZM258.845 200.748C258.845 200.368 259.153 200.061 259.532 200.061H262.259C262.638 200.061 262.946 200.368 262.946 200.748C262.946 201.127 262.638 201.435 262.259 201.435H259.532C259.153 201.435 258.845 201.127 258.845 200.748ZM264.299 200.748C264.299 200.368 264.606 200.061 264.985 200.061H267.712C268.091 200.061 268.399 200.368 268.399 200.748C268.399 201.127 268.091 201.435 267.712 201.435H264.985C264.606 201.435 264.299 201.127 264.299 200.748ZM269.752 200.748C269.752 200.368 270.059 200.061 270.439 200.061H273.165C273.544 200.061 273.852 200.368 273.852 200.748C273.852 201.127 273.544 201.435 273.165 201.435H270.439C270.059 201.435 269.752 201.127 269.752 200.748ZM275.205 200.748C275.205 200.368 275.512 200.061 275.892 200.061H278.618C278.998 200.061 279.305 200.368 279.305 200.748C279.305 201.127 278.998 201.435 278.618 201.435H275.892C275.512 201.435 275.205 201.127 275.205 200.748ZM280.658 200.748C280.658 200.368 280.965 200.061 281.345 200.061H284.071C284.451 200.061 284.758 200.368 284.758 200.748C284.758 201.127 284.451 201.435 284.071 201.435H281.345C280.965 201.435 280.658 201.127 280.658 200.748ZM286.111 200.748C286.111 200.368 286.418 200.061 286.798 200.061H289.524C289.904 200.061 290.211 200.368 290.211 200.748C290.211 201.127 289.904 201.435 289.524 201.435H286.798C286.418 201.435 286.111 201.127 286.111 200.748ZM291.564 200.748C291.564 200.368 291.872 200.061 292.251 200.061H294.977C295.357 200.061 295.664 200.368 295.664 200.748C295.664 201.127 295.357 201.435 294.977 201.435H292.251C291.872 201.435 291.564 201.127 291.564 200.748ZM297.017 200.748C297.017 200.368 297.325 200.061 297.704 200.061H300.431C300.81 200.061 301.117 200.368 301.117 200.748C301.117 201.127 300.81 201.435 300.431 201.435H297.704C297.325 201.435 297.017 201.127 297.017 200.748ZM302.47 200.748C302.47 200.368 302.778 200.061 303.157 200.061H304.52V201.435H303.157C302.778 201.435 302.47 201.127 302.47 200.748ZM208.241 226.912C208.662 226.871 209.089 226.85 209.522 226.85H210.919C211.298 226.85 211.606 226.543 211.606 226.164C211.606 225.784 211.298 225.477 210.919 225.477H209.522C209.045 225.477 208.573 225.5 208.108 225.545C207.73 225.582 207.454 225.918 207.491 226.295C207.528 226.673 207.864 226.949 208.241 226.912ZM213.713 225.477C213.333 225.477 213.026 225.784 213.026 226.164C213.026 226.543 213.333 226.85 213.713 226.85H216.507C216.886 226.85 217.194 226.543 217.194 226.164C217.194 225.784 216.886 225.477 216.507 225.477H213.713ZM219.301 225.477C218.922 225.477 218.614 225.784 218.614 226.164C218.614 226.543 218.922 226.85 219.301 226.85H222.095C222.474 226.85 222.782 226.543 222.782 226.164C222.782 225.784 222.474 225.477 222.095 225.477H219.301ZM224.889 225.477C224.51 225.477 224.202 225.784 224.202 226.164C224.202 226.543 224.51 226.85 224.889 226.85H227.683C228.062 226.85 228.37 226.543 228.37 226.164C228.37 225.784 228.062 225.477 227.683 225.477H224.889ZM230.477 225.477C230.098 225.477 229.79 225.784 229.79 226.164C229.79 226.543 230.098 226.85 230.477 226.85H233.271C233.651 226.85 233.958 226.543 233.958 226.164C233.958 225.784 233.651 225.477 233.271 225.477H230.477ZM236.065 225.477C235.686 225.477 235.378 225.784 235.378 226.164C235.378 226.543 235.686 226.85 236.065 226.85H238.859C239.239 226.85 239.546 226.543 239.546 226.164C239.546 225.784 239.239 225.477 238.859 225.477H236.065ZM241.653 225.477C241.274 225.477 240.966 225.784 240.966 226.164C240.966 226.543 241.274 226.85 241.653 226.85H244.447C244.827 226.85 245.134 226.543 245.134 226.164C245.134 225.784 244.827 225.477 244.447 225.477H241.653ZM247.241 225.477C246.862 225.477 246.554 225.784 246.554 226.164C246.554 226.543 246.862 226.85 247.241 226.85H250.035C250.415 226.85 250.722 226.543 250.722 226.164C250.722 225.784 250.415 225.477 250.035 225.477H247.241ZM252.829 225.477C252.45 225.477 252.143 225.784 252.143 226.164C252.143 226.543 252.45 226.85 252.829 226.85H255.624C256.003 226.85 256.31 226.543 256.31 226.164C256.31 225.784 256.003 225.477 255.624 225.477H252.829ZM258.418 225.477C258.038 225.477 257.731 225.784 257.731 226.164C257.731 226.543 258.038 226.85 258.418 226.85H261.212C261.591 226.85 261.899 226.543 261.899 226.164C261.899 225.784 261.591 225.477 261.212 225.477H258.418ZM264.006 225.477C263.626 225.477 263.319 225.784 263.319 226.164C263.319 226.543 263.626 226.85 264.006 226.85H266.8C267.179 226.85 267.487 226.543 267.487 226.164C267.487 225.784 267.179 225.477 266.8 225.477H264.006ZM269.594 225.477C269.214 225.477 268.907 225.784 268.907 226.164C268.907 226.543 269.214 226.85 269.594 226.85H272.388C272.767 226.85 273.075 226.543 273.075 226.164C273.075 225.784 272.767 225.477 272.388 225.477H269.594ZM275.182 225.477C274.802 225.477 274.495 225.784 274.495 226.164C274.495 226.543 274.802 226.85 275.182 226.85H277.976C278.355 226.85 278.663 226.543 278.663 226.164C278.663 225.784 278.355 225.477 277.976 225.477H275.182ZM280.77 225.477C280.391 225.477 280.083 225.784 280.083 226.164C280.083 226.543 280.391 226.85 280.77 226.85H283.564C283.943 226.85 284.251 226.543 284.251 226.164C284.251 225.784 283.943 225.477 283.564 225.477H280.77ZM286.358 225.477C285.979 225.477 285.671 225.784 285.671 226.164C285.671 226.543 285.979 226.85 286.358 226.85H289.152C289.531 226.85 289.839 226.543 289.839 226.164C289.839 225.784 289.531 225.477 289.152 225.477H286.358ZM291.946 225.477C291.567 225.477 291.259 225.784 291.259 226.164C291.259 226.543 291.567 226.85 291.946 226.85H294.74C295.12 226.85 295.427 226.543 295.427 226.164C295.427 225.784 295.12 225.477 294.74 225.477H291.946ZM297.534 225.477C297.155 225.477 296.847 225.784 296.847 226.164C296.847 226.543 297.155 226.85 297.534 226.85H300.328C300.708 226.85 301.015 226.543 301.015 226.164C301.015 225.784 300.708 225.477 300.328 225.477H297.534ZM303.122 225.477C302.743 225.477 302.435 225.784 302.435 226.164C302.435 226.543 302.743 226.85 303.122 226.85H304.519V225.477H303.122ZM205.732 227.409C206.095 227.299 206.3 226.916 206.19 226.553C206.08 226.189 205.696 225.984 205.333 226.094C204.421 226.371 203.546 226.735 202.72 227.178C202.386 227.357 202.26 227.773 202.439 228.108C202.618 228.442 203.034 228.568 203.369 228.389C204.116 227.989 204.907 227.659 205.732 227.409ZM201.242 229.812C201.535 229.571 201.578 229.139 201.337 228.845C201.096 228.552 200.663 228.51 200.37 228.751C199.64 229.35 198.97 230.02 198.371 230.75C198.13 231.043 198.172 231.476 198.465 231.717C198.759 231.958 199.191 231.915 199.432 231.622C199.975 230.962 200.581 230.355 201.242 229.812ZM198.009 233.749C198.188 233.414 198.062 232.998 197.728 232.819C197.393 232.64 196.977 232.766 196.798 233.1C196.355 233.926 195.991 234.801 195.714 235.713C195.604 236.076 195.809 236.46 196.172 236.57C196.536 236.68 196.919 236.475 197.029 236.112C197.279 235.287 197.608 234.496 198.009 233.749ZM196.532 238.621C196.569 238.244 196.293 237.908 195.915 237.871C195.538 237.834 195.202 238.111 195.165 238.488C195.12 238.953 195.097 239.425 195.097 239.902V241.19C195.097 241.569 195.404 241.877 195.783 241.877C196.163 241.877 196.47 241.569 196.47 241.19V239.902C196.47 239.47 196.491 239.042 196.532 238.621ZM196.47 243.766C196.47 243.386 196.163 243.079 195.783 243.079C195.404 243.079 195.097 243.386 195.097 243.766V246.342C195.097 246.721 195.404 247.029 195.783 247.029C196.163 247.029 196.47 246.721 196.47 246.342V243.766ZM196.47 248.918C196.47 248.538 196.163 248.231 195.783 248.231C195.404 248.231 195.097 248.538 195.097 248.918V251.494C195.097 251.873 195.404 252.18 195.783 252.18C196.163 252.18 196.47 251.873 196.47 251.494V248.918ZM196.47 254.069C196.47 253.69 196.163 253.383 195.783 253.383C195.404 253.383 195.097 253.69 195.097 254.069V256.645C195.097 257.025 195.404 257.332 195.783 257.332C196.163 257.332 196.47 257.025 196.47 256.645V254.069ZM196.47 259.221C196.47 258.842 196.163 258.534 195.783 258.534C195.404 258.534 195.097 258.842 195.097 259.221V260.509H196.47V259.221Z" fill="url(#paint2_linear_10718_8613)"/>
<rect x="187.286" y="50.3131" width="74.2985" height="78.3084" rx="17.1729" fill="#F8F8F8"/>
<rect x="187.286" y="50.3131" width="74.2985" height="78.3084" rx="17.1729" stroke="url(#paint3_linear_10718_8613)" stroke-width="1.37383"/>
<path d="M236.799 83.972V101.822C236.799 102.588 236.188 103.206 235.435 103.206H213.435C212.682 103.206 212.07 102.596 212.07 101.843V77.0916C212.07 76.3545 212.687 75.729 213.447 75.729H228.552L236.799 83.972ZM234.052 85.3458H227.182V78.4767H214.818V100.458H234.052V85.3458ZM218.939 82.5982H223.061V85.3458H218.939V82.5982ZM218.939 88.0935H229.93V90.8412H218.939V88.0935ZM218.939 93.5888H229.93V96.3365H218.939V93.5888Z" fill="#A8A8A8"/>
<rect x="93.524" y="162.967" width="74.2985" height="78.3084" rx="17.1729" fill="#F8F8F8"/>
<rect x="93.524" y="162.967" width="74.2985" height="78.3084" rx="17.1729" stroke="url(#paint4_linear_10718_8613)" stroke-width="1.37383"/>
<path d="M143.038 196.626V214.477C143.038 215.242 142.426 215.86 141.673 215.86H119.673C118.92 215.86 118.309 215.25 118.309 214.497V189.746C118.309 189.009 118.925 188.383 119.685 188.383H134.79L143.038 196.626ZM140.29 198H133.421V191.131H121.056V213.112H140.29V198ZM125.178 195.252H129.299V198H125.178V195.252ZM125.178 200.748H136.168V203.495H125.178V200.748ZM125.178 206.243H136.168V208.991H125.178V206.243Z" fill="#A8A8A8"/>
<rect x="158.633" y="267.379" width="74.2985" height="78.3084" rx="17.1729" fill="#F8F8F8"/>
<rect x="158.633" y="267.379" width="74.2985" height="78.3084" rx="17.1729" stroke="url(#paint5_linear_10718_8613)" stroke-width="1.37383"/>
<path d="M208.147 301.037V318.888C208.147 319.653 207.536 320.271 206.782 320.271H184.783C184.029 320.271 183.418 319.661 183.418 318.909V294.157C183.418 293.42 184.034 292.794 184.795 292.794H199.9L208.147 301.037ZM205.399 302.411H198.53V295.542H186.166V317.523H205.399V302.411ZM190.287 299.664H194.409V302.411H190.287V299.664ZM190.287 305.159H201.278V307.907H190.287V305.159ZM190.287 310.654H201.278V313.402H190.287V310.654Z" fill="#A8A8A8"/>
<rect x="288.858" y="139.612" width="112.063" height="118.15" rx="17.1729" fill="#F2652D"/>
<rect x="288.858" y="139.612" width="112.063" height="118.15" rx="17.1729" stroke="url(#paint6_linear_10718_8613)" stroke-width="1.37383"/>
<path d="M348.201 186.085C347.911 186.01 347.605 186.022 347.322 186.12C347.039 186.219 346.792 186.399 346.611 186.638C346.431 186.876 346.325 187.164 346.307 187.463C346.29 187.762 346.361 188.059 346.513 188.317C346.664 188.576 346.889 188.784 347.159 188.914C347.428 189.045 347.73 189.093 348.027 189.052C348.324 189.011 348.602 188.882 348.825 188.683C349.049 188.485 349.209 188.224 349.285 187.934C349.383 187.545 349.325 187.133 349.122 186.787C348.919 186.441 348.588 186.189 348.201 186.085Z" fill="white"/>
<path d="M337.72 193.398C337.62 193.228 337.487 193.08 337.328 192.962C337.169 192.845 336.989 192.761 336.797 192.715C336.507 192.639 336.201 192.652 335.918 192.75C335.635 192.848 335.388 193.028 335.207 193.267C335.026 193.506 334.921 193.793 334.903 194.092C334.885 194.391 334.957 194.689 335.108 194.947C335.26 195.205 335.485 195.413 335.754 195.544C336.024 195.674 336.326 195.722 336.623 195.681C336.919 195.64 337.197 195.512 337.421 195.313C337.645 195.114 337.805 194.853 337.881 194.563C337.97 194.168 337.913 193.754 337.72 193.398Z" fill="white"/>
<path d="M337.275 190.974C337.825 191.127 338.333 191.401 338.762 191.777L344.58 188.356C344.46 187.813 344.46 187.251 344.58 186.709C344.804 185.846 345.361 185.107 346.13 184.655C346.898 184.203 347.815 184.075 348.678 184.299C349.54 184.523 350.279 185.08 350.731 185.849C351.183 186.617 351.311 187.533 351.087 188.396C350.964 188.864 350.745 189.302 350.445 189.681L353.975 195.706C354.518 195.586 355.08 195.586 355.622 195.706C356.181 195.858 356.693 196.148 357.109 196.55L364.137 192.453L372.893 171.488C372.999 171.235 373.054 170.964 373.055 170.689C373.055 170.415 373.002 170.143 372.897 169.89C372.792 169.636 372.639 169.406 372.445 169.212C372.251 169.018 372.02 168.865 371.766 168.76C371.47 168.642 371.151 168.592 370.833 168.613C370.514 168.635 370.205 168.727 369.927 168.884L331.693 191.374L333.988 191.856C334.415 191.439 334.943 191.138 335.52 190.983C336.097 190.829 336.704 190.825 337.282 190.974" fill="white"/>
<path d="M358.04 199.89C357.929 200.317 357.735 200.719 357.469 201.071C357.203 201.423 356.871 201.72 356.49 201.943C356.11 202.167 355.689 202.314 355.252 202.375C354.815 202.436 354.37 202.411 353.942 202.3C353.515 202.189 353.114 201.995 352.762 201.729C352.409 201.463 352.113 201.131 351.889 200.75C351.665 200.37 351.519 199.949 351.457 199.512C351.396 199.075 351.422 198.63 351.533 198.202C351.684 197.644 351.974 197.132 352.377 196.716L348.924 190.813C348.301 191.02 347.633 191.047 346.996 190.892C346.433 190.75 345.919 190.459 345.509 190.048L339.726 193.424C339.867 193.977 339.867 194.558 339.726 195.111C339.629 195.541 339.447 195.947 339.193 196.307C338.938 196.667 338.615 196.973 338.242 197.208C337.869 197.443 337.454 197.602 337.019 197.676C336.585 197.751 336.14 197.739 335.71 197.641C335.28 197.543 334.874 197.362 334.514 197.107C334.154 196.853 333.848 196.53 333.613 196.157C333.378 195.784 333.219 195.368 333.145 194.934C333.071 194.5 333.083 194.055 333.18 193.625L329.404 192.822L317.753 199.689C317.516 199.826 317.308 200.009 317.143 200.228C316.977 200.446 316.857 200.696 316.79 200.962C316.722 201.227 316.709 201.504 316.75 201.775C316.791 202.046 316.886 202.306 317.029 202.54C317.196 202.816 317.423 203.051 317.695 203.225C317.966 203.399 318.275 203.508 318.595 203.544L340.323 205.995L345.711 227.2C345.813 227.623 346.047 228.003 346.379 228.284C346.711 228.566 347.125 228.734 347.559 228.766H347.84C348.226 228.744 348.599 228.611 348.912 228.383C349.225 228.155 349.466 227.842 349.605 227.48L363.021 195.392L358.123 198.243C358.175 198.793 358.148 199.348 358.041 199.89" fill="white"/>
<path d="M355.152 197.492C354.862 197.416 354.557 197.428 354.274 197.527C353.991 197.625 353.743 197.805 353.562 198.044C353.382 198.283 353.276 198.57 353.258 198.869C353.241 199.168 353.312 199.465 353.464 199.724C353.615 199.982 353.84 200.19 354.11 200.32C354.379 200.451 354.681 200.499 354.978 200.458C355.275 200.417 355.553 200.289 355.777 200.09C356.001 199.891 356.16 199.63 356.236 199.34C356.33 198.952 356.269 198.542 356.067 198.197C355.865 197.853 355.537 197.6 355.152 197.492Z" fill="white"/>
<rect x="477.68" y="156.098" width="74.2985" height="78.3084" rx="17.1729" fill="#F8F8F8"/>
<rect x="477.68" y="156.098" width="74.2985" height="78.3084" rx="17.1729" stroke="url(#paint7_linear_10718_8613)" stroke-width="1.37383"/>
<path d="M527.195 182.888C527.953 182.888 528.568 183.503 528.568 184.262V206.243C528.568 207.002 527.953 207.617 527.195 207.617H502.466C501.707 207.617 501.092 207.002 501.092 206.243V184.262C501.092 183.503 501.707 182.888 502.466 182.888H527.195ZM525.821 193.879H503.839V204.869H525.821V193.879ZM525.821 185.636H503.839V191.131H525.821V185.636ZM513.456 187.01V189.757H510.709V187.01H513.456ZM507.961 187.01V189.757H505.213V187.01H507.961Z" fill="#ABABAB"/>
</g>
<defs>
<filter id="filter0_d_10718_8613" x="37.8846" y="0.168034" width="569.735" height="406.655" filterUnits="userSpaceOnUse" color-interpolation-filters="sRGB">
<feFlood flood-opacity="0" result="BackgroundImageFix"/>
<feColorMatrix in="SourceAlpha" type="matrix" values="0 0 0 0 0 0 0 0 0 0 0 0 0 0 0 0 0 0 127 0" result="hardAlpha"/>
<feOffset dy="5.49533"/>
<feGaussianBlur stdDeviation="27.4766"/>
<feComposite in2="hardAlpha" operator="out"/>
<feColorMatrix type="matrix" values="0 0 0 0 0 0 0 0 0 0 0 0 0 0 0 0 0 0 0.08 0"/>
<feBlend mode="normal" in2="BackgroundImageFix" result="effect1_dropShadow_10718_8613"/>
<feBlend mode="normal" in="SourceGraphic" in2="effect1_dropShadow_10718_8613" result="shape"/>
</filter>
<linearGradient id="paint0_linear_10718_8613" x1="0" y1="197.557" x2="645" y2="197.557" gradientUnits="userSpaceOnUse">
<stop offset="0.045" stop-color="#D9D9D9" stop-opacity="0"/>
<stop offset="0.505" stop-color="#D9D9D9"/>
<stop offset="1" stop-color="#D9D9D9" stop-opacity="0"/>
</linearGradient>
<linearGradient id="paint1_linear_10718_8613" x1="512" y1="0" x2="512" y2="0" gradientUnits="userSpaceOnUse">
<stop stop-color="#F2652D" stop-opacity="0"/>
<stop offset="1" stop-color="#F2652D"/>
</linearGradient>
<linearGradient id="paint2_linear_10718_8613" x1="173.646" y1="198" x2="299.963" y2="198" gradientUnits="userSpaceOnUse">
<stop stop-color="#AFAFAF"/>
<stop offset="1" stop-color="#666666" stop-opacity="0"/>
</linearGradient>
<linearGradient id="paint3_linear_10718_8613" x1="199.735" y1="48.5182" x2="265.379" y2="137.686" gradientUnits="userSpaceOnUse">
<stop stop-color="#B4B4B4" stop-opacity="0.5"/>
<stop offset="1" stop-color="#797979" stop-opacity="0"/>
</linearGradient>
<linearGradient id="paint4_linear_10718_8613" x1="105.973" y1="161.173" x2="171.664" y2="251.729" gradientUnits="userSpaceOnUse">
<stop stop-color="#B4B4B4" stop-opacity="0.5"/>
<stop offset="1" stop-color="#797979" stop-opacity="0"/>
</linearGradient>
<linearGradient id="paint5_linear_10718_8613" x1="171.082" y1="265.584" x2="251.395" y2="357.258" gradientUnits="userSpaceOnUse">
<stop stop-color="#B4B4B4" stop-opacity="0.5"/>
<stop offset="1" stop-color="#797979" stop-opacity="0"/>
</linearGradient>
<linearGradient id="paint6_linear_10718_8613" x1="344.89" y1="140.299" x2="384.925" y2="263.449" gradientUnits="userSpaceOnUse">
<stop stop-color="#959595" stop-opacity="0.5"/>
<stop offset="1" stop-color="#2B2B2B" stop-opacity="0"/>
</linearGradient>
<linearGradient id="paint7_linear_10718_8613" x1="490.129" y1="154.303" x2="573.337" y2="252.032" gradientUnits="userSpaceOnUse">
<stop stop-color="#B4B4B4" stop-opacity="0.5"/>
<stop offset="1" stop-color="#797979" stop-opacity="0"/>
</linearGradient>
</defs>
</svg>
