<svg width="173" height="173" viewBox="0 0 173 173" fill="none" xmlns="http://www.w3.org/2000/svg">
<path fill-rule="evenodd" clip-rule="evenodd" d="M144.3 0.797235H28.7005C13.2899 0.797235 0.797235 13.2899 0.797235 28.7005V144.3C0.797235 159.71 13.2899 172.203 28.7005 172.203H144.3C159.71 172.203 172.203 159.71 172.203 144.3V28.7005C172.203 13.2899 159.71 0.797235 144.3 0.797235ZM28.7005 0C12.8496 0 0 12.8496 0 28.7005V144.3C0 160.15 12.8496 173 28.7005 173H144.3C160.15 173 173 160.15 173 144.3V28.7005C173 12.8496 160.15 0 144.3 0H28.7005ZM35.0779 10.3641H137.921C151.571 10.3641 162.636 21.429 162.636 35.0784V137.922C162.636 151.571 151.571 162.636 137.921 162.636H35.078C21.4286 162.636 10.3637 151.571 10.3637 137.922V35.0784C10.3637 21.4291 21.4286 10.3641 35.0779 10.3641ZM9.56642 35.0784C9.56642 20.9888 20.9883 9.56685 35.0779 9.56685H137.921C152.011 9.56685 163.433 20.9887 163.433 35.0784V137.922C163.433 152.011 152.011 163.433 137.921 163.433H35.078C20.9883 163.433 9.56642 152.011 9.56642 137.922V35.0784ZM132.341 19.1336H40.6587C28.7706 19.1336 19.1334 28.7708 19.1334 40.6589V132.341C19.1334 144.229 28.7706 153.866 40.6587 153.866H132.341C144.229 153.866 153.866 144.229 153.866 132.341V40.6589C153.866 28.7708 144.229 19.1336 132.341 19.1336ZM40.6587 18.3364C28.3303 18.3364 18.3361 28.3305 18.3361 40.6589V132.341C18.3361 144.669 28.3303 154.664 40.6587 154.664H132.341C144.669 154.664 154.663 144.669 154.663 132.341V40.6589C154.663 28.3305 144.669 18.3364 132.341 18.3364H40.6587ZM46.2391 27.9032H126.76C136.887 27.9032 145.096 36.1127 145.096 46.2396V126.76C145.096 136.887 136.887 145.097 126.76 145.097H46.2391C36.1122 145.097 27.9027 136.887 27.9027 126.76V46.2396C27.9027 36.1127 36.1122 27.9032 46.2391 27.9032ZM27.1055 46.2396C27.1055 35.6724 35.6719 27.106 46.2391 27.106H126.76C137.327 27.106 145.893 35.6724 145.893 46.2396V126.76C145.893 137.328 137.327 145.894 126.76 145.894H46.2391C35.6719 145.894 27.1055 137.328 27.1055 126.76V46.2396ZM51.0227 35.8757H121.977C130.342 35.8757 137.124 42.6574 137.124 51.0232V121.977C137.124 130.343 130.342 137.125 121.977 137.125H51.0227C42.657 137.125 35.8753 130.343 35.8753 121.977V51.0232C35.8753 42.6574 42.657 35.8757 51.0227 35.8757ZM35.078 51.0232C35.078 42.2171 42.2167 35.0784 51.0227 35.0784H121.977C130.783 35.0784 137.921 42.2171 137.921 51.0232V121.977C137.921 130.783 130.783 137.922 121.977 137.922H51.0227C42.2167 137.922 35.078 130.783 35.078 121.977V51.0232ZM55.8065 43.848H117.194C123.798 43.848 129.152 49.202 129.152 55.8065V117.194C129.152 123.798 123.798 129.152 117.194 129.152H55.8065C49.202 129.152 43.848 123.798 43.848 117.194V55.8065C43.848 49.202 49.202 43.848 55.8065 43.848ZM43.0508 55.8065C43.0508 48.7617 48.7617 43.0508 55.8065 43.0508H117.194C124.238 43.0508 129.949 48.7617 129.949 55.8065V117.194C129.949 124.238 124.238 129.949 117.194 129.949H55.8065C48.7617 129.949 43.0508 124.238 43.0508 117.194V55.8065Z" fill="url(#paint0_diamond_10728_9575)"/>
<g filter="url(#filter0_d_10728_9575)">
<rect x="52.6172" y="52.6172" width="67.765" height="67.765" rx="9.56682" fill="#F2652D" shape-rendering="crispEdges"/>
<rect x="51.9509" y="51.9509" width="69.0975" height="69.0975" rx="10.2331" stroke="url(#paint1_linear_10728_9575)" stroke-width="1.33251" shape-rendering="crispEdges"/>
<path fill-rule="evenodd" clip-rule="evenodd" d="M89.9131 103.034L106.378 86.5692L89.9131 70.1045V103.034ZM71.4023 102.549L87.3824 86.5691L71.4023 70.5891V102.549Z" fill="white"/>
</g>
<defs>
<filter id="filter0_d_10728_9575" x="19.3958" y="22.5842" width="134.208" height="134.209" filterUnits="userSpaceOnUse" color-interpolation-filters="sRGB">
<feFlood flood-opacity="0" result="BackgroundImageFix"/>
<feColorMatrix in="SourceAlpha" type="matrix" values="0 0 0 0 0 0 0 0 0 0 0 0 0 0 0 0 0 0 127 0" result="hardAlpha"/>
<feOffset dy="3.18894"/>
<feGaussianBlur stdDeviation="15.9447"/>
<feComposite in2="hardAlpha" operator="out"/>
<feColorMatrix type="matrix" values="0 0 0 0 0 0 0 0 0 0 0 0 0 0 0 0 0 0 0.08 0"/>
<feBlend mode="normal" in2="BackgroundImageFix" result="effect1_dropShadow_10728_9575"/>
<feBlend mode="normal" in="SourceGraphic" in2="effect1_dropShadow_10728_9575" result="shape"/>
</filter>
<radialGradient id="paint0_diamond_10728_9575" cx="0" cy="0" r="1" gradientUnits="userSpaceOnUse" gradientTransform="translate(86.5 86.5) scale(131.571)">
<stop stop-color="#D6D6D6"/>
<stop offset="1" stop-color="#D6D6D6" stop-opacity="0"/>
</radialGradient>
<linearGradient id="paint1_linear_10728_9575" x1="57.5356" y1="50.9777" x2="122.022" y2="124.208" gradientUnits="userSpaceOnUse">
<stop stop-color="#B5B5B5"/>
<stop offset="1" stop-color="#B5B5B5" stop-opacity="0"/>
</linearGradient>
</defs>
</svg>
