<svg width="434" height="324" viewBox="0 0 434 324" fill="none" xmlns="http://www.w3.org/2000/svg">
<g clip-path="url(#clip0_10998_7924)">
<path d="M0 32C0 14.3269 14.3269 0 32 0H402C419.673 0 434 14.3269 434 32V324H0V32Z" fill="#F1F1F1"/>
<path fill-rule="evenodd" clip-rule="evenodd" d="M217.001 0C216.328 0 215.656 0.00288978 214.984 0.00865766L214.993 1.00862C215.661 1.00288 216.331 1 217.001 1C217.671 1 218.34 1.00288 219.009 1.00862L219.017 0.00865772C218.346 0.00288981 217.674 0 217.001 0ZM210.964 0.0777082C209.626 0.112175 208.292 0.15806 206.96 0.21527L207.003 1.21435C208.329 1.15738 209.658 1.1117 210.989 1.07738L210.964 0.0777082ZM227.042 0.215271C225.71 0.158061 224.375 0.112175 223.038 0.0777086L223.012 1.07738C224.344 1.1117 225.673 1.15738 226.999 1.21435L227.042 0.215271ZM202.95 0.422194C201.611 0.502948 200.274 0.595175 198.94 0.698777L199.018 1.69577C200.346 1.59262 201.676 1.50079 203.011 1.42038L202.95 0.422194ZM235.061 0.698776C233.728 0.595175 232.391 0.502949 231.051 0.422195L230.991 1.42038C232.325 1.50079 233.656 1.59262 234.984 1.69577L235.061 0.698776ZM243.048 1.45882C241.719 1.30907 240.387 1.17063 239.052 1.04361L238.958 2.03912C240.287 2.16559 241.613 2.30343 242.936 2.45253L243.048 1.45882ZM194.949 1.04361C193.614 1.17063 192.282 1.30907 190.954 1.45882L191.066 2.45253C192.388 2.30343 193.715 2.16559 195.044 2.03912L194.949 1.04361ZM186.965 1.94374C185.639 2.11671 184.317 2.30098 182.998 2.49644L183.144 3.48563C184.458 3.29102 185.774 3.10756 187.095 2.93534L186.965 1.94374ZM251.004 2.49644C249.685 2.30098 248.362 2.11671 247.036 1.94374L246.907 2.93534C248.227 3.10756 249.544 3.29102 250.857 3.48564L251.004 2.49644ZM258.93 3.81343C257.615 3.57121 256.296 3.34018 254.974 3.12044L254.81 4.10691C256.127 4.3257 257.44 4.55572 258.749 4.79688L258.93 3.81343ZM179.028 3.12044C177.705 3.34018 176.386 3.57121 175.072 3.81343L175.253 4.79688C176.562 4.55572 177.875 4.3257 179.192 4.10691L179.028 3.12044ZM266.796 5.40573C265.489 5.11717 264.178 4.83973 262.862 4.57352L262.664 5.55365C263.974 5.8187 265.279 6.09492 266.581 6.38222L266.796 5.40573ZM171.139 4.57352C169.824 4.83973 168.512 5.11717 167.205 5.40573L167.421 6.38222C168.722 6.09492 170.028 5.8187 171.337 5.55365L171.139 4.57352ZM274.596 7.27178C273.305 6.93873 272.009 6.61661 270.709 6.30554L270.476 7.27809C271.771 7.5878 273.061 7.9085 274.347 8.2401L274.596 7.27178ZM163.293 6.30554C161.992 6.61661 160.697 6.93872 159.405 7.27178L159.655 8.2401C160.941 7.9085 162.231 7.5878 163.525 7.27809L163.293 6.30554ZM155.52 8.31038C154.229 8.66759 152.943 9.03577 151.661 9.41481L151.945 10.3737C153.221 9.99636 154.501 9.6298 155.786 9.27415L155.52 8.31038ZM282.34 9.41482C281.059 9.03578 279.773 8.6676 278.482 8.31039L278.215 9.27416C279.5 9.6298 280.781 9.99637 282.056 10.3737L282.34 9.41482ZM289.998 11.8272C288.728 11.4026 287.454 10.9888 286.175 10.5858L285.874 11.5396C287.148 11.9408 288.417 12.3528 289.681 12.7756L289.998 11.8272ZM147.827 10.5858C146.547 10.9888 145.273 11.4026 144.004 11.8272L144.321 12.7756C145.585 12.3528 146.854 11.9408 148.127 11.5396L147.827 10.5858ZM140.21 13.1333C138.948 13.5802 137.691 14.0378 136.44 14.506L136.79 15.4426C138.036 14.9764 139.288 14.5208 140.544 14.0759L140.21 13.1333ZM297.562 14.506C296.31 14.0378 295.053 13.5802 293.791 13.1333L293.457 14.0759C294.714 14.5208 295.965 14.9764 297.211 15.4426L297.562 14.506ZM132.69 15.9465C131.445 16.4373 130.205 16.9386 128.971 17.4504L129.354 18.3741C130.583 17.8646 131.817 17.3655 133.056 16.8769L132.69 15.9465ZM305.03 17.4504C303.796 16.9387 302.557 16.4373 301.312 15.9466L300.945 16.8769C302.185 17.3655 303.419 17.8646 304.647 18.3741L305.03 17.4504ZM125.276 19.0208C124.048 19.5556 122.825 20.1008 121.608 20.6563L122.024 21.566C123.235 21.0129 124.452 20.4701 125.675 19.9377L125.276 19.0208ZM312.393 20.6563C311.176 20.1008 309.954 19.5556 308.725 19.0208L308.326 19.9377C309.549 20.4701 310.766 21.0129 311.978 21.566L312.393 20.6563ZM117.975 22.3535C116.766 22.9312 115.563 23.519 114.366 24.117L114.813 25.0116C116.005 24.4162 117.202 23.8309 118.406 23.2558L117.975 22.3535ZM319.635 24.117C318.438 23.519 317.235 22.9312 316.027 22.3536L315.596 23.2558C316.799 23.8309 317.997 24.4162 319.189 25.0116L319.635 24.117ZM110.79 25.9424C109.605 26.561 108.425 27.1897 107.251 27.8283L107.729 28.7067C108.898 28.0709 110.072 27.445 111.253 26.8291L110.79 25.9424ZM326.75 27.8283C325.577 27.1897 324.397 26.561 323.211 25.9424L322.749 26.8291C323.929 27.445 325.104 28.0709 326.273 28.7067L326.75 27.8283ZM103.739 29.7791C102.575 30.4393 101.417 31.1093 100.265 31.7891L100.773 32.6503C101.92 31.9734 103.073 31.3063 104.232 30.649L103.739 29.7791ZM333.736 31.7891C332.585 31.1093 331.427 30.4393 330.262 29.7791L329.769 30.649C330.928 31.3063 332.081 31.9734 333.228 32.6503L333.736 31.7891ZM96.8276 33.8589C95.6864 34.5597 94.5517 35.2702 93.4238 35.9903L93.9619 36.8332C95.0849 36.1162 96.2146 35.4089 97.3509 34.7111L96.8276 33.8589ZM340.578 35.9903C339.45 35.2702 338.315 34.5598 337.174 33.8589L336.651 34.7111C337.787 35.4089 338.917 36.1163 340.04 36.8332L340.578 35.9903ZM90.0602 38.179C88.9448 38.9188 87.8362 39.668 86.7346 40.4266L87.3017 41.2502C88.3986 40.4949 89.5024 39.749 90.6129 39.0124L90.0602 38.179ZM347.267 40.4266C346.165 39.668 345.057 38.9188 343.941 38.179L343.389 39.0124C344.499 39.749 345.603 40.4949 346.7 41.2502L347.267 40.4266ZM83.4477 42.7323C82.3591 43.5102 81.2775 44.2973 80.2032 45.0936L80.7987 45.8969C81.8683 45.1041 82.9452 44.3204 84.0291 43.5459L83.4477 42.7323ZM353.798 45.0935C352.724 44.2973 351.642 43.5102 350.554 42.7323L349.972 43.5459C351.056 44.3204 352.133 45.1041 353.203 45.8969L353.798 45.0935ZM76.9987 47.5121C75.9375 48.3276 74.8835 49.1522 73.8371 49.9857L74.4601 50.7679C75.502 49.938 76.5514 49.117 77.608 48.305L76.9987 47.5121ZM360.164 49.9857C359.118 49.1522 358.064 48.3276 357.003 47.5121L356.393 48.305C357.45 49.117 358.499 49.938 359.541 50.7679L360.164 49.9857ZM70.72 52.5129C69.6876 53.3648 68.6628 54.2257 67.6456 55.0952L68.2954 55.8553C69.3082 54.9895 70.3286 54.1324 71.3565 53.2841L70.72 52.5129ZM366.356 55.0952C365.339 54.2257 364.314 53.3648 363.281 52.5129L362.645 53.2841C363.673 54.1324 364.693 54.9895 365.706 55.8553L366.356 55.0952ZM64.6173 57.7299C63.6155 58.6169 62.6216 59.5124 61.6355 60.4165L62.3113 61.1536C63.2931 60.2534 64.2828 59.3617 65.2802 58.4786L64.6173 57.7299ZM372.366 60.4165C371.38 59.5124 370.386 58.6169 369.384 57.7299L368.721 58.4786C369.719 59.3617 370.708 60.2534 371.69 61.1536L372.366 60.4165ZM58.7002 63.1549C57.7297 64.0761 56.7673 65.0057 55.813 65.9435L56.514 66.6567C57.4641 65.7229 58.4224 64.7974 59.3886 63.8801L58.7002 63.1549ZM378.188 65.9435C377.234 65.0057 376.272 64.0761 375.301 63.1549L374.613 63.8801C375.579 64.7974 376.537 65.7229 377.487 66.6567L378.188 65.9435ZM52.9748 68.7818C52.0369 69.736 51.1073 70.6985 50.1861 71.6689L50.9114 72.3574C51.8286 71.3911 52.7542 70.4329 53.688 69.4827L52.9748 68.7818ZM383.815 71.6689C382.894 70.6985 381.965 69.7361 381.027 68.7818L380.313 69.4827C381.247 70.4329 382.173 71.3911 383.09 72.3574L383.815 71.6689ZM47.4477 74.6042C46.5437 75.5903 45.6481 76.5843 44.7611 77.5861L45.5099 78.249C46.393 77.2515 47.2847 76.2618 48.1848 75.28L47.4477 74.6042ZM389.24 77.5861C388.353 76.5843 387.458 75.5903 386.554 74.6042L385.817 75.28C386.717 76.2618 387.608 77.2515 388.492 78.249L389.24 77.5861ZM42.1265 80.6144C41.2569 81.6315 40.3961 82.6564 39.5441 83.6888L40.3154 84.3253C41.1637 83.2973 42.0208 82.2769 42.8866 81.2642L42.1265 80.6144ZM394.457 83.6888C393.605 82.6564 392.745 81.6315 391.875 80.6144L391.115 81.2642C391.981 82.2769 392.838 83.2973 393.686 84.3253L394.457 83.6888ZM37.0169 86.8058C36.1834 87.8523 35.3588 88.9062 34.5433 89.9674L35.3362 90.5768C36.1482 89.5201 36.9692 88.4708 37.7991 87.4288L37.0169 86.8058ZM399.458 89.9674C398.643 88.9062 397.818 87.8523 396.985 86.8058L396.202 87.4288C397.032 88.4708 397.853 89.5201 398.665 90.5768L399.458 89.9674ZM404.238 96.4164C403.46 95.3278 402.673 94.2463 401.877 93.172L401.073 93.7674C401.866 94.8371 402.65 95.9139 403.424 96.9978L404.238 96.4164ZM32.1248 93.172C31.3285 94.2463 30.5414 95.3278 29.7635 96.4164L30.5772 96.9978C31.3517 95.9139 32.1354 94.8371 32.9282 93.7674L32.1248 93.172ZM27.4578 99.7033C26.6993 100.805 25.95 101.914 25.2103 103.029L26.0437 103.582C26.7802 102.471 27.5262 101.367 28.2815 100.27L27.4578 99.7033ZM408.791 103.029C408.051 101.914 407.302 100.805 406.544 99.7033L405.72 100.27C406.475 101.367 407.221 102.471 407.958 103.582L408.791 103.029ZM23.0215 106.393C22.3015 107.52 21.591 108.655 20.8902 109.796L21.7423 110.32C22.4401 109.183 23.1475 108.054 23.8644 106.931L23.0215 106.393ZM413.111 109.796C412.41 108.655 411.7 107.52 410.98 106.393L410.137 106.931C410.854 108.054 411.561 109.183 412.259 110.32L413.111 109.796ZM18.8204 113.234C18.1406 114.385 17.4705 115.543 16.8104 116.708L17.6803 117.201C18.3376 116.042 19.0047 114.889 19.6815 113.742L18.8204 113.234ZM417.191 116.708C416.531 115.543 415.861 114.385 415.181 113.234L414.32 113.742C414.997 114.889 415.664 116.042 416.321 117.201L417.191 116.708ZM421.028 123.759C420.409 122.573 419.781 121.393 419.142 120.22L418.264 120.698C418.899 121.866 419.525 123.041 420.141 124.222L421.028 123.759ZM14.8595 120.22C14.2209 121.393 13.5923 122.573 12.9737 123.759L13.8603 124.222C14.4762 123.041 15.1021 121.866 15.7379 120.698L14.8595 120.22ZM424.617 130.944C424.039 129.735 423.451 128.532 422.853 127.335L421.959 127.782C422.554 128.973 423.139 130.171 423.714 131.375L424.617 130.944ZM11.1482 127.335C10.5503 128.532 9.96241 129.735 9.38481 130.944L10.2871 131.375C10.8622 130.171 11.4475 128.973 12.0428 127.782L11.1482 127.335ZM7.68756 134.577C7.13206 135.794 6.58687 137.017 6.05209 138.245L6.96895 138.644C7.50139 137.421 8.0442 136.204 8.59726 134.992L7.68756 134.577ZM427.949 138.245C427.415 137.017 426.869 135.794 426.314 134.577L425.404 134.992C425.957 136.204 426.5 137.421 427.033 138.644L427.949 138.245ZM4.48166 141.94C3.9699 143.174 3.46858 144.413 2.9778 145.658L3.90811 146.025C4.39674 144.786 4.89587 143.552 5.40539 142.323L4.48166 141.94ZM431.024 145.658C430.533 144.413 430.032 143.174 429.52 141.94L428.596 142.323C429.106 143.552 429.605 144.786 430.093 146.025L431.024 145.658ZM1.53722 149.409C1.06902 150.66 0.611416 151.917 0.164515 153.179L1.10715 153.513C1.55209 152.256 2.00769 151.005 2.47383 149.759L1.53722 149.409ZM433.837 153.179C433.39 151.917 432.932 150.66 432.464 149.409L431.528 149.759C431.994 151.005 432.449 152.256 432.894 153.513L433.837 153.179ZM-1.14152 156.972C-1.56613 158.242 -1.97997 159.516 -2.38293 160.795L-1.42913 161.096C-1.02794 159.822 -0.615911 158.553 -0.193162 157.29L-1.14152 156.972ZM436.384 160.795C435.981 159.516 435.568 158.242 435.143 156.972L434.195 157.29C434.617 158.553 435.029 159.822 435.431 161.096L436.384 160.795ZM-3.55393 164.63C-3.93297 165.912 -4.30115 167.198 -4.65836 168.488L-3.69459 168.755C-3.33895 167.47 -2.97238 166.19 -2.595 164.914L-3.55393 164.63ZM438.66 168.488C438.303 167.198 437.934 165.912 437.555 164.63L436.596 164.914C436.974 166.19 437.34 167.47 437.696 168.755L438.66 168.488ZM-5.69697 172.374C-6.03002 173.665 -6.35214 174.961 -6.66321 176.261L-5.69066 176.494C-5.38095 175.2 -5.06025 173.909 -4.72865 172.624L-5.69697 172.374ZM440.665 176.261C440.354 174.961 440.031 173.665 439.698 172.374L438.73 172.624C439.062 173.909 439.382 175.2 439.692 176.494L440.665 176.261ZM-7.56302 180.174C-7.85158 181.481 -8.12902 182.792 -8.39523 184.108L-7.4151 184.306C-7.15005 182.997 -6.87383 181.691 -6.58653 180.389L-7.56302 180.174ZM442.397 184.108C442.13 182.792 441.853 181.481 441.564 180.174L440.588 180.389C440.875 181.691 441.152 182.997 441.417 184.306L442.397 184.108ZM-9.15532 188.04C-9.39754 189.355 -9.62857 190.674 -9.84831 191.996L-8.86184 192.16C-8.64305 190.844 -8.41303 189.531 -8.17187 188.222L-9.15532 188.04ZM443.85 191.996C443.63 190.674 443.399 189.355 443.157 188.04L442.173 188.222C442.414 189.531 442.645 190.844 442.863 192.16L443.85 191.996ZM-10.4723 195.967C-10.6678 197.285 -10.852 198.608 -11.025 199.934L-10.0334 200.063C-9.86119 198.743 -9.67773 197.426 -9.48311 196.113L-10.4723 195.967ZM445.026 199.934C444.854 198.608 444.669 197.285 444.474 195.967L443.485 196.113C443.679 197.426 443.863 198.743 444.035 200.063L445.026 199.934ZM-11.5099 203.923C-11.6597 205.251 -11.7981 206.583 -11.9251 207.918L-10.9296 208.013C-10.8032 206.683 -10.6653 205.357 -10.5162 204.035L-11.5099 203.923ZM445.927 207.918C445.8 206.583 445.661 205.251 445.511 203.923L444.518 204.035C444.667 205.357 444.805 206.683 444.931 208.013L445.927 207.918ZM446.548 215.919C446.467 214.579 446.375 213.243 446.271 211.909L445.274 211.986C445.378 213.314 445.469 214.645 445.55 215.979L446.548 215.919ZM-12.27 211.909C-12.3736 213.243 -12.4658 214.579 -12.5466 215.919L-11.5484 215.979C-11.468 214.645 -11.3761 213.314 -11.273 211.986L-12.27 211.909ZM-12.7535 219.929C-12.8107 221.26 -12.8566 222.595 -12.891 223.932L-11.8914 223.958C-11.8571 222.626 -11.8114 221.298 -11.7544 219.972L-12.7535 219.929ZM446.893 223.932C446.858 222.595 446.812 221.26 446.755 219.929L445.756 219.972C445.813 221.298 445.859 222.626 445.893 223.958L446.893 223.932ZM-12.9601 227.953C-12.9659 228.624 -12.9688 229.297 -12.9688 229.969C-12.9688 230.642 -12.9659 231.315 -12.9601 231.986L-11.9601 231.977C-11.9659 231.309 -11.9688 230.639 -11.9688 229.969C-11.9688 229.299 -11.9659 228.63 -11.9601 227.962L-12.9601 227.953ZM446.97 229.969C446.97 229.297 446.967 228.624 446.962 227.953L445.962 227.962C445.967 228.63 445.97 229.299 445.97 229.969C445.97 230.639 445.967 231.309 445.962 231.977L446.962 231.986C446.967 231.315 446.97 230.642 446.97 229.969ZM-12.891 236.007C-12.8566 237.344 -12.8107 238.679 -12.7535 240.01L-11.7544 239.967C-11.8114 238.641 -11.8571 237.313 -11.8914 235.981L-12.891 236.007ZM446.755 240.01C446.812 238.679 446.858 237.344 446.893 236.007L445.893 235.981C445.859 237.313 445.813 238.641 445.756 239.967L446.755 240.01ZM-12.5466 244.02C-12.4658 245.36 -12.3736 246.696 -12.27 248.03L-11.273 247.953C-11.3761 246.625 -11.468 245.294 -11.5484 243.96L-12.5466 244.02ZM446.271 248.03C446.375 246.696 446.467 245.36 446.548 244.02L445.55 243.96C445.469 245.294 445.378 246.625 445.274 247.953L446.271 248.03ZM445.511 256.016C445.661 254.688 445.8 253.356 445.927 252.021L444.931 251.926C444.805 253.256 444.667 254.582 444.518 255.904L445.511 256.016ZM-11.9251 252.021C-11.7981 253.356 -11.6597 254.688 -11.5099 256.016L-10.5162 255.904C-10.6653 254.582 -10.8032 253.256 -10.9296 251.926L-11.9251 252.021ZM-11.025 260.005C-10.852 261.331 -10.6678 262.654 -10.4723 263.972L-9.48312 263.826C-9.67773 262.513 -9.86119 261.196 -10.0334 259.876L-11.025 260.005ZM444.474 263.972C444.669 262.654 444.854 261.331 445.026 260.005L444.035 259.876C443.863 261.196 443.679 262.513 443.485 263.826L444.474 263.972ZM-9.84831 267.943C-9.62857 269.265 -9.39754 270.584 -9.15532 271.899L-8.17187 271.717C-8.41303 270.408 -8.64305 269.095 -8.86184 267.779L-9.84831 267.943ZM443.157 271.899C443.399 270.584 443.63 269.265 443.85 267.943L442.863 267.779C442.645 269.095 442.414 270.408 442.173 271.717L443.157 271.899ZM-8.39523 275.831C-8.12902 277.147 -7.85158 278.458 -7.56302 279.765L-6.58653 279.55C-6.87383 278.248 -7.15005 276.942 -7.4151 275.633L-8.39523 275.831ZM441.564 279.765C441.853 278.458 442.13 277.147 442.397 275.831L441.417 275.633C441.152 276.942 440.875 278.248 440.588 279.55L441.564 279.765ZM-6.66321 283.678C-6.35214 284.978 -6.03003 286.274 -5.69697 287.565L-4.72865 287.315C-5.06025 286.03 -5.38095 284.739 -5.69066 283.445L-6.66321 283.678ZM439.698 287.565C440.031 286.274 440.354 284.978 440.665 283.678L439.692 283.445C439.382 284.739 439.062 286.03 438.73 287.315L439.698 287.565ZM-4.65837 291.451C-4.30116 292.741 -3.93298 294.027 -3.55394 295.309L-2.59501 295.025C-2.97239 293.749 -3.33895 292.469 -3.6946 291.184L-4.65837 291.451ZM437.555 295.309C437.934 294.027 438.303 292.741 438.66 291.451L437.696 291.184C437.34 292.469 436.974 293.749 436.596 295.025L437.555 295.309ZM-2.38293 299.144C-1.97997 300.423 -1.56613 301.697 -1.14152 302.967L-0.193162 302.649C-0.615911 301.385 -1.02794 300.117 -1.42913 298.843L-2.38293 299.144ZM435.143 302.967C435.568 301.697 435.981 300.423 436.384 299.144L435.431 298.843C435.029 300.117 434.617 301.385 434.195 302.649L435.143 302.967ZM0.164514 306.76C0.611413 308.022 1.06902 309.279 1.53721 310.53L2.47383 310.18C2.00769 308.934 1.55209 307.683 1.10715 306.426L0.164514 306.76ZM432.464 310.53C432.932 309.279 433.39 308.022 433.837 306.76L432.894 306.426C432.449 307.683 431.994 308.934 431.528 310.18L432.464 310.53ZM2.9778 314.281C3.46857 315.526 3.9699 316.765 4.48166 317.999L5.40538 317.616C4.89586 316.387 4.39673 315.153 3.90811 313.914L2.9778 314.281ZM429.52 317.999C430.032 316.765 430.533 315.526 431.024 314.281L430.093 313.914C429.605 315.153 429.106 316.387 428.596 317.616L429.52 317.999ZM6.05209 321.694C6.58687 322.922 7.13206 324.145 7.68755 325.362L8.59725 324.947C8.04419 323.735 7.50138 322.518 6.96894 321.295L6.05209 321.694ZM426.314 325.362C426.869 324.145 427.415 322.922 427.949 321.694L427.033 321.295C426.5 322.518 425.957 323.735 425.404 324.947L426.314 325.362ZM9.3848 328.995C9.9624 330.204 10.5503 331.407 11.1482 332.604L12.0428 332.157C11.4475 330.966 10.8622 329.768 10.2871 328.564L9.3848 328.995ZM422.853 332.604C423.451 331.407 424.039 330.204 424.617 328.995L423.714 328.564C423.139 329.768 422.554 330.966 421.959 332.157L422.853 332.604ZM12.9737 336.18C13.5923 337.366 14.2209 338.546 14.8595 339.719L15.7379 339.241C15.1021 338.073 14.4762 336.898 13.8603 335.717L12.9737 336.18ZM419.142 339.719C419.781 338.546 420.409 337.366 421.028 336.18L420.141 335.717C419.525 336.898 418.899 338.073 418.264 339.241L419.142 339.719ZM16.8104 343.231C17.4705 344.396 18.1406 345.554 18.8204 346.705L19.6815 346.197C19.0047 345.05 18.3376 343.897 17.6803 342.738L16.8104 343.231ZM415.181 346.705C415.861 345.554 416.531 344.396 417.191 343.231L416.321 342.738C415.664 343.897 414.997 345.05 414.32 346.197L415.181 346.705ZM20.8902 350.143C21.591 351.284 22.3015 352.418 23.0215 353.546L23.8644 353.008C23.1475 351.885 22.4401 350.756 21.7423 349.619L20.8902 350.143ZM410.98 353.546C411.7 352.418 412.41 351.284 413.111 350.143L412.259 349.619C411.561 350.756 410.854 351.885 410.137 353.008L410.98 353.546ZM25.2103 356.91C25.95 358.025 26.6993 359.134 27.4578 360.236L28.2815 359.669C27.5262 358.572 26.7802 357.468 26.0437 356.357L25.2103 356.91ZM406.544 360.236C407.302 359.134 408.051 358.025 408.791 356.91L407.958 356.357C407.221 357.468 406.475 358.572 405.72 359.669L406.544 360.236ZM29.7635 363.523C30.5414 364.611 31.3285 365.693 32.1248 366.767L32.9282 366.172C32.1354 365.102 31.3517 364.025 30.5772 362.941L29.7635 363.523ZM401.877 366.767C402.673 365.693 403.46 364.611 404.238 363.523L403.424 362.941C402.65 364.025 401.866 365.102 401.073 366.172L401.877 366.767ZM34.5433 369.972C35.3588 371.033 36.1834 372.087 37.0169 373.133L37.7991 372.51C36.9692 371.468 36.1482 370.419 35.3362 369.362L34.5433 369.972ZM396.985 373.133C397.818 372.087 398.643 371.033 399.458 369.972L398.665 369.362C397.853 370.419 397.032 371.468 396.202 372.51L396.985 373.133ZM39.5441 376.25C40.3961 377.283 41.2569 378.307 42.1265 379.325L42.8866 378.675C42.0208 377.662 41.1637 376.642 40.3154 375.614L39.5441 376.25ZM391.875 379.325C392.745 378.307 393.605 377.283 394.457 376.25L393.686 375.614C392.838 376.642 391.981 377.662 391.115 378.675L391.875 379.325ZM44.7611 382.353C45.6481 383.355 46.5437 384.349 47.4477 385.335L48.1848 384.659C47.2847 383.677 46.393 382.687 45.5099 381.69L44.7611 382.353ZM386.554 385.335C387.458 384.349 388.353 383.355 389.24 382.353L388.492 381.69C387.608 382.687 386.717 383.677 385.817 384.659L386.554 385.335ZM50.1861 388.27C51.1073 389.241 52.0369 390.203 52.9748 391.157L53.688 390.456C52.7542 389.506 51.8286 388.548 50.9114 387.582L50.1861 388.27ZM381.027 391.157C381.965 390.203 382.894 389.241 383.815 388.27L383.09 387.582C382.173 388.548 381.247 389.506 380.313 390.456L381.027 391.157ZM55.813 393.995C56.7673 394.933 57.7297 395.863 58.7002 396.784L59.3886 396.059C58.4224 395.142 57.4641 394.216 56.514 393.282L55.813 393.995ZM375.301 396.784C376.272 395.863 377.234 394.933 378.188 393.995L377.487 393.282C376.537 394.216 375.579 395.142 374.613 396.059L375.301 396.784ZM61.6355 399.522C62.6216 400.427 63.6155 401.322 64.6173 402.209L65.2802 401.46C64.2828 400.577 63.2931 399.686 62.3113 398.785L61.6355 399.522ZM369.384 402.209C370.386 401.322 371.38 400.427 372.366 399.522L371.69 398.785C370.708 399.686 369.719 400.577 368.721 401.46L369.384 402.209ZM67.6456 404.844C68.6628 405.713 69.6876 406.574 70.72 407.426L71.3565 406.655C70.3286 405.807 69.3082 404.949 68.2954 404.084L67.6456 404.844ZM363.281 407.426C364.314 406.574 365.339 405.713 366.356 404.844L365.706 404.084C364.693 404.949 363.673 405.807 362.645 406.655L363.281 407.426ZM73.8371 409.953C74.8835 410.787 75.9375 411.611 76.9987 412.427L77.608 411.634C76.5514 410.822 75.502 410.001 74.4601 409.171L73.8371 409.953ZM357.003 412.427C358.064 411.611 359.118 410.787 360.164 409.953L359.541 409.171C358.499 410.001 357.45 410.822 356.393 411.634L357.003 412.427ZM80.2032 414.845C81.2775 415.642 82.3591 416.429 83.4477 417.207L84.0291 416.393C82.9452 415.619 81.8683 414.835 80.7987 414.042L80.2032 414.845ZM350.554 417.207C351.642 416.429 352.724 415.642 353.798 414.845L353.203 414.042C352.133 414.835 351.056 415.619 349.972 416.393L350.554 417.207ZM86.7346 419.512C87.8362 420.271 88.9448 421.02 90.0602 421.76L90.6129 420.927C89.5024 420.19 88.3986 419.444 87.3017 418.689L86.7346 419.512ZM343.941 421.76C345.057 421.02 346.165 420.271 347.267 419.512L346.7 418.689C345.603 419.444 344.499 420.19 343.389 420.927L343.941 421.76ZM93.4238 423.949C94.5517 424.669 95.6864 425.379 96.8276 426.08L97.3509 425.228C96.2146 424.53 95.0849 423.823 93.9619 423.106L93.4238 423.949ZM337.174 426.08C338.315 425.379 339.45 424.669 340.578 423.949L340.04 423.106C338.917 423.823 337.787 424.53 336.651 425.228L337.174 426.08ZM100.265 428.15C101.417 428.83 102.575 429.5 103.739 430.16L104.232 429.29C103.073 428.633 101.92 427.966 100.773 427.289L100.265 428.15ZM330.262 430.16C331.427 429.5 332.585 428.83 333.736 428.15L333.228 427.289C332.081 427.966 330.928 428.633 329.769 429.29L330.262 430.16ZM107.251 432.111C108.425 432.749 109.605 433.378 110.79 433.997L111.253 433.11C110.072 432.494 108.898 431.868 107.729 431.232L107.251 432.111ZM323.211 433.997C324.397 433.378 325.577 432.749 326.75 432.111L326.273 431.232C325.104 431.868 323.929 432.494 322.749 433.11L323.211 433.997ZM114.366 435.822C115.563 436.42 116.766 437.008 117.975 437.585L118.406 436.683C117.202 436.108 116.005 435.523 114.813 434.927L114.366 435.822ZM316.027 437.585C317.235 437.008 318.438 436.42 319.635 435.822L319.189 434.927C317.997 435.523 316.799 436.108 315.595 436.683L316.027 437.585ZM121.608 439.283C122.825 439.838 124.048 440.383 125.276 440.918L125.675 440.001C124.452 439.469 123.235 438.926 122.024 438.373L121.608 439.283ZM308.725 440.918C309.954 440.383 311.176 439.838 312.393 439.283L311.978 438.373C310.766 438.926 309.549 439.469 308.326 440.001L308.725 440.918ZM128.971 442.489C130.205 443 131.445 443.502 132.689 443.992L133.056 443.062C131.817 442.573 130.583 442.074 129.354 441.565L128.971 442.489ZM301.312 443.992C302.557 443.502 303.796 443 305.03 442.489L304.647 441.565C303.419 442.074 302.185 442.573 300.945 443.062L301.312 443.992ZM136.44 445.433C137.691 445.901 138.948 446.359 140.21 446.806L140.544 445.863C139.288 445.418 138.036 444.963 136.79 444.496L136.44 445.433ZM293.791 446.806C295.053 446.359 296.31 445.901 297.562 445.433L297.211 444.496C295.965 444.963 294.714 445.418 293.457 445.863L293.791 446.806ZM144.004 448.112C145.273 448.536 146.547 448.95 147.827 449.353L148.127 448.399C146.854 447.998 145.585 447.586 144.321 447.163L144.004 448.112ZM286.175 449.353C287.454 448.95 288.728 448.536 289.998 448.112L289.681 447.163C288.417 447.586 287.148 447.998 285.874 448.399L286.175 449.353ZM151.661 450.524C152.943 450.903 154.229 451.271 155.52 451.629L155.786 450.665C154.501 450.309 153.221 449.943 151.945 449.565L151.661 450.524ZM278.482 451.629C279.773 451.271 281.059 450.903 282.34 450.524L282.056 449.565C280.781 449.943 279.5 450.309 278.215 450.665L278.482 451.629ZM159.405 452.667C160.697 453 161.992 453.322 163.293 453.633L163.525 452.661C162.231 452.351 160.941 452.03 159.655 451.699L159.405 452.667ZM270.709 453.633C272.009 453.322 273.305 453 274.596 452.667L274.347 451.699C273.061 452.03 271.771 452.351 270.476 452.661L270.709 453.633ZM167.205 454.533C168.512 454.822 169.824 455.099 171.139 455.365L171.337 454.385C170.028 454.12 168.722 453.844 167.421 453.557L167.205 454.533ZM262.862 455.365C264.178 455.099 265.489 454.822 266.796 454.533L266.581 453.557C265.279 453.844 263.974 454.12 262.664 454.385L262.862 455.365ZM175.072 456.126C176.386 456.368 177.705 456.599 179.028 456.819L179.192 455.832C177.875 455.613 176.562 455.383 175.253 455.142L175.072 456.126ZM254.974 456.819C256.296 456.599 257.615 456.368 258.93 456.126L258.749 455.142C257.44 455.383 256.127 455.613 254.81 455.832L254.974 456.819ZM182.998 457.443C184.317 457.638 185.639 457.822 186.965 457.995L187.095 457.004C185.774 456.831 184.458 456.648 183.144 456.453L182.998 457.443ZM247.036 457.995C248.362 457.822 249.685 457.638 251.004 457.443L250.857 456.453C249.544 456.648 248.227 456.831 246.907 457.004L247.036 457.995ZM239.052 458.895C240.387 458.768 241.719 458.63 243.048 458.48L242.936 457.486C241.613 457.636 240.287 457.773 238.958 457.9L239.052 458.895ZM190.954 458.48C192.282 458.63 193.614 458.768 194.949 458.895L195.044 457.9C193.715 457.773 192.388 457.636 191.066 457.486L190.954 458.48ZM198.94 459.24C200.274 459.344 201.611 459.436 202.95 459.517L203.011 458.519C201.676 458.438 200.346 458.346 199.018 458.243L198.94 459.24ZM231.051 459.517C232.391 459.436 233.728 459.344 235.061 459.24L234.984 458.243C233.656 458.346 232.325 458.438 230.991 458.519L231.051 459.517ZM206.96 459.724C208.292 459.781 209.626 459.827 210.964 459.861L210.989 458.862C209.658 458.827 208.329 458.782 207.003 458.725L206.96 459.724ZM223.038 459.861C224.375 459.827 225.71 459.781 227.042 459.724L226.999 458.725C225.673 458.782 224.344 458.827 223.012 458.862L223.038 459.861ZM214.984 459.93C215.656 459.936 216.328 459.939 217.001 459.939C217.674 459.939 218.346 459.936 219.017 459.93L219.009 458.93C218.34 458.936 217.671 458.939 217.001 458.939C216.331 458.939 215.661 458.936 214.993 458.93L214.984 459.93ZM215.013 83.8804C215.674 83.8716 216.337 83.8672 217 83.8672C217.663 83.8672 218.325 83.8716 218.987 83.8804L218.973 84.8803C218.317 84.8716 217.659 84.8672 217 84.8672C216.341 84.8672 215.683 84.8716 215.026 84.8803L215.013 83.8804ZM222.941 83.9858C224.263 84.0387 225.581 84.1091 226.894 84.1969L226.827 85.1947C225.523 85.1075 224.214 85.0375 222.901 84.985L222.941 83.9858ZM207.106 84.1969C208.419 84.1091 209.737 84.0387 211.059 83.9858L211.099 84.985C209.785 85.0375 208.477 85.1075 207.173 85.1947L207.106 84.1969ZM230.835 84.5137C232.153 84.6375 233.465 84.7788 234.773 84.9373L234.652 85.93C233.354 85.7726 232.05 85.6322 230.741 85.5093L230.835 84.5137ZM199.227 84.9373C200.535 84.7788 201.847 84.6375 203.165 84.5137L203.258 85.5093C201.95 85.6323 200.646 85.7726 199.348 85.93L199.227 84.9373ZM238.689 85.4661C239.998 85.6609 241.302 85.8731 242.6 86.1025L242.425 87.0872C241.137 86.8595 239.842 86.6487 238.542 86.4552L238.689 85.4661ZM191.4 86.1025C192.698 85.8732 194.002 85.6609 195.311 85.4661L195.458 86.4552C194.158 86.6487 192.863 86.8595 191.574 87.0873L191.4 86.1025ZM246.48 86.8428C247.777 87.1085 249.067 87.3914 250.351 87.6912L250.124 88.665C248.849 88.3673 247.567 88.0863 246.279 87.8224L246.48 86.8428ZM183.648 87.6912C184.932 87.3914 186.223 87.1085 187.52 86.8428L187.721 87.8224C186.433 88.0863 185.151 88.3673 183.876 88.665L183.648 87.6912ZM254.188 88.6425C255.468 88.9781 256.74 89.3307 258.005 89.7L257.725 90.6599C256.468 90.2932 255.205 89.9431 253.935 89.6097L254.188 88.6425ZM175.995 89.7C177.26 89.3307 178.532 88.9781 179.811 88.6425L180.065 89.6097C178.795 89.9431 177.531 90.2932 176.275 90.6599L175.995 89.7ZM261.787 90.8598C263.044 91.2644 264.295 91.6857 265.537 92.1232L265.205 93.0664C263.971 92.6319 262.729 92.2136 261.48 91.8118L261.787 90.8598ZM168.462 92.1232C169.705 91.6857 170.955 91.2645 172.213 90.8598L172.519 91.8118C171.27 92.2136 170.029 92.6319 168.795 93.0665L168.462 92.1232ZM269.252 93.4883C270.485 93.9606 271.71 94.4492 272.926 94.9537L272.543 95.8774C271.335 95.3764 270.118 94.8912 268.894 94.4221L269.252 93.4883ZM161.074 94.9537C162.29 94.4492 163.515 93.9607 164.748 93.4883L165.106 94.4222C163.881 94.8912 162.665 95.3764 161.457 95.8774L161.074 94.9537ZM276.562 96.5198C277.767 97.0583 278.963 97.6126 280.15 98.1825L279.717 99.084C278.538 98.5181 277.35 97.9675 276.154 97.4327L276.562 96.5198ZM153.85 98.1825C155.037 97.6126 156.233 97.0583 157.438 96.5198L157.846 97.4328C156.649 97.9675 155.462 98.5181 154.283 99.084L153.85 98.1825ZM283.696 99.9446C284.87 100.548 286.034 101.166 287.189 101.8L286.708 102.677C285.561 102.047 284.404 101.433 283.239 100.834L283.696 99.9446ZM146.811 101.8C147.966 101.166 149.13 100.548 150.304 99.9446L150.761 100.834C149.595 101.433 148.439 102.047 147.292 102.677L146.811 101.8ZM290.633 103.752C291.772 104.418 292.902 105.099 294.021 105.795L293.493 106.644C292.382 105.953 291.26 105.276 290.128 104.615L290.633 103.752ZM139.978 105.795C141.098 105.099 142.227 104.418 143.367 103.752L143.871 104.615C142.74 105.276 141.618 105.953 140.506 106.644L139.978 105.795ZM297.354 107.929C298.455 108.656 299.547 109.397 300.627 110.153L300.054 110.972C298.981 110.222 297.897 109.485 296.803 108.764L297.354 107.929ZM133.373 110.153C134.453 109.397 135.545 108.656 136.646 107.929L137.197 108.764C136.103 109.486 135.019 110.222 133.946 110.972L133.373 110.153ZM303.839 112.463C304.899 113.249 305.949 114.048 306.987 114.861L306.371 115.648C305.34 114.841 304.297 114.047 303.244 113.267L303.839 112.463ZM127.012 114.861C128.051 114.048 129.101 113.249 130.161 112.463L130.756 113.267C129.703 114.047 128.66 114.841 127.629 115.648L127.012 114.861ZM310.07 117.341C311.086 118.182 312.091 119.037 313.085 119.905L312.427 120.658C311.44 119.796 310.442 118.947 309.432 118.112L310.07 117.341ZM120.915 119.905C121.908 119.037 122.914 118.183 123.93 117.341L124.568 118.112C123.558 118.947 122.56 119.796 121.573 120.658L120.915 119.905ZM316.029 122.548C316.999 123.443 317.956 124.35 318.902 125.27L318.204 125.987C317.265 125.073 316.314 124.172 315.351 123.283L316.029 122.548ZM115.098 125.27C116.043 124.35 117.001 123.443 117.971 122.548L118.649 123.283C117.686 124.172 116.735 125.073 115.796 125.987L115.098 125.27ZM321.7 128.068C322.62 129.013 323.527 129.971 324.421 130.94L323.686 131.618C322.798 130.655 321.897 129.704 320.983 128.766L321.7 128.068ZM109.578 130.94C110.473 129.971 111.38 129.013 112.3 128.068L113.017 128.766C112.103 129.704 111.202 130.655 110.314 131.618L109.578 130.94ZM327.065 133.885C327.932 134.878 328.787 135.883 329.628 136.9L328.858 137.537C328.022 136.528 327.173 135.529 326.312 134.543L327.065 133.885ZM104.372 136.9C105.213 135.883 106.067 134.878 106.935 133.885L107.688 134.543C106.826 135.529 105.978 136.528 105.142 137.537L104.372 136.9ZM332.109 139.982C332.922 141.021 333.721 142.07 334.506 143.131L333.702 143.726C332.923 142.672 332.129 141.63 331.321 140.598L332.109 139.982ZM99.4937 143.131C100.279 142.07 101.078 141.021 101.891 139.982L102.679 140.599C101.871 141.63 101.077 142.672 100.297 143.726L99.4937 143.131ZM336.817 146.342C337.573 147.423 338.314 148.514 339.041 149.616L338.206 150.167C337.484 149.072 336.748 147.989 335.997 146.916L336.817 146.342ZM94.9592 149.616C95.686 148.514 96.4273 147.423 97.1829 146.343L98.0024 146.916C97.252 147.989 96.5158 149.072 95.7939 150.167L94.9592 149.616ZM341.175 152.948C341.871 154.068 342.552 155.197 343.218 156.336L342.355 156.841C341.693 155.71 341.017 154.588 340.326 153.476L341.175 152.948ZM90.7819 156.336C91.448 155.197 92.1291 154.068 92.8249 152.948L93.6742 153.476C92.9831 154.588 92.3067 155.71 91.6452 156.841L90.7819 156.336ZM345.169 159.781C345.803 160.936 346.422 162.1 347.025 163.274L346.136 163.731C345.536 162.565 344.922 161.409 344.293 160.262L345.169 159.781ZM86.9748 163.274C87.5781 162.1 88.1967 160.936 88.8305 159.781L89.7072 160.262C89.0777 161.409 88.4633 162.565 87.8642 163.731L86.9748 163.274ZM348.787 166.82C349.357 168.007 349.911 169.203 350.45 170.408L349.537 170.816C349.002 169.619 348.452 168.431 347.886 167.252L348.787 166.82ZM83.5501 170.408C84.0886 169.203 84.6429 168.007 85.2128 166.82L86.1143 167.252C85.5483 168.431 84.9978 169.619 84.463 170.816L83.5501 170.408ZM352.016 174.043C352.52 175.26 353.009 176.485 353.481 177.718L352.547 178.075C352.078 176.851 351.593 175.635 351.092 174.426L352.016 174.043ZM80.5186 177.718C80.9909 176.485 81.4795 175.26 81.984 174.043L82.9077 174.426C82.4067 175.635 81.9215 176.851 81.4524 178.076L80.5186 177.718ZM354.846 181.432C355.284 182.675 355.705 183.925 356.11 185.183L355.158 185.489C354.756 184.24 354.338 182.998 353.903 181.764L354.846 181.432ZM77.8901 185.183C78.2947 183.925 78.7159 182.675 79.1535 181.432L80.0967 181.764C79.6622 182.998 79.2439 184.24 78.842 185.489L77.8901 185.183ZM357.27 188.965C357.639 190.23 357.991 191.502 358.327 192.781L357.36 193.035C357.026 191.765 356.676 190.501 356.31 189.245L357.27 188.965ZM75.6727 192.781C76.0084 191.502 76.361 190.23 76.7302 188.965L77.6902 189.245C77.3235 190.501 76.9733 191.765 76.64 193.035L75.6727 192.781ZM359.278 196.618C359.578 197.902 359.861 199.193 360.127 200.49L359.147 200.69C358.883 199.402 358.602 198.121 358.305 196.845L359.278 196.618ZM73.873 200.49C74.1388 199.193 74.4217 197.902 74.7215 196.618L75.6953 196.846C75.3975 198.121 75.1166 199.403 74.8527 200.69L73.873 200.49ZM360.867 204.37C361.096 205.668 361.309 206.971 361.504 208.281L360.514 208.428C360.321 207.128 360.11 205.833 359.882 204.544L360.867 204.37ZM72.4963 208.281C72.6912 206.971 72.9034 205.668 73.1328 204.37L74.1175 204.544C73.8897 205.833 73.679 207.128 73.4854 208.428L72.4963 208.281ZM362.032 212.197C362.191 213.504 362.332 214.817 362.456 216.135L361.46 216.228C361.337 214.919 361.197 213.616 361.04 212.317L362.032 212.197ZM71.544 216.135C71.6677 214.817 71.809 213.504 71.9676 212.197L72.9603 212.317C72.8028 213.616 72.6625 214.92 72.5396 216.228L71.544 216.135ZM362.773 220.076C362.86 221.389 362.931 222.706 362.984 224.028L361.985 224.068C361.932 222.755 361.862 221.446 361.775 220.142L362.773 220.076ZM71.0161 224.029C71.0689 222.706 71.1394 221.389 71.2272 220.076L72.225 220.143C72.1378 221.447 72.0678 222.755 72.0153 224.069L71.0161 224.029ZM363.089 227.983C363.098 228.644 363.102 229.306 363.102 229.97C363.102 230.633 363.098 231.295 363.089 231.956L362.089 231.943C362.098 231.286 362.102 230.628 362.102 229.97C362.102 229.311 362.098 228.653 362.089 227.996L363.089 227.983ZM70.8975 229.97C70.8975 229.306 70.9019 228.644 70.9107 227.983L71.9106 227.996C71.9018 228.653 71.8975 229.311 71.8975 229.97C71.8975 230.629 71.9019 231.286 71.9106 231.943L70.9107 231.956C70.9019 231.295 70.8975 230.633 70.8975 229.97ZM362.984 235.911C362.931 237.233 362.86 238.551 362.773 239.863L361.775 239.797C361.862 238.493 361.932 237.184 361.985 235.871L362.984 235.911ZM71.2272 239.864C71.1394 238.551 71.0689 237.233 71.0161 235.911L72.0153 235.871C72.0678 237.184 72.1378 238.493 72.225 239.797L71.2272 239.864ZM362.456 243.805C362.332 245.122 362.191 246.435 362.032 247.742L361.04 247.622C361.197 246.323 361.337 245.02 361.46 243.711L362.456 243.805ZM71.9676 247.742C71.809 246.435 71.6678 245.122 71.544 243.805L72.5396 243.711C72.6625 245.02 72.8028 246.324 72.9603 247.622L71.9676 247.742ZM361.504 251.658C361.309 252.968 361.096 254.271 360.867 255.569L359.882 255.395C360.11 254.106 360.321 252.812 360.514 251.511L361.504 251.658ZM73.1328 255.569C72.9034 254.272 72.6912 252.968 72.4963 251.659L73.4855 251.511C73.679 252.812 73.8897 254.106 74.1175 255.395L73.1328 255.569ZM360.127 259.45C359.861 260.746 359.578 262.037 359.278 263.321L358.305 263.094C358.602 261.819 358.883 260.537 359.147 259.249L360.127 259.45ZM74.7215 263.321C74.4217 262.037 74.1388 260.746 73.8731 259.45L74.8527 259.249C75.1166 260.537 75.3976 261.819 75.6953 263.094L74.7215 263.321ZM358.327 267.158C357.991 268.437 357.639 269.71 357.27 270.975L356.31 270.695C356.676 269.438 357.027 268.175 357.36 266.904L358.327 267.158ZM76.7302 270.975C76.361 269.71 76.0084 268.437 75.6727 267.158L76.64 266.904C76.9734 268.175 77.3235 269.438 77.6902 270.695L76.7302 270.975ZM356.11 274.756C355.705 276.014 355.284 277.264 354.846 278.507L353.903 278.175C354.338 276.941 354.756 275.699 355.158 274.45L356.11 274.756ZM79.1535 278.507C78.716 277.264 78.2947 276.014 77.8901 274.756L78.842 274.45C79.2439 275.699 79.6622 276.941 80.0967 278.175L79.1535 278.507ZM353.481 282.221C353.009 283.454 352.52 284.679 352.016 285.896L351.092 285.513C351.593 284.305 352.078 283.088 352.547 281.864L353.481 282.221ZM81.984 285.896C81.4795 284.679 80.9909 283.454 80.5186 282.222L81.4524 281.864C81.9215 283.088 82.4067 284.305 82.9077 285.513L81.984 285.896ZM350.45 289.532C349.911 290.736 349.357 291.932 348.787 293.12L347.886 292.687C348.452 291.508 349.002 290.32 349.537 289.124L350.45 289.532ZM85.2128 293.12C84.6429 291.932 84.0886 290.736 83.5501 289.532L84.463 289.124C84.9978 290.32 85.5483 291.508 86.1143 292.687L85.2128 293.12ZM347.025 296.666C346.422 297.839 345.803 299.004 345.169 300.159L344.293 299.678C344.922 298.531 345.537 297.374 346.136 296.209L347.025 296.666ZM88.8305 300.159C88.1967 299.004 87.5781 297.839 86.9749 296.666L87.8643 296.209C88.4633 297.374 89.0777 298.531 89.7072 299.678L88.8305 300.159ZM343.218 303.603C342.552 304.742 341.871 305.872 341.175 306.991L340.326 306.463C341.017 305.351 341.693 304.23 342.355 303.098L343.218 303.603ZM92.8249 306.991C92.1291 305.872 91.448 304.742 90.7819 303.603L91.6452 303.098C92.3067 304.23 92.9832 305.351 93.6742 306.463L92.8249 306.991ZM339.041 310.323C338.314 311.425 337.573 312.516 336.817 313.597L335.997 313.024C336.748 311.951 337.484 310.867 338.206 309.773L339.041 310.323ZM97.1829 313.597C96.4274 312.516 95.686 311.425 94.9592 310.323L95.7939 309.773C96.5158 310.867 97.252 311.951 98.0024 313.024L97.1829 313.597ZM334.506 316.808C333.721 317.869 332.922 318.919 332.109 319.957L331.321 319.341C332.129 318.309 332.923 317.267 333.702 316.213L334.506 316.808ZM101.891 319.957C101.078 318.919 100.279 317.869 99.4937 316.808L100.297 316.213C101.077 317.267 101.871 318.309 102.679 319.341L101.891 319.957ZM329.628 323.039C328.787 324.056 327.932 325.061 327.065 326.054L326.312 325.397C327.173 324.41 328.022 323.412 328.858 322.402L329.628 323.039ZM106.935 326.055C106.067 325.061 105.213 324.056 104.372 323.039L105.142 322.402C105.978 323.412 106.826 324.41 107.688 325.397L106.935 326.055ZM324.421 328.999C323.527 329.969 322.62 330.926 321.7 331.871L320.983 331.174C321.897 330.235 322.798 329.284 323.686 328.321L324.421 328.999ZM112.3 331.871C111.38 330.926 110.473 329.969 109.578 328.999L110.314 328.321C111.202 329.284 112.103 330.235 113.017 331.174L112.3 331.871ZM318.902 334.669C317.956 335.589 316.999 336.497 316.029 337.391L315.351 336.656C316.314 335.768 317.265 334.866 318.204 333.953L318.902 334.669ZM117.971 337.391C117.001 336.497 116.043 335.589 115.098 334.669L115.796 333.953C116.735 334.867 117.686 335.768 118.649 336.656L117.971 337.391ZM313.085 340.034C312.091 340.902 311.086 341.757 310.07 342.598L309.432 341.827C310.442 340.992 311.44 340.143 312.427 339.281L313.085 340.034ZM123.93 342.598C122.914 341.757 121.908 340.902 120.915 340.034L121.573 339.281C122.56 340.143 123.558 340.992 124.568 341.827L123.93 342.598ZM306.987 345.078C305.949 345.891 304.899 346.691 303.839 347.476L303.244 346.672C304.297 345.892 305.34 345.098 306.371 344.291L306.987 345.078ZM130.161 347.476C129.101 346.691 128.051 345.891 127.012 345.078L127.629 344.291C128.66 345.098 129.703 345.892 130.756 346.672L130.161 347.476ZM300.627 349.787C299.547 350.542 298.455 351.284 297.354 352.01L296.803 351.176C297.897 350.454 298.981 349.718 300.054 348.967L300.627 349.787ZM136.646 352.01C135.545 351.284 134.453 350.542 133.373 349.787L133.946 348.967C135.019 349.718 136.103 350.454 137.197 351.176L136.646 352.01ZM143.367 356.188C142.227 355.522 141.098 354.841 139.979 354.145L140.506 353.295C141.618 353.986 142.74 354.663 143.871 355.324L143.367 356.188ZM294.021 354.145C292.902 354.84 291.772 355.522 290.633 356.188L290.128 355.324C291.26 354.663 292.382 353.986 293.493 353.295L294.021 354.145ZM150.304 359.995C149.13 359.392 147.966 358.773 146.811 358.139L147.292 357.262C148.439 357.892 149.595 358.506 150.761 359.105L150.304 359.995ZM287.189 358.139C286.034 358.773 284.87 359.392 283.696 359.995L283.239 359.105C284.404 358.506 285.561 357.892 286.708 357.262L287.189 358.139ZM280.15 361.757C278.963 362.327 277.767 362.881 276.562 363.419L276.154 362.507C277.35 361.972 278.538 361.421 279.717 360.855L280.15 361.757ZM157.438 363.419C156.233 362.881 155.037 362.327 153.85 361.757L154.283 360.855C155.462 361.421 156.65 361.972 157.846 362.507L157.438 363.419ZM272.926 364.986C271.71 365.49 270.485 365.979 269.252 366.451L268.894 365.517C270.119 365.048 271.335 364.563 272.543 364.062L272.926 364.986ZM164.748 366.451C163.515 365.979 162.29 365.49 161.074 364.986L161.457 364.062C162.665 364.563 163.881 365.048 165.106 365.517L164.748 366.451ZM265.537 367.816C264.295 368.254 263.044 368.675 261.787 369.079L261.48 368.128C262.729 367.726 263.971 367.307 265.205 366.873L265.537 367.816ZM172.213 369.079C170.955 368.675 169.705 368.254 168.462 367.816L168.795 366.873C170.029 367.307 171.27 367.726 172.52 368.128L172.213 369.079ZM258.005 370.239C256.74 370.609 255.468 370.961 254.188 371.297L253.935 370.33C255.205 369.996 256.468 369.646 257.725 369.279L258.005 370.239ZM179.811 371.297C178.532 370.961 177.26 370.609 175.995 370.239L176.275 369.279C177.531 369.646 178.795 369.996 180.065 370.33L179.811 371.297ZM187.52 373.097C186.223 372.831 184.933 372.548 183.648 372.248L183.876 371.274C185.151 371.572 186.433 371.853 187.721 372.117L187.52 373.097ZM250.352 372.248C249.067 372.548 247.777 372.831 246.48 373.097L246.279 372.117C247.567 371.853 248.849 371.572 250.124 371.274L250.352 372.248ZM195.311 374.473C194.002 374.278 192.698 374.066 191.4 373.837L191.574 372.852C192.863 373.08 194.158 373.291 195.458 373.484L195.311 374.473ZM242.6 373.837C241.302 374.066 239.998 374.278 238.689 374.473L238.542 373.484C239.842 373.291 241.137 373.08 242.426 372.852L242.6 373.837ZM234.773 375.002C233.465 375.161 232.153 375.302 230.835 375.426L230.741 374.43C232.05 374.307 233.354 374.167 234.652 374.009L234.773 375.002ZM203.165 375.426C201.847 375.302 200.535 375.161 199.227 375.002L199.348 374.009C200.646 374.167 201.95 374.307 203.259 374.43L203.165 375.426ZM211.059 375.954C209.737 375.901 208.419 375.83 207.106 375.742L207.173 374.745C208.477 374.832 209.786 374.902 211.099 374.954L211.059 375.954ZM226.894 375.742C225.581 375.83 224.263 375.901 222.941 375.954L222.901 374.954C224.214 374.902 225.523 374.832 226.827 374.745L226.894 375.742ZM217 376.072C216.337 376.072 215.674 376.068 215.013 376.059L215.027 375.059C215.683 375.068 216.341 375.072 217 375.072C217.659 375.072 218.317 375.068 218.973 375.059L218.987 376.059C218.326 376.068 217.663 376.072 217 376.072ZM215.045 190.162C215.693 190.13 216.345 190.114 217.001 190.114C217.656 190.114 218.308 190.13 218.957 190.162L218.908 191.16C218.276 191.13 217.64 191.114 217.001 191.114C216.361 191.114 215.725 191.13 215.093 191.16L215.045 190.162ZM222.85 190.541C224.151 190.732 225.431 190.986 226.688 191.3L226.445 192.27C225.22 191.964 223.972 191.717 222.704 191.53L222.85 190.541ZM207.314 191.3C208.57 190.986 209.85 190.732 211.151 190.541L211.297 191.53C210.029 191.717 208.781 191.964 207.556 192.27L207.314 191.3ZM199.956 193.933C201.13 193.376 202.336 192.876 203.57 192.434L203.907 193.376C202.704 193.806 201.529 194.294 200.384 194.836L199.956 193.933ZM230.431 192.434C231.665 192.876 232.871 193.376 234.045 193.933L233.617 194.836C232.472 194.294 231.297 193.806 230.094 193.376L230.431 192.434ZM193.258 197.955C194.303 197.179 195.388 196.452 196.508 195.779L197.023 196.637C195.931 197.293 194.873 198.001 193.854 198.758L193.258 197.955ZM237.493 195.779C238.614 196.452 239.698 197.179 240.743 197.955L240.147 198.758C239.128 198.001 238.07 197.293 236.978 196.637L237.493 195.779ZM187.47 203.204C188.346 202.238 189.269 201.315 190.235 200.438L190.907 201.179C189.965 202.034 189.065 202.934 188.21 203.876L187.47 203.204ZM243.766 200.438C244.732 201.315 245.655 202.238 246.531 203.204L245.791 203.876C244.936 202.934 244.036 202.034 243.094 201.179L243.766 200.438ZM182.811 209.477C183.484 208.356 184.21 207.272 184.987 206.226L185.789 206.823C185.032 207.842 184.324 208.899 183.668 209.992L182.811 209.477ZM249.014 206.226C249.791 207.272 250.517 208.356 251.19 209.477L250.333 209.992C249.677 208.899 248.969 207.842 248.212 206.823L249.014 206.226ZM179.465 216.538C179.907 215.305 180.408 214.099 180.964 212.925L181.868 213.353C181.325 214.498 180.837 215.673 180.407 216.875L179.465 216.538ZM253.037 212.925C253.594 214.099 254.094 215.305 254.536 216.538L253.594 216.875C253.164 215.673 252.676 214.498 252.134 213.353L253.037 212.925ZM255.67 220.282C255.984 221.539 256.238 222.819 256.429 224.12L255.44 224.265C255.253 222.997 255.006 221.749 254.7 220.525L255.67 220.282ZM177.572 224.12C177.763 222.819 178.017 221.539 178.331 220.282L179.301 220.525C178.996 221.749 178.748 222.997 178.561 224.265L177.572 224.12ZM256.808 228.013C256.84 228.661 256.855 229.314 256.855 229.969C256.855 230.625 256.84 231.277 256.808 231.925L255.809 231.877C255.84 231.245 255.855 230.609 255.855 229.969C255.855 229.33 255.84 228.694 255.809 228.062L256.808 228.013ZM177.146 229.969C177.146 229.314 177.161 228.661 177.193 228.013L178.192 228.062C178.161 228.694 178.146 229.33 178.146 229.969C178.146 230.609 178.161 231.245 178.192 231.877L177.193 231.925C177.161 231.277 177.146 230.625 177.146 229.969ZM256.429 235.819C256.238 237.119 255.984 238.4 255.67 239.656L254.7 239.414C255.006 238.189 255.253 236.941 255.44 235.673L256.429 235.819ZM178.331 239.656C178.017 238.4 177.763 237.119 177.572 235.819L178.561 235.673C178.748 236.941 178.996 238.189 179.301 239.414L178.331 239.656ZM180.964 247.014C180.408 245.84 179.907 244.634 179.465 243.4L180.407 243.063C180.837 244.266 181.325 245.441 181.868 246.585L180.964 247.014ZM254.536 243.4C254.094 244.634 253.594 245.84 253.037 247.014L252.134 246.585C252.676 245.441 253.164 244.266 253.594 243.063L254.536 243.4ZM184.987 253.712C184.21 252.667 183.484 251.582 182.811 250.462L183.668 249.947C184.324 251.039 185.032 252.097 185.789 253.116L184.987 253.712ZM251.19 250.462C250.517 251.582 249.791 252.667 249.014 253.712L248.212 253.116C248.969 252.097 249.677 251.039 250.333 249.947L251.19 250.462ZM190.235 259.5C189.269 258.624 188.346 257.701 187.47 256.734L188.21 256.063C189.065 257.005 189.965 257.905 190.907 258.759L190.235 259.5ZM246.531 256.734C245.655 257.701 244.732 258.624 243.766 259.5L243.094 258.759C244.036 257.905 244.936 257.005 245.791 256.063L246.531 256.734ZM196.508 264.159C195.388 263.486 194.303 262.76 193.258 261.983L193.854 261.18C194.873 261.937 195.931 262.646 197.023 263.302L196.508 264.159ZM240.743 261.983C239.698 262.76 238.614 263.486 237.493 264.159L236.978 263.302C238.07 262.646 239.128 261.937 240.147 261.18L240.743 261.983ZM203.57 267.504C202.336 267.063 201.13 266.562 199.956 266.006L200.384 265.102C201.529 265.645 202.704 266.132 203.907 266.563L203.57 267.504ZM234.045 266.006C232.871 266.562 231.665 267.063 230.431 267.504L230.094 266.563C231.297 266.132 232.472 265.645 233.617 265.102L234.045 266.006ZM211.151 269.398C209.85 269.207 208.57 268.952 207.314 268.639L207.556 267.668C208.781 267.974 210.029 268.222 211.297 268.409L211.151 269.398ZM226.688 268.639C225.431 268.952 224.151 269.207 222.85 269.398L222.704 268.409C223.972 268.222 225.22 267.974 226.445 267.668L226.688 268.639ZM217.001 269.824C216.345 269.824 215.693 269.808 215.045 269.777L215.093 268.778C215.725 268.809 216.361 268.824 217.001 268.824C217.64 268.824 218.276 268.809 218.908 268.778L218.957 269.777C218.308 269.808 217.656 269.824 217.001 269.824ZM214.962 38.7602C215.64 38.7531 216.32 38.7495 217 38.7495C217.681 38.7495 218.36 38.7531 219.039 38.7602L219.029 39.7601C218.353 39.753 217.677 39.7495 217 39.7495C216.323 39.7495 215.647 39.753 214.972 39.7601L214.962 38.7602ZM223.101 38.845C224.453 38.8874 225.801 38.9438 227.146 39.0141L227.094 40.0127C225.756 39.9428 224.415 39.8867 223.07 39.8445L223.101 38.845ZM206.855 39.0141C208.199 38.9438 209.548 38.8874 210.899 38.845L210.931 39.8445C209.586 39.8867 208.245 39.9428 206.907 40.0127L206.855 39.0141ZM198.754 39.6088C200.096 39.4817 201.443 39.3685 202.793 39.2694L202.866 40.2667C201.523 40.3653 200.184 40.4779 198.848 40.6043L198.754 39.6088ZM231.208 39.2694C232.558 39.3685 233.904 39.4817 235.247 39.6088L235.152 40.6043C233.817 40.4779 232.478 40.3653 231.135 40.2667L231.208 39.2694ZM190.686 40.5453C192.024 40.3611 193.367 40.1908 194.714 40.0345L194.829 41.0278C193.489 41.1833 192.154 41.3527 190.823 41.5359L190.686 40.5453ZM239.287 40.0345C240.634 40.1908 241.976 40.3611 243.314 40.5453L243.178 41.5359C241.847 41.3527 240.512 41.1833 239.172 41.0278L239.287 40.0345ZM182.668 41.8231C183.999 41.5819 185.335 41.3544 186.675 41.1408L186.833 42.1283C185.499 42.3408 184.171 42.5671 182.847 42.8071L182.668 41.8231ZM247.325 41.1408C248.666 41.3544 250.001 41.5819 251.332 41.8231L251.154 42.8071C249.83 42.5671 248.501 42.3408 247.168 42.1283L247.325 41.1408ZM174.714 43.4411C176.034 43.1431 177.36 42.8587 178.69 42.5881L178.89 43.5681C177.566 43.8372 176.248 44.1201 174.934 44.4166L174.714 43.4411ZM255.311 42.5882C256.641 42.8587 257.967 43.1431 259.287 43.4412L259.067 44.4166C257.753 44.1201 256.435 43.8372 255.111 43.5681L255.311 42.5882ZM166.837 45.3971C168.141 45.0434 169.452 44.7031 170.767 44.3765L171.008 45.347C169.7 45.672 168.396 46.0104 167.099 46.3623L166.837 45.3971ZM263.234 44.3765C264.549 44.7032 265.859 45.0434 267.164 45.3972L266.902 46.3623C265.605 46.0104 264.301 45.672 262.993 45.3471L263.234 44.3765ZM159.051 47.688C160.338 47.2792 161.631 46.8836 162.93 46.5015L163.212 47.4608C161.92 47.8409 160.634 48.2344 159.354 48.6411L159.051 47.688ZM271.071 46.5015C272.37 46.8836 273.663 47.2792 274.95 47.688L274.647 48.6411C273.367 48.2344 272.081 47.841 270.789 47.4608L271.071 46.5015ZM151.37 50.3099C152.638 49.8466 153.912 49.3964 155.192 48.9594L155.515 49.9057C154.242 50.3405 152.974 50.7883 151.713 51.2492L151.37 50.3099ZM278.809 48.9594C280.089 49.3964 281.363 49.8467 282.631 50.31L282.288 51.2492C281.027 50.7884 279.759 50.3405 278.486 49.9058L278.809 48.9594ZM143.804 53.2596C145.052 52.742 146.306 52.2373 147.567 51.7456L147.931 52.6773C146.676 53.1665 145.428 53.6685 144.187 54.1833L143.804 53.2596ZM286.433 51.7457C287.695 52.2374 288.949 52.7421 290.197 53.2596L289.814 54.1833C288.573 53.6685 287.325 53.1665 286.07 52.6774L286.433 51.7457ZM136.371 56.5293C137.597 55.9585 138.83 55.4004 140.069 54.855L140.472 55.7704C139.239 56.3129 138.013 56.8681 136.794 57.4358L136.371 56.5293ZM293.931 54.8551C295.171 55.4004 296.404 55.9586 297.629 56.5293L297.207 57.4359C295.988 56.8681 294.762 56.3129 293.529 55.7704L293.931 54.8551ZM129.086 60.1127C130.287 59.4899 131.495 58.8794 132.711 58.2815L133.152 59.1789C131.943 59.7736 130.741 60.3809 129.547 61.0004L129.086 60.1127ZM301.29 58.2816C302.505 58.8795 303.714 59.4899 304.914 60.1127L304.454 61.0004C303.26 60.3809 302.058 59.7737 300.848 59.1789L301.29 58.2816ZM121.961 64.0027C123.135 63.3291 124.316 62.6677 125.505 62.0185L125.984 62.8962C124.802 63.542 123.626 64.2 122.459 64.87L121.961 64.0027ZM308.495 62.0185C309.685 62.6677 310.866 63.3292 312.04 64.0027L311.542 64.8701C310.375 64.2 309.199 63.542 308.016 62.8962L308.495 62.0185ZM115.008 68.1918C116.151 67.4692 117.303 66.7583 118.464 66.0594L118.98 66.916C117.826 67.6112 116.68 68.3184 115.542 69.0372L115.008 68.1918ZM315.537 66.0595C316.697 66.7584 317.849 67.4692 318.993 68.1919L318.459 69.0373C317.321 68.3184 316.175 67.6113 315.021 66.9161L315.537 66.0595ZM108.238 72.672C109.35 71.9018 110.471 71.143 111.599 70.3959L112.151 71.2298C111.028 71.973 109.914 72.7278 108.808 73.4941L108.238 72.672ZM322.401 70.396C323.53 71.1431 324.651 71.9018 325.763 72.6721L325.193 73.4941C324.087 72.7279 322.972 71.9731 321.849 71.2299L322.401 70.396ZM101.665 77.4349C102.743 76.6184 103.83 75.813 104.926 75.019L105.513 75.8288C104.422 76.6187 103.341 77.4198 102.268 78.2321L101.665 77.4349ZM329.075 75.0191C330.171 75.8131 331.258 76.6184 332.336 77.435L331.732 78.2321C330.66 77.4199 329.578 76.6187 328.488 75.8289L329.075 75.0191ZM95.2981 82.4715C96.3409 81.6101 97.3929 80.7596 98.454 79.9201L99.0745 80.7044C98.0189 81.5395 96.9723 82.3856 95.935 83.2425L95.2981 82.4715ZM335.547 79.9202C336.608 80.7597 337.66 81.6102 338.703 82.4716L338.066 83.2426C337.029 82.3857 335.982 81.5396 334.926 80.7044L335.547 79.9202ZM89.1494 87.773C90.1551 86.8681 91.1705 85.9738 92.1953 85.0902L92.8483 85.8475C91.8288 86.7266 90.8187 87.6163 89.8182 88.5164L89.1494 87.773ZM341.805 85.0902C342.83 85.9739 343.846 86.8682 344.851 87.7731L344.183 88.5165C343.182 87.6163 342.172 86.7266 341.153 85.8476L341.805 85.0902ZM83.2301 93.329C84.1969 92.3823 85.1738 91.4459 86.1604 90.5198L86.8448 91.2489C85.8633 92.1702 84.8915 93.1018 83.9297 94.0435L83.2301 93.329ZM347.84 90.5199C348.827 91.446 349.804 92.3824 350.771 93.329L350.071 94.0436C349.109 93.1019 348.138 92.1703 347.156 91.249L347.84 90.5199ZM77.5507 99.1295C78.4768 98.1428 79.4132 97.166 80.3599 96.1992L81.0744 96.8988C80.1327 97.8606 79.2011 98.8324 78.2798 99.8139L77.5507 99.1295ZM353.641 96.1993C354.588 97.1661 355.524 98.1429 356.45 99.1296L355.721 99.814C354.8 98.8324 353.868 97.8607 352.926 96.8989L353.641 96.1993ZM72.1211 105.164C73.0047 104.14 73.899 103.124 74.8039 102.118L75.5473 102.787C74.6472 103.788 73.7575 104.798 72.8784 105.817L72.1211 105.164ZM359.197 102.119C360.102 103.124 360.996 104.14 361.88 105.164L361.122 105.817C360.243 104.798 359.354 103.788 358.453 102.787L359.197 102.119ZM66.951 111.423C67.7905 110.362 68.6411 109.31 69.5024 108.267L70.2734 108.904C69.4165 109.941 68.5704 110.988 67.7353 112.044L66.951 111.423ZM364.498 108.267C365.36 109.31 366.21 110.362 367.05 111.423L366.266 112.044C365.43 110.988 364.584 109.941 363.727 108.904L364.498 108.267ZM62.0499 117.895C62.8439 116.799 63.6493 115.712 64.4658 114.634L65.263 115.237C64.4507 116.31 63.6496 117.391 62.8597 118.482L62.0499 117.895ZM369.535 114.634C370.352 115.712 371.157 116.799 371.951 117.895L371.141 118.482C370.351 117.392 369.55 116.31 368.738 115.238L369.535 114.634ZM57.4268 124.569C58.1739 123.44 58.9327 122.319 59.7029 121.207L60.525 121.777C59.7587 122.883 59.0039 123.997 58.2607 125.12L57.4268 124.569ZM374.298 121.207C375.068 122.319 375.827 123.44 376.574 124.569L375.74 125.121C374.997 123.998 374.242 122.883 373.476 121.777L374.298 121.207ZM53.0903 131.433C53.7892 130.273 54.5001 129.12 55.2227 127.977L56.0681 128.511C55.3493 129.649 54.6421 130.795 53.9469 131.949L53.0903 131.433ZM378.778 127.977C379.501 129.121 380.212 130.273 380.91 131.433L380.054 131.949C379.359 130.795 378.652 129.649 377.933 128.511L378.778 127.977ZM49.0494 138.474C49.6986 137.285 50.36 136.104 51.0336 134.93L51.9009 135.428C51.2309 136.595 50.5729 137.771 49.9271 138.954L49.0494 138.474ZM382.967 134.93C383.641 136.104 384.302 137.285 384.951 138.474L384.074 138.954C383.428 137.771 382.77 136.595 382.1 135.428L382.967 134.93ZM45.3124 145.68C45.9103 144.465 46.5208 143.256 47.1435 142.055L48.0313 142.516C47.4117 143.71 46.8045 144.912 46.2098 146.121L45.3124 145.68ZM386.857 142.055C387.48 143.256 388.09 144.465 388.688 145.68L387.791 146.122C387.196 144.912 386.589 143.71 385.97 142.516L386.857 142.055ZM41.8859 153.038C42.4313 151.799 42.9894 150.566 43.5602 149.34L44.4667 149.763C43.8989 150.982 43.3437 152.208 42.8013 153.441L41.8859 153.038ZM390.441 149.341C391.011 150.566 391.569 151.799 392.115 153.039L391.2 153.441C390.657 152.208 390.102 150.982 389.534 149.763L390.441 149.341ZM38.7765 160.537C39.2682 159.275 39.7729 158.021 40.2905 156.773L41.2142 157.156C40.6994 158.397 40.1973 159.645 39.7082 160.9L38.7765 160.537ZM393.71 156.773C394.228 158.021 394.733 159.275 395.224 160.537L394.293 160.9C393.803 159.645 393.301 158.397 392.787 157.156L393.71 156.773ZM35.9902 168.161C36.4273 166.881 36.8775 165.607 37.3408 164.339L38.28 164.682C37.8192 165.943 37.3713 167.211 36.9366 168.484L35.9902 168.161ZM396.66 164.339C397.123 165.607 397.573 166.881 398.011 168.161L397.064 168.484C396.629 167.211 396.182 165.943 395.721 164.682L396.66 164.339ZM33.5323 175.899C33.9145 174.6 34.31 173.307 34.7189 172.02L35.6719 172.323C35.2653 173.603 34.8718 174.889 34.4917 176.181L33.5323 175.899ZM399.282 172.02C399.691 173.307 400.086 174.6 400.468 175.899L399.509 176.181C399.129 174.889 398.735 173.603 398.329 172.323L399.282 172.02ZM31.4074 183.736C31.734 182.421 32.0743 181.111 32.428 179.806L33.3931 180.068C33.0413 181.365 32.7028 182.669 32.3779 183.977L31.4074 183.736ZM401.573 179.806C401.927 181.111 402.267 182.421 402.593 183.736L401.623 183.977C401.298 182.669 400.959 181.365 400.608 180.068L401.573 179.806ZM29.619 191.659C29.8896 190.329 30.174 189.003 30.472 187.683L31.4475 187.903C31.151 189.217 30.8681 190.535 30.5989 191.859L29.619 191.659ZM403.529 187.683C403.827 189.003 404.111 190.329 404.382 191.659L403.402 191.859C403.133 190.535 402.85 189.217 402.553 187.903L403.529 187.683ZM28.1716 199.645C28.3852 198.304 28.6127 196.968 28.854 195.638L29.8379 195.816C29.5979 197.14 29.3716 198.469 29.1592 199.802L28.1716 199.645ZM405.147 195.638C405.388 196.969 405.616 198.304 405.829 199.645L404.842 199.802C404.629 198.469 404.403 197.14 404.163 195.816L405.147 195.638ZM27.0653 207.683C27.2216 206.336 27.392 204.994 27.5761 203.655L28.5668 203.792C28.3836 205.123 28.2141 206.458 28.0586 207.798L27.0653 207.683ZM406.425 203.656C406.609 204.994 406.779 206.336 406.935 207.683L405.942 207.798C405.787 206.458 405.617 205.123 405.434 203.792L406.425 203.656ZM26.3002 215.762C26.3994 214.412 26.5126 213.065 26.6396 211.723L27.6352 211.817C27.5088 213.153 27.3962 214.492 27.2975 215.835L26.3002 215.762ZM407.361 211.723C407.488 213.065 407.601 214.412 407.701 215.762L406.703 215.835C406.605 214.492 406.492 213.153 406.366 211.817L407.361 211.723ZM25.8758 223.868C25.9182 222.517 25.9746 221.169 26.0449 219.824L27.0435 219.876C26.9736 221.214 26.9175 222.555 26.8754 223.9L25.8758 223.868ZM407.956 219.824C408.026 221.169 408.083 222.517 408.125 223.868L407.125 223.9C407.083 222.555 407.027 221.214 406.957 219.876L407.956 219.824ZM408.21 227.931C408.217 228.609 408.22 229.289 408.22 229.97C408.22 230.65 408.217 231.33 408.21 232.008L407.21 231.998C407.217 231.323 407.22 230.646 407.22 229.97C407.22 229.293 407.217 228.616 407.21 227.941L408.21 227.931ZM25.7803 229.97C25.7803 229.289 25.7839 228.609 25.791 227.931L26.7909 227.941C26.7839 228.616 26.7803 229.293 26.7803 229.97C26.7803 230.646 26.7839 231.323 26.7909 231.998L25.791 232.008C25.7839 231.33 25.7803 230.65 25.7803 229.97ZM408.125 236.071C408.083 237.422 408.026 238.771 407.956 240.115L406.957 240.063C407.027 238.725 407.083 237.384 407.125 236.039L408.125 236.071ZM26.0449 240.115C25.9746 238.771 25.9182 237.422 25.8758 236.071L26.8754 236.039C26.9175 237.384 26.9736 238.725 27.0435 240.063L26.0449 240.115ZM26.6396 248.216C26.5126 246.874 26.3994 245.527 26.3002 244.177L27.2975 244.104C27.3962 245.447 27.5088 246.786 27.6352 248.122L26.6396 248.216ZM407.701 244.177C407.601 245.527 407.488 246.874 407.361 248.216L406.366 248.122C406.492 246.786 406.605 245.447 406.703 244.104L407.701 244.177ZM27.5761 256.284C27.3919 254.945 27.2216 253.603 27.0653 252.256L28.0586 252.141C28.2141 253.481 28.3836 254.816 28.5668 256.147L27.5761 256.284ZM406.935 252.256C406.779 253.603 406.609 254.946 406.425 256.284L405.434 256.147C405.617 254.816 405.787 253.481 405.942 252.141L406.935 252.256ZM28.854 264.301C28.6127 262.971 28.3852 261.635 28.1716 260.294L29.1592 260.137C29.3716 261.47 29.5979 262.799 29.8379 264.123L28.854 264.301ZM405.829 260.295C405.616 261.635 405.388 262.971 405.147 264.302L404.163 264.123C404.403 262.799 404.629 261.471 404.842 260.137L405.829 260.295ZM30.472 272.256C30.1739 270.936 29.8895 269.61 29.619 268.28L30.5989 268.08C30.8681 269.404 31.151 270.722 31.4474 272.036L30.472 272.256ZM404.382 268.28C404.111 269.61 403.827 270.936 403.529 272.256L402.553 272.036C402.85 270.722 403.133 269.404 403.402 268.08L404.382 268.28ZM32.428 280.133C32.0742 278.828 31.734 277.518 31.4073 276.203L32.3779 275.962C32.7028 277.27 33.0413 278.574 33.3931 279.871L32.428 280.133ZM402.593 276.203C402.267 277.518 401.926 278.828 401.573 280.133L400.608 279.871C400.959 278.574 401.298 277.27 401.623 275.962L402.593 276.203ZM34.7188 287.919C34.31 286.632 33.9144 285.339 33.5323 284.04L34.4916 283.758C34.8718 285.05 35.2652 286.336 35.6719 287.616L34.7188 287.919ZM400.468 284.04C400.086 285.339 399.691 286.632 399.282 287.919L398.329 287.616C398.735 286.336 399.129 285.05 399.509 283.758L400.468 284.04ZM37.3408 295.6C36.8775 294.332 36.4272 293.058 35.9902 291.778L36.9366 291.455C37.3713 292.728 37.8192 293.996 38.28 295.257L37.3408 295.6ZM398.01 291.778C397.573 293.058 397.123 294.332 396.66 295.6L395.721 295.257C396.182 293.996 396.629 292.728 397.064 291.455L398.01 291.778ZM40.2904 303.166C39.7729 301.918 39.2682 300.664 38.7765 299.402L39.7082 299.039C40.1973 300.294 40.6993 301.542 41.2141 302.783L40.2904 303.166ZM395.224 299.403C394.733 300.664 394.228 301.918 393.71 303.166L392.787 302.783C393.301 301.542 393.803 300.294 394.293 299.039L395.224 299.403ZM43.5601 310.598C42.9894 309.373 42.4312 308.14 41.8859 306.901L42.8012 306.498C43.3437 307.731 43.8989 308.957 44.4667 310.176L43.5601 310.598ZM392.115 306.901C391.569 308.14 391.011 309.373 390.441 310.599L389.534 310.176C390.102 308.957 390.657 307.731 391.199 306.498L392.115 306.901ZM47.1435 317.884C46.5207 316.683 45.9103 315.474 45.3124 314.259L46.2097 313.818C46.8045 315.027 47.4117 316.229 48.0312 317.423L47.1435 317.884ZM388.688 314.259C388.09 315.475 387.48 316.683 386.857 317.884L385.969 317.423C386.589 316.229 387.196 315.027 387.791 313.818L388.688 314.259ZM51.0335 325.009C50.36 323.835 49.6985 322.654 49.0493 321.465L49.927 320.985C50.5728 322.168 51.2308 323.344 51.9009 324.511L51.0335 325.009ZM384.951 321.465C384.302 322.654 383.641 323.835 382.967 325.009L382.1 324.511C382.77 323.344 383.428 322.168 384.074 320.985L384.951 321.465ZM55.2227 331.962C54.5 330.818 53.7892 329.666 53.0903 328.506L53.9468 327.99C54.6421 329.144 55.3492 330.29 56.0681 331.428L55.2227 331.962ZM380.91 328.506C380.212 329.667 379.501 330.819 378.778 331.962L377.933 331.428C378.651 330.29 379.359 329.144 380.054 327.99L380.91 328.506ZM59.7029 338.732C58.9326 337.62 58.1738 336.499 57.4267 335.37L58.2606 334.819C59.0038 335.941 59.7587 337.056 60.5249 338.162L59.7029 338.732ZM376.574 335.371C375.827 336.499 375.068 337.62 374.298 338.732L373.476 338.162C374.242 337.056 374.997 335.942 375.74 334.819L376.574 335.371ZM64.4657 345.305C63.6492 344.227 62.8439 343.14 62.0499 342.044L62.8596 341.457C63.6495 342.548 64.4507 343.629 65.2629 344.702L64.4657 345.305ZM371.951 342.044C371.157 343.14 370.351 344.227 369.535 345.305L368.738 344.702C369.55 343.629 370.351 342.548 371.141 341.457L371.951 342.044ZM69.5023 351.672C68.641 350.629 67.7905 349.577 66.951 348.516L67.7352 347.895C68.5703 348.951 69.4164 349.998 70.2733 351.035L69.5023 351.672ZM367.05 348.516C366.21 349.577 365.36 350.629 364.498 351.672L363.727 351.035C364.584 349.998 365.43 348.951 366.265 347.895L367.05 348.516ZM74.8038 357.82C73.899 356.815 73.0047 355.799 72.121 354.775L72.8784 354.122C73.7574 355.141 74.6471 356.151 75.5472 357.152L74.8038 357.82ZM361.88 354.775C360.996 355.799 360.102 356.815 359.197 357.821L358.453 357.152C359.354 356.151 360.243 355.141 361.122 354.122L361.88 354.775ZM80.3598 363.74C79.4132 362.773 78.4767 361.796 77.5506 360.809L78.2797 360.125C79.201 361.107 80.1326 362.078 81.0743 363.04L80.3598 363.74ZM356.45 360.81C355.524 361.796 354.587 362.773 353.641 363.74L352.926 363.04C353.868 362.078 354.8 361.107 355.721 360.125L356.45 360.81ZM86.1603 369.419C85.1737 368.493 84.1969 367.557 83.2301 366.61L83.9297 365.896C84.8914 366.837 85.8632 367.769 86.8447 368.69L86.1603 369.419ZM350.771 366.61C349.804 367.557 348.827 368.493 347.84 369.419L347.156 368.69C348.137 367.769 349.109 366.837 350.071 365.896L350.771 366.61ZM92.1952 374.849C91.1704 373.965 90.155 373.071 89.1493 372.166L89.8181 371.423C90.8186 372.323 91.8287 373.212 92.8482 374.091L92.1952 374.849ZM344.851 372.166C343.846 373.071 342.83 373.965 341.805 374.849L341.152 374.092C342.172 373.212 343.182 372.323 344.182 371.423L344.851 372.166ZM98.454 380.019C97.3928 379.179 96.3408 378.329 95.298 377.467L95.9349 376.697C96.9722 377.553 98.0188 378.399 99.0744 379.235L98.454 380.019ZM338.703 377.468C337.66 378.329 336.608 379.179 335.547 380.019L334.926 379.235C335.982 378.4 337.028 377.553 338.066 376.697L338.703 377.468ZM104.926 384.92C103.83 384.126 102.743 383.321 101.665 382.504L102.268 381.707C103.341 382.519 104.422 383.32 105.512 384.11L104.926 384.92ZM332.336 382.504C331.258 383.321 330.171 384.126 329.075 384.92L328.488 384.11C329.578 383.32 330.66 382.519 331.732 381.707L332.336 382.504ZM111.599 389.543C110.47 388.796 109.35 388.037 108.238 387.267L108.808 386.445C109.914 387.211 111.028 387.966 112.151 388.709L111.599 389.543ZM325.763 387.267C324.651 388.037 323.53 388.796 322.401 389.543L321.849 388.709C322.972 387.966 324.087 387.211 325.193 386.445L325.763 387.267ZM118.463 393.88C117.303 393.181 116.151 392.47 115.007 391.747L115.542 390.902C116.679 391.621 117.825 392.328 118.979 393.023L118.463 393.88ZM318.993 391.747C317.849 392.47 316.697 393.181 315.537 393.88L315.021 393.023C316.175 392.328 317.321 391.621 318.459 390.902L318.993 391.747ZM125.505 397.921C124.316 397.271 123.135 396.61 121.961 395.936L122.459 395.069C123.626 395.739 124.801 396.397 125.984 397.043L125.505 397.921ZM312.04 395.936C310.866 396.61 309.685 397.271 308.495 397.921L308.016 397.043C309.199 396.397 310.375 395.739 311.542 395.069L312.04 395.936ZM132.711 401.657C131.495 401.06 130.287 400.449 129.086 399.826L129.547 398.939C130.741 399.558 131.943 400.165 133.152 400.76L132.711 401.657ZM304.914 399.826C303.714 400.449 302.505 401.06 301.29 401.658L300.848 400.76C302.058 400.165 303.259 399.558 304.454 398.939L304.914 399.826ZM140.069 405.084C138.83 404.539 137.597 403.98 136.371 403.41L136.793 402.503C138.013 403.071 139.239 403.626 140.472 404.169L140.069 405.084ZM297.629 403.41C296.404 403.98 295.171 404.539 293.931 405.084L293.529 404.169C294.762 403.626 295.988 403.071 297.207 402.503L297.629 403.41ZM147.567 408.193C146.306 407.702 145.051 407.197 143.803 406.679L144.187 405.756C145.428 406.271 146.676 406.773 147.931 407.262L147.567 408.193ZM290.197 406.679C288.949 407.197 287.694 407.702 286.433 408.193L286.07 407.262C287.325 406.773 288.573 406.271 289.814 405.756L290.197 406.679ZM155.192 410.98C153.912 410.543 152.638 410.092 151.37 409.629L151.713 408.69C152.974 409.151 154.242 409.599 155.515 410.033L155.192 410.98ZM282.631 409.629C281.363 410.092 280.089 410.543 278.809 410.98L278.486 410.033C279.759 409.599 281.026 409.151 282.288 408.69L282.631 409.629ZM162.93 413.438C161.631 413.055 160.338 412.66 159.051 412.251L159.354 411.298C160.634 411.705 161.92 412.098 163.212 412.478L162.93 413.438ZM274.95 412.251C273.663 412.66 272.37 413.055 271.071 413.438L270.789 412.478C272.08 412.098 273.367 411.705 274.647 411.298L274.95 412.251ZM170.767 415.563C169.452 415.236 168.141 414.896 166.837 414.542L167.098 413.577C168.396 413.929 169.699 414.267 171.008 414.592L170.767 415.563ZM267.164 414.542C265.859 414.896 264.549 415.236 263.234 415.563L262.993 414.592C264.301 414.267 265.604 413.929 266.902 413.577L267.164 414.542ZM178.69 417.351C177.36 417.08 176.034 416.796 174.714 416.498L174.934 415.522C176.247 415.819 177.566 416.102 178.889 416.371L178.69 417.351ZM259.287 416.498C257.966 416.796 256.641 417.08 255.31 417.351L255.111 416.371C256.435 416.102 257.753 415.819 259.067 415.522L259.287 416.498ZM186.675 418.798C185.335 418.585 183.999 418.357 182.668 418.116L182.847 417.132C184.171 417.372 185.499 417.598 186.833 417.811L186.675 418.798ZM251.332 418.116C250.001 418.357 248.666 418.585 247.325 418.798L247.168 417.811C248.501 417.598 249.83 417.372 251.154 417.132L251.332 418.116ZM194.714 419.905C193.367 419.748 192.024 419.578 190.686 419.394L190.823 418.403C192.154 418.586 193.489 418.756 194.829 418.911L194.714 419.905ZM243.314 419.394C241.976 419.578 240.634 419.748 239.287 419.905L239.172 418.911C240.511 418.756 241.847 418.586 243.178 418.403L243.314 419.394ZM202.793 420.67C201.443 420.571 200.096 420.457 198.754 420.33L198.848 419.335C200.184 419.461 201.523 419.574 202.866 419.672L202.793 420.67ZM235.247 420.33C233.904 420.457 232.558 420.571 231.208 420.67L231.135 419.672C232.478 419.574 233.817 419.461 235.152 419.335L235.247 420.33ZM210.899 421.094C209.548 421.052 208.199 420.995 206.855 420.925L206.907 419.926C208.245 419.996 209.586 420.052 210.931 420.095L210.899 421.094ZM227.146 420.925C225.801 420.995 224.453 421.052 223.102 421.094L223.07 420.095C224.415 420.052 225.756 419.996 227.094 419.926L227.146 420.925ZM217 421.19C216.32 421.19 215.64 421.186 214.962 421.179L214.972 420.179C215.647 420.186 216.323 420.19 217 420.19C217.317 420.19 217.634 420.189 217.95 420.187C218.31 420.185 218.67 420.183 219.029 420.179L219.039 421.179C218.36 421.186 217.681 421.19 217 421.19ZM217.001 135.623C216.311 135.623 215.622 135.63 214.936 135.645L214.957 136.645C215.637 136.63 216.318 136.623 217.001 136.623C217.684 136.623 218.365 136.63 219.044 136.645L219.066 135.645C218.379 135.63 217.691 135.623 217.001 135.623ZM227.276 136.176C225.918 136.029 224.551 135.911 223.177 135.822L223.112 136.82C224.472 136.908 225.824 137.025 227.168 137.17L227.276 136.176ZM210.825 135.822C209.45 135.911 208.084 136.029 206.726 136.176L206.833 137.17C208.177 137.025 209.529 136.908 210.889 136.82L210.825 135.822ZM235.413 137.419C234.07 137.153 232.718 136.916 231.356 136.708L231.205 137.697C232.552 137.902 233.891 138.137 235.219 138.4L235.413 137.419ZM202.646 136.708C201.283 136.916 199.931 137.153 198.588 137.419L198.782 138.4C200.111 138.137 201.449 137.903 202.797 137.697L202.646 136.708ZM243.412 139.37C242.097 138.987 240.771 138.633 239.434 138.306L239.197 139.278C240.52 139.601 241.832 139.952 243.132 140.33L243.412 139.37ZM194.567 138.306C193.23 138.633 191.904 138.987 190.59 139.37L190.869 140.33C192.169 139.952 193.481 139.601 194.804 139.278L194.567 138.306ZM251.206 142.015C249.93 141.518 248.641 141.049 247.338 140.607L247.017 141.554C248.305 141.991 249.581 142.456 250.844 142.947L251.206 142.015ZM186.663 140.607C185.361 141.049 184.071 141.518 182.795 142.015L183.158 142.947C184.42 142.456 185.696 141.991 186.984 141.554L186.663 140.607ZM258.738 145.334C257.51 144.727 256.267 144.146 255.009 143.592L254.606 144.507C255.85 145.055 257.08 145.63 258.295 146.231L258.738 145.334ZM178.992 143.592C177.735 144.146 176.491 144.727 175.263 145.334L175.706 146.231C176.921 145.63 178.151 145.055 179.396 144.507L178.992 143.592ZM265.951 149.299C264.78 148.587 263.592 147.9 262.388 147.238L261.906 148.114C263.097 148.769 264.273 149.449 265.431 150.154L265.951 149.299ZM171.613 147.238C170.409 147.9 169.221 148.587 168.05 149.299L168.57 150.154C169.729 149.449 170.904 148.769 172.095 148.114L171.613 147.238ZM164.58 151.515C163.439 152.279 162.315 153.067 161.21 153.879L161.802 154.685C162.895 153.882 164.007 153.102 165.136 152.346L164.58 151.515ZM272.792 153.879C271.686 153.067 270.563 152.279 269.421 151.515L268.865 152.346C269.994 153.102 271.106 153.882 272.2 154.685L272.792 153.879ZM157.945 156.387C156.875 157.247 155.824 158.13 154.793 159.035L155.453 159.787C156.473 158.891 157.513 158.018 158.572 157.167L157.945 156.387ZM279.208 159.035C278.177 158.13 277.126 157.247 276.056 156.387L275.43 157.167C276.488 158.018 277.528 158.891 278.549 159.787L279.208 159.035ZM151.759 161.817C150.768 162.766 149.797 163.736 148.848 164.728L149.57 165.419C150.509 164.438 151.47 163.478 152.451 162.539L151.759 161.817ZM285.153 164.728C284.204 163.736 283.234 162.766 282.242 161.817L281.551 162.539C282.532 163.478 283.492 164.439 284.431 165.419L285.153 164.728ZM146.066 167.762C145.161 168.793 144.278 169.844 143.418 170.914L144.198 171.54C145.049 170.482 145.922 169.442 146.818 168.422L146.066 167.762ZM290.583 170.914C289.723 169.844 288.84 168.793 287.935 167.762L287.184 168.422C288.079 169.442 288.952 170.482 289.803 171.54L290.583 170.914ZM140.91 174.178C140.098 175.284 139.31 176.407 138.546 177.549L139.377 178.105C140.133 176.976 140.913 175.864 141.716 174.77L140.91 174.178ZM295.456 177.549C294.691 176.407 293.903 175.284 293.091 174.178L292.285 174.77C293.089 175.864 293.869 176.976 294.625 178.105L295.456 177.549ZM299.732 184.582C299.07 183.378 298.383 182.19 297.671 181.019L296.816 181.539C297.521 182.697 298.201 183.873 298.856 185.064L299.732 184.582ZM136.33 181.019C135.618 182.19 134.931 183.378 134.269 184.582L135.145 185.064C135.8 183.873 136.48 182.697 137.185 181.539L136.33 181.019ZM303.378 191.961C302.824 190.703 302.243 189.46 301.636 188.232L300.74 188.675C301.34 189.89 301.915 191.12 302.463 192.364L303.378 191.961ZM132.365 188.232C131.758 189.46 131.177 190.703 130.623 191.961L131.538 192.364C132.087 191.12 132.661 189.89 133.262 188.675L132.365 188.232ZM306.363 199.632C305.921 198.329 305.452 197.04 304.955 195.764L304.023 196.126C304.514 197.389 304.979 198.665 305.416 199.953L306.363 199.632ZM129.046 195.764C128.55 197.04 128.08 198.329 127.638 199.632L128.585 199.953C129.022 198.665 129.487 197.389 129.978 196.126L129.046 195.764ZM308.664 207.536C308.337 206.199 307.983 204.873 307.6 203.558L306.64 203.838C307.018 205.138 307.369 206.45 307.692 207.773L308.664 207.536ZM126.401 203.558C126.019 204.873 125.664 206.199 125.338 207.536L126.309 207.773C126.632 206.45 126.983 205.138 127.361 203.838L126.401 203.558ZM310.262 215.614C310.054 214.252 309.817 212.9 309.551 211.557L308.57 211.751C308.833 213.079 309.068 214.418 309.273 215.765L310.262 215.614ZM124.45 211.557C124.184 212.9 123.947 214.252 123.739 215.614L124.728 215.765C124.934 214.418 125.168 213.079 125.431 211.751L124.45 211.557ZM311.148 223.793C311.059 222.419 310.941 221.052 310.794 219.694L309.8 219.802C309.945 221.146 310.062 222.498 310.15 223.858L311.148 223.793ZM123.207 219.694C123.06 221.052 122.942 222.419 122.853 223.794L123.851 223.858C123.939 222.498 124.056 221.146 124.202 219.802L123.207 219.694ZM311.347 229.969C311.347 229.279 311.34 228.591 311.325 227.904L310.325 227.926C310.34 228.605 310.347 229.286 310.347 229.969C310.347 230.652 310.34 231.333 310.325 232.013L311.325 232.034C311.34 231.348 311.347 230.659 311.347 229.969ZM122.676 227.905C122.662 228.591 122.654 229.279 122.654 229.969C122.654 230.659 122.662 231.348 122.676 232.034L123.676 232.013C123.662 231.333 123.654 230.652 123.654 229.969C123.654 229.287 123.662 228.605 123.676 227.926L122.676 227.905ZM310.794 240.244C310.941 238.886 311.059 237.52 311.148 236.145L310.15 236.081C310.062 237.441 309.945 238.793 309.8 240.137L310.794 240.244ZM122.853 236.145C122.942 237.52 123.06 238.887 123.207 240.245L124.202 240.137C124.056 238.793 123.939 237.441 123.851 236.081L122.853 236.145ZM309.551 248.382C309.817 247.039 310.054 245.687 310.262 244.324L309.273 244.173C309.068 245.521 308.833 246.859 308.57 248.188L309.551 248.382ZM123.739 244.324C123.947 245.687 124.185 247.039 124.45 248.382L125.431 248.188C125.168 246.859 124.934 245.521 124.728 244.174L123.739 244.324ZM307.6 256.38C307.983 255.066 308.337 253.74 308.664 252.403L307.692 252.166C307.369 253.489 307.019 254.801 306.64 256.101L307.6 256.38ZM125.338 252.403C125.664 253.74 126.019 255.066 126.401 256.38L127.361 256.101C126.983 254.801 126.632 253.489 126.309 252.166L125.338 252.403ZM304.955 264.175C305.452 262.899 305.921 261.609 306.363 260.307L305.416 259.986C304.979 261.274 304.514 262.55 304.023 263.812L304.955 264.175ZM127.638 260.307C128.08 261.609 128.55 262.899 129.046 264.175L129.978 263.812C129.487 262.55 129.022 261.274 128.585 259.986L127.638 260.307ZM301.636 271.707C302.243 270.479 302.824 269.235 303.378 267.978L302.463 267.574C301.915 268.819 301.34 270.049 300.74 271.264L301.636 271.707ZM130.623 267.978C131.177 269.235 131.758 270.479 132.365 271.707L133.262 271.264C132.661 270.049 132.087 268.819 131.538 267.574L130.623 267.978ZM297.671 278.92C298.383 277.749 299.07 276.561 299.732 275.357L298.856 274.875C298.201 276.066 297.521 277.241 296.816 278.4L297.671 278.92ZM134.269 275.357C134.931 276.561 135.618 277.749 136.33 278.92L137.185 278.4C136.48 277.241 135.8 276.066 135.145 274.875L134.269 275.357ZM138.546 282.39C139.31 283.531 140.098 284.655 140.91 285.76L141.716 285.169C140.913 284.075 140.133 282.963 139.377 281.834L138.546 282.39ZM293.091 285.76C293.903 284.655 294.691 283.531 295.456 282.39L294.625 281.834C293.869 282.963 293.089 284.075 292.285 285.169L293.091 285.76ZM143.418 289.025C144.278 290.095 145.161 291.146 146.066 292.177L146.818 291.517C145.922 290.497 145.049 289.457 144.198 288.398L143.418 289.025ZM287.935 292.177C288.84 291.146 289.723 290.095 290.583 289.025L289.803 288.398C288.952 289.457 288.079 290.497 287.184 291.517L287.935 292.177ZM148.848 295.211C149.797 296.202 150.768 297.173 151.759 298.122L152.45 297.4C151.47 296.461 150.509 295.5 149.57 294.52L148.848 295.211ZM282.242 298.122C283.234 297.173 284.204 296.202 285.153 295.211L284.431 294.52C283.492 295.5 282.532 296.461 281.551 297.4L282.242 298.122ZM154.793 300.904C155.824 301.809 156.875 302.692 157.945 303.552L158.572 302.772C157.513 301.921 156.473 301.048 155.453 300.152L154.793 300.904ZM276.056 303.552C277.126 302.692 278.177 301.809 279.208 300.904L278.548 300.152C277.528 301.048 276.488 301.921 275.43 302.772L276.056 303.552ZM161.21 306.06C162.315 306.872 163.439 307.66 164.58 308.424L165.136 307.593C164.007 306.837 162.895 306.057 161.802 305.254L161.21 306.06ZM269.421 308.424C270.563 307.66 271.686 306.872 272.792 306.06L272.2 305.254C271.106 306.057 269.994 306.837 268.865 307.593L269.421 308.424ZM168.05 310.64C169.222 311.352 170.409 312.039 171.613 312.701L172.095 311.825C170.904 311.17 169.729 310.49 168.57 309.785L168.05 310.64ZM262.388 312.701C263.592 312.039 264.78 311.352 265.951 310.64L265.431 309.785C264.273 310.49 263.097 311.17 261.906 311.825L262.388 312.701ZM175.263 314.605C176.491 315.212 177.735 315.793 178.992 316.347L179.396 315.432C178.151 314.883 176.921 314.309 175.706 313.708L175.263 314.605ZM255.009 316.347C256.267 315.793 257.51 315.212 258.738 314.605L258.295 313.708C257.08 314.309 255.85 314.883 254.606 315.432L255.009 316.347ZM182.795 317.924C184.071 318.42 185.361 318.89 186.663 319.332L186.984 318.385C185.696 317.948 184.42 317.483 183.158 316.992L182.795 317.924ZM247.338 319.332C248.641 318.89 249.93 318.42 251.206 317.924L250.844 316.992C249.581 317.483 248.305 317.948 247.017 318.385L247.338 319.332ZM239.434 321.632C240.771 321.306 242.097 320.952 243.412 320.569L243.132 319.609C241.832 319.987 240.52 320.338 239.197 320.661L239.434 321.632ZM190.59 320.569C191.904 320.952 193.23 321.306 194.567 321.632L194.804 320.661C193.481 320.338 192.169 319.987 190.869 319.609L190.59 320.569ZM198.588 322.52C199.931 322.786 201.283 323.023 202.646 323.231L202.797 322.242C201.449 322.036 200.111 321.802 198.783 321.539L198.588 322.52ZM231.356 323.231C232.718 323.023 234.071 322.786 235.413 322.52L235.219 321.539C233.891 321.802 232.553 322.036 231.205 322.242L231.356 323.231ZM223.177 324.117C224.551 324.028 225.918 323.91 227.276 323.763L227.168 322.768C225.824 322.914 224.472 323.031 223.112 323.119L223.177 324.117ZM206.726 323.763C208.084 323.91 209.45 324.028 210.825 324.117L210.889 323.119C209.529 323.031 208.177 322.914 206.833 322.768L206.726 323.763ZM214.936 324.294C215.622 324.308 216.311 324.316 217.001 324.316C217.691 324.316 218.379 324.308 219.066 324.294L219.044 323.294C218.365 323.308 217.684 323.316 217.001 323.316C216.318 323.316 215.637 323.308 214.957 323.294L214.936 324.294Z" fill="url(#paint0_radial_10998_7924)"/>
<g filter="url(#filter0_d_10998_7924)">
<rect x="171.312" y="184.312" width="91.375" height="91.375" rx="17.6875" fill="#F2652D"/>
<rect x="171.312" y="184.312" width="91.375" height="91.375" rx="17.6875" stroke="url(#paint1_linear_10998_7924)" stroke-width="3.375"/>
<path d="M217 218.047C227.562 218.047 236.125 226.61 236.125 237.172C236.125 247.735 227.562 256.297 217 256.297C206.438 256.297 197.875 247.735 197.875 237.172C197.875 226.61 206.438 218.047 217 218.047ZM217 222.829C209.078 222.829 202.656 229.251 202.656 237.172C202.656 245.094 209.078 251.516 217 251.516C224.922 251.516 231.344 245.094 231.344 237.172C231.344 229.251 224.922 222.829 217 222.829ZM217 226.415L220.162 232.821L227.231 233.848L222.116 238.835L223.323 245.876L217 242.551L210.677 245.876L211.884 238.835L206.769 233.848L213.838 232.821L217 226.415ZM231.344 206.094V213.266L228.084 215.986C225.44 214.599 222.504 213.694 219.393 213.384L219.391 206.092L231.344 206.094ZM214.609 206.092L214.609 213.384C211.498 213.693 208.562 214.599 205.918 215.984L202.656 213.266V206.094L214.609 206.092Z" fill="white"/>
</g>
<rect x="171.826" y="26.1696" width="89.8135" height="94.6607" rx="20.7589" fill="#F8F8F8"/>
<rect x="171.826" y="26.1696" width="89.8135" height="94.6607" rx="20.7589" stroke="url(#paint2_linear_10998_7924)" stroke-width="1.66071"/>
<path d="M239.884 63.2109V96.6297C239.884 98.0621 238.74 99.2193 237.329 99.2193H196.143C194.732 99.2193 193.588 98.0773 193.588 96.6683V50.3297C193.588 48.9499 194.742 47.7788 196.166 47.7788H224.444L239.884 63.2109ZM234.74 65.783H221.88V52.9229H198.732V94.0752H234.74V65.783ZM206.448 60.6389H214.164V65.783H206.448V60.6389ZM206.448 70.927H227.024V76.0711H206.448V70.927ZM206.448 81.2151H227.024V86.3591H206.448V81.2151Z" fill="#A8A8A8"/>
<g filter="url(#filter1_di_10998_7924)">
<rect x="218.547" y="74.1436" width="31.5926" height="16.8494" rx="2.41764" fill="#F2652D" shape-rendering="crispEdges"/>
<path d="M226.508 77.3488C227.38 77.3488 228.139 77.5257 228.695 77.9933C229.263 78.4609 229.605 79.0801 229.605 79.9647C229.605 80.8493 229.263 81.4811 228.695 81.9487C228.139 82.4163 227.38 82.6311 226.508 82.6311H225.359V86.0684H223.703V77.3488H226.508ZM226.306 81.3421C226.812 81.3421 227.153 81.2157 227.431 81.0135C227.709 80.8114 227.911 80.4575 227.911 79.9647C227.911 79.4845 227.671 79.1306 227.393 78.9284C227.115 78.7262 226.774 78.6378 226.268 78.6378H225.346V81.3421H226.306ZM233.506 77.3488C235.022 77.3488 236.147 77.8417 236.817 78.4482C237.499 79.0422 238.207 80.0405 238.207 81.6959C238.207 83.364 237.499 84.3876 236.817 84.9816C236.147 85.5755 235.022 86.0684 233.506 86.0684H230.713V77.3488H233.506ZM233.569 84.6783C234.517 84.6783 235.212 84.3624 235.641 83.958C236.058 83.5536 236.513 82.8838 236.513 81.7086C236.513 80.546 236.058 79.8383 235.641 79.4339C235.212 79.0422 234.517 78.7262 233.569 78.7262H232.356V84.6783H233.569ZM239.487 77.3488H244.631V78.7262H241.13V81.1778H244.428V82.53H241.13V86.0684H239.487V77.3488Z" fill="white"/>
</g>
<g clip-path="url(#clip1_10998_7924)">
<rect x="56.9746" y="140.518" width="57.4684" height="57.4684" rx="9.57807" transform="rotate(-15.7232 56.9746 140.518)" fill="#F8F8F8"/>
<g clip-path="url(#clip2_10998_7924)">
<path d="M104.518 150.35L110.139 170.316C110.38 171.171 109.891 172.055 109.048 172.292L84.442 179.22C83.5993 179.457 82.7235 178.967 82.4865 178.125L74.6927 150.441C74.4606 149.617 74.9532 148.723 75.8037 148.483L92.6981 143.727L104.518 150.35ZM101.878 152.752L94.1946 154.915L92.0316 147.232L78.2021 151.125L85.1236 175.711L106.636 169.655L101.878 152.752ZM84.1097 154.437L88.7195 153.139L89.5847 156.213L84.9749 157.51L84.1097 154.437ZM85.8401 160.584L98.133 157.123L98.9982 160.196L86.7053 163.657L85.8401 160.584ZM87.5704 166.73L99.8634 163.269L100.729 166.342L88.4356 169.803L87.5704 166.73Z" fill="#A8A8A8"/>
</g>
</g>
<rect x="55.9601" y="139.949" width="59.1132" height="59.1132" rx="10.4005" transform="rotate(-15.7232 55.9601 139.949)" stroke="url(#paint3_linear_10998_7924)" stroke-width="1.64483"/>
<g filter="url(#filter2_di_10998_7924)">
<rect x="89.4883" y="158.809" width="24.6935" height="13.1698" rx="1.88968" transform="rotate(-15.7232 89.4883 158.809)" fill="#F2652D" shape-rendering="crispEdges"/>
<path d="M96.0827 159.31C96.7387 159.126 97.3467 159.098 97.8641 159.332C98.3909 159.564 98.7788 159.957 98.9662 160.623C99.1535 161.288 99.0307 161.836 98.7019 162.308C98.3826 162.778 97.8576 163.1 97.2016 163.285L96.3363 163.528L97.0644 166.114L95.8189 166.465L93.972 159.905L96.0827 159.31ZM96.7764 162.358C97.1567 162.251 97.3867 162.083 97.553 161.872C97.7193 161.661 97.7965 161.352 97.6921 160.981C97.5904 160.62 97.3348 160.405 97.0828 160.312C96.8308 160.218 96.5554 160.224 96.1751 160.331L95.481 160.526L96.0538 162.561L96.7764 162.358ZM101.347 157.828C102.488 157.507 103.439 157.64 104.071 157.954C104.71 158.257 105.454 158.858 105.805 160.103C106.158 161.358 105.843 162.278 105.455 162.87C105.077 163.458 104.335 164.067 103.194 164.389L101.093 164.98L99.246 158.42L101.347 157.828ZM102.947 163.329C103.66 163.129 104.116 162.744 104.354 162.349C104.582 161.956 104.783 161.356 104.534 160.471C104.287 159.597 103.795 159.161 103.396 158.945C102.989 158.741 102.4 158.651 101.687 158.851L100.774 159.108L102.035 163.586L102.947 163.329ZM105.848 156.561L109.717 155.472L110.009 156.508L107.375 157.25L107.895 159.094L110.376 158.396L110.663 159.413L108.181 160.112L108.931 162.774L107.695 163.122L105.848 156.561Z" fill="white"/>
</g>
<g clip-path="url(#clip3_10998_7924)">
<rect x="325.449" y="126.244" width="58.623" height="58.623" rx="9.77051" transform="rotate(15 325.449 126.244)" fill="#F8F8F8"/>
<g clip-path="url(#clip4_10998_7924)">
<path d="M363.997 159.333L357.836 182.325C357.572 183.31 356.572 183.895 355.601 183.635L327.265 176.043C326.295 175.783 325.718 174.786 325.978 173.817L334.52 141.936C334.774 140.986 335.784 140.393 336.764 140.656L356.219 145.869L363.997 159.333ZM359.984 160.154L351.136 157.783L353.507 148.935L337.581 144.668L329.995 172.981L354.768 179.619L359.984 160.154ZM341.467 151.399L346.776 152.822L345.828 156.361L340.519 154.938L341.467 151.399ZM339.571 158.477L353.727 162.271L352.779 165.81L338.622 162.016L339.571 158.477ZM337.674 165.556L351.83 169.349L350.882 172.888L336.726 169.095L337.674 165.556Z" fill="#A8A8A8"/>
</g>
</g>
<rect x="324.856" y="125.217" width="60.3009" height="60.3009" rx="10.6094" transform="rotate(15 324.856 125.217)" stroke="url(#paint4_linear_10998_7924)" stroke-width="1.67788"/>
<g filter="url(#filter3_di_10998_7924)">
<rect x="346.529" y="160.327" width="25.1896" height="13.4344" rx="1.92765" transform="rotate(15 346.529 160.327)" fill="#F2652D" shape-rendering="crispEdges"/>
<path d="M350.047 164.649C351.215 164.962 351.98 165.574 352.371 166.179C352.774 166.777 353.113 167.692 352.771 168.967C352.427 170.252 351.67 170.894 351.022 171.211C350.384 171.53 349.416 171.678 348.248 171.365L346.097 170.788L347.897 164.073L350.047 164.649ZM348.584 170.307C349.314 170.503 349.914 170.403 350.328 170.18C350.733 169.955 351.222 169.533 351.464 168.628C351.704 167.732 351.5 167.093 351.262 166.696C351.012 166.305 350.542 165.919 349.812 165.723L348.878 165.473L347.649 170.057L348.584 170.307ZM355.977 173.561C354.04 173.042 352.813 171.315 353.392 169.155C353.971 166.994 355.897 166.112 357.834 166.631C359.78 167.153 360.998 168.877 360.419 171.037C359.84 173.198 357.923 174.082 355.977 173.561ZM356.274 172.451C357.52 172.785 358.726 172.138 359.117 170.678C359.508 169.218 358.785 168.065 357.539 167.731C356.293 167.397 355.09 168.034 354.699 169.494C354.307 170.954 355.038 172.12 356.274 172.451ZM366.297 175.304C365.808 175.611 364.932 175.96 363.608 175.606C361.642 175.079 360.481 173.339 361.052 171.207C361.623 169.076 363.518 168.154 365.465 168.676C366.779 169.028 367.389 169.786 367.589 170.132L366.865 171.043C366.738 170.738 366.117 170.019 365.163 169.763C363.995 169.45 362.787 169.951 362.362 171.537C361.973 172.987 362.625 174.174 363.968 174.534C364.864 174.774 365.591 174.551 366.105 174.23L366.297 175.304Z" fill="white"/>
</g>
<g clip-path="url(#clip5_10998_7924)">
<mask id="mask0_10998_7924" style="mask-type:luminance" maskUnits="userSpaceOnUse" x="140" y="284" width="11" height="11">
<path d="M151 284H140V295H151V284Z" fill="white"/>
</mask>
<g mask="url(#mask0_10998_7924)">
<path d="M145.514 295C145.34 295 145.194 294.874 145.152 294.706C145.018 294.17 144.762 293.599 144.383 292.995C143.934 292.269 143.294 291.596 142.464 290.975C141.741 290.429 141.018 290.057 140.296 289.858C140.125 289.811 140 289.659 140 289.482C140 289.308 140.12 289.158 140.287 289.11C140.996 288.908 141.678 288.579 142.335 288.125C143.089 287.6 143.719 286.97 144.225 286.234C144.673 285.579 144.98 284.932 145.147 284.291C145.191 284.123 145.339 284 145.512 284C145.687 284 145.836 284.126 145.879 284.296C145.975 284.68 146.126 285.073 146.331 285.475C146.589 285.972 146.918 286.449 147.319 286.908C147.73 287.356 148.188 287.762 148.694 288.125C149.355 288.594 150.028 288.923 150.711 289.113C150.879 289.16 151 289.309 151 289.483C151 289.659 150.875 289.81 150.705 289.857C150.271 289.975 149.826 290.167 149.367 290.431C148.813 290.756 148.298 291.142 147.82 291.591C147.343 292.03 146.951 292.493 146.646 292.98C146.266 293.586 146.01 294.161 145.876 294.705C145.835 294.874 145.688 295 145.514 295Z" fill="#E4E4E4"/>
</g>
</g>
<path d="M391.025 177C390.71 177 390.443 176.772 390.367 176.466C390.124 175.49 389.657 174.453 388.969 173.354C388.153 172.035 386.99 170.811 385.479 169.682C384.165 168.689 382.852 168.012 381.538 167.651C381.227 167.566 381 167.29 381 166.967C381 166.651 381.218 166.378 381.522 166.291C382.81 165.923 384.051 165.326 385.245 164.5C386.616 163.545 387.762 162.399 388.682 161.062C389.496 159.872 390.055 158.694 390.359 157.529C390.438 157.224 390.707 157 391.022 157C391.341 157 391.611 157.229 391.689 157.538C391.864 158.237 392.138 158.951 392.51 159.682C392.979 160.585 393.578 161.453 394.307 162.286C395.054 163.102 395.887 163.84 396.807 164.5C398.01 165.352 399.232 165.951 400.474 166.296C400.779 166.381 401 166.652 401 166.969C401 167.29 400.773 167.563 400.463 167.648C399.675 167.864 398.865 168.212 398.031 168.693C397.024 169.283 396.087 169.986 395.219 170.802C394.351 171.601 393.639 172.443 393.083 173.328C392.393 174.429 391.927 175.475 391.684 176.464C391.608 176.771 391.341 177 391.025 177Z" fill="#E4E4E4"/>
<path d="M296.036 68C295.594 68 295.221 67.6802 295.114 67.2518C294.773 65.8864 294.12 64.4343 293.156 62.8959C292.014 61.0486 290.385 59.3351 288.271 57.7552C286.432 56.3652 284.593 55.4172 282.753 54.9115C282.318 54.7918 282 54.4056 282 53.9538C282 53.5109 282.306 53.1291 282.731 53.0075C284.535 52.4927 286.272 51.6568 287.943 50.5C289.863 49.1632 291.467 47.559 292.755 45.6875C293.895 44.0203 294.677 42.3714 295.102 40.7409C295.213 40.3137 295.589 40 296.031 40C296.477 40 296.856 40.3207 296.965 40.7537C297.21 41.7312 297.593 42.7317 298.115 43.7552C298.771 45.0191 299.609 46.2344 300.63 47.401C301.675 48.5434 302.842 49.5764 304.13 50.5C305.814 51.6932 307.525 52.5316 309.264 53.015C309.691 53.1335 310 53.5134 310 53.9562C310 54.4057 309.681 54.7888 309.248 54.9076C308.146 55.2099 307.011 55.6974 305.844 56.3698C304.434 57.1962 303.122 58.1805 301.906 59.3229C300.691 60.441 299.694 61.6198 298.917 62.8593C297.951 64.401 297.297 65.8643 296.957 67.2495C296.852 67.6791 296.478 68 296.036 68Z" fill="#E4E4E4"/>
<path d="M86.5216 91C86.2535 91 86.0269 90.8059 85.9619 90.5458C85.755 89.7168 85.3588 88.8351 84.7734 87.9011C84.0799 86.7795 83.0911 85.7392 81.8073 84.78C80.6907 83.936 79.574 83.3605 78.4574 83.0534C78.193 82.9808 78 82.7462 78 82.472C78 82.2031 78.1855 81.9713 78.4441 81.8974C79.5389 81.5848 80.5935 81.0774 81.6081 80.375C82.7739 79.5634 83.7478 78.5894 84.5299 77.4531C85.2218 76.4409 85.6968 75.4398 85.9548 74.4498C86.0224 74.1905 86.2507 74 86.5188 74C86.7898 74 87.0197 74.1947 87.0857 74.4576C87.2346 75.0511 87.4673 75.6585 87.7838 76.2799C88.1823 77.0473 88.6914 77.7852 89.3112 78.4935C89.9457 79.1871 90.6541 79.8142 91.4362 80.375C92.4582 81.0995 93.4972 81.6084 94.5532 81.9019C94.8123 81.9739 95 82.2046 95 82.4734C95 82.7463 94.8066 82.9789 94.5435 83.0511C93.8741 83.2346 93.1851 83.5305 92.4766 83.9388C91.6207 84.4405 90.8238 85.0382 90.0859 85.7318C89.3481 86.4106 88.7431 87.1263 88.2708 87.8789C87.6843 88.8149 87.2877 89.7033 87.0811 90.5443C87.0171 90.8052 86.7901 91 86.5216 91Z" fill="#E4E4E4"/>
</g>
<defs>
<filter id="filter0_d_10998_7924" x="110.331" y="133.331" width="213.338" height="213.338" filterUnits="userSpaceOnUse" color-interpolation-filters="sRGB">
<feFlood flood-opacity="0" result="BackgroundImageFix"/>
<feColorMatrix in="SourceAlpha" type="matrix" values="0 0 0 0 0 0 0 0 0 0 0 0 0 0 0 0 0 0 127 0" result="hardAlpha"/>
<feOffset dy="10"/>
<feGaussianBlur stdDeviation="29.6471"/>
<feComposite in2="hardAlpha" operator="out"/>
<feColorMatrix type="matrix" values="0 0 0 0 0 0 0 0 0 0 0 0 0 0 0 0 0 0 0.1 0"/>
<feBlend mode="normal" in2="BackgroundImageFix" result="effect1_dropShadow_10998_7924"/>
<feBlend mode="normal" in="SourceGraphic" in2="effect1_dropShadow_10998_7924" result="shape"/>
</filter>
<filter id="filter1_di_10998_7924" x="217.338" y="72.9347" width="36.4271" height="21.6849" filterUnits="userSpaceOnUse" color-interpolation-filters="sRGB">
<feFlood flood-opacity="0" result="BackgroundImageFix"/>
<feColorMatrix in="SourceAlpha" type="matrix" values="0 0 0 0 0 0 0 0 0 0 0 0 0 0 0 0 0 0 127 0" result="hardAlpha"/>
<feOffset dx="1.20882" dy="1.20882"/>
<feGaussianBlur stdDeviation="1.20882"/>
<feComposite in2="hardAlpha" operator="out"/>
<feColorMatrix type="matrix" values="0 0 0 0 0 0 0 0 0 0 0 0 0 0 0 0 0 0 0.08 0"/>
<feBlend mode="normal" in2="BackgroundImageFix" result="effect1_dropShadow_10998_7924"/>
<feBlend mode="normal" in="SourceGraphic" in2="effect1_dropShadow_10998_7924" result="shape"/>
<feColorMatrix in="SourceAlpha" type="matrix" values="0 0 0 0 0 0 0 0 0 0 0 0 0 0 0 0 0 0 127 0" result="hardAlpha"/>
<feOffset dx="-1.20882" dy="-1.20882"/>
<feGaussianBlur stdDeviation="0.60441"/>
<feComposite in2="hardAlpha" operator="arithmetic" k2="-1" k3="1"/>
<feColorMatrix type="matrix" values="0 0 0 0 0.775 0 0 0 0 0.30582 0 0 0 0 0.119479 0 0 0 1 0"/>
<feBlend mode="normal" in2="shape" result="effect2_innerShadow_10998_7924"/>
</filter>
<filter id="filter2_di_10998_7924" x="88.5434" y="151.172" width="31.1173" height="23.1485" filterUnits="userSpaceOnUse" color-interpolation-filters="sRGB">
<feFlood flood-opacity="0" result="BackgroundImageFix"/>
<feColorMatrix in="SourceAlpha" type="matrix" values="0 0 0 0 0 0 0 0 0 0 0 0 0 0 0 0 0 0 127 0" result="hardAlpha"/>
<feOffset dx="0.94484" dy="0.94484"/>
<feGaussianBlur stdDeviation="0.94484"/>
<feComposite in2="hardAlpha" operator="out"/>
<feColorMatrix type="matrix" values="0 0 0 0 0 0 0 0 0 0 0 0 0 0 0 0 0 0 0.08 0"/>
<feBlend mode="normal" in2="BackgroundImageFix" result="effect1_dropShadow_10998_7924"/>
<feBlend mode="normal" in="SourceGraphic" in2="effect1_dropShadow_10998_7924" result="shape"/>
<feColorMatrix in="SourceAlpha" type="matrix" values="0 0 0 0 0 0 0 0 0 0 0 0 0 0 0 0 0 0 127 0" result="hardAlpha"/>
<feOffset dx="-0.94484" dy="-0.94484"/>
<feGaussianBlur stdDeviation="0.47242"/>
<feComposite in2="hardAlpha" operator="arithmetic" k2="-1" k3="1"/>
<feColorMatrix type="matrix" values="0 0 0 0 0.775 0 0 0 0 0.30582 0 0 0 0 0.119479 0 0 0 1 0"/>
<feBlend mode="normal" in2="shape" result="effect2_innerShadow_10998_7924"/>
</filter>
<filter id="filter3_di_10998_7924" x="342.089" y="159.363" width="31.6639" height="23.3514" filterUnits="userSpaceOnUse" color-interpolation-filters="sRGB">
<feFlood flood-opacity="0" result="BackgroundImageFix"/>
<feColorMatrix in="SourceAlpha" type="matrix" values="0 0 0 0 0 0 0 0 0 0 0 0 0 0 0 0 0 0 127 0" result="hardAlpha"/>
<feOffset dx="0.963823" dy="0.963823"/>
<feGaussianBlur stdDeviation="0.963823"/>
<feComposite in2="hardAlpha" operator="out"/>
<feColorMatrix type="matrix" values="0 0 0 0 0 0 0 0 0 0 0 0 0 0 0 0 0 0 0.08 0"/>
<feBlend mode="normal" in2="BackgroundImageFix" result="effect1_dropShadow_10998_7924"/>
<feBlend mode="normal" in="SourceGraphic" in2="effect1_dropShadow_10998_7924" result="shape"/>
<feColorMatrix in="SourceAlpha" type="matrix" values="0 0 0 0 0 0 0 0 0 0 0 0 0 0 0 0 0 0 127 0" result="hardAlpha"/>
<feOffset dx="-0.963823" dy="-0.963823"/>
<feGaussianBlur stdDeviation="0.481912"/>
<feComposite in2="hardAlpha" operator="arithmetic" k2="-1" k3="1"/>
<feColorMatrix type="matrix" values="0 0 0 0 0.775 0 0 0 0 0.30582 0 0 0 0 0.119479 0 0 0 1 0"/>
<feBlend mode="normal" in2="shape" result="effect2_innerShadow_10998_7924"/>
</filter>
<radialGradient id="paint0_radial_10998_7924" cx="0" cy="0" r="1" gradientUnits="userSpaceOnUse" gradientTransform="translate(217.001 229.969) rotate(90) scale(243.978)">
<stop stop-color="#AAAAAA"/>
<stop offset="1" stop-color="#E8E8E8" stop-opacity="0"/>
</radialGradient>
<linearGradient id="paint1_linear_10998_7924" x1="162.917" y1="105.792" x2="241.191" y2="282.503" gradientUnits="userSpaceOnUse">
<stop stop-color="#959595" stop-opacity="0.5"/>
<stop offset="1" stop-color="#2B2B2B" stop-opacity="0"/>
</linearGradient>
<linearGradient id="paint2_linear_10998_7924" x1="186.874" y1="24" x2="283.958" y2="134.818" gradientUnits="userSpaceOnUse">
<stop stop-color="#B4B4B4" stop-opacity="0.5"/>
<stop offset="1" stop-color="#797979" stop-opacity="0"/>
</linearGradient>
<linearGradient id="paint3_linear_10998_7924" x1="66.2437" y1="138.664" x2="125.731" y2="210.301" gradientUnits="userSpaceOnUse">
<stop stop-color="#B4B4B4" stop-opacity="0.5"/>
<stop offset="1" stop-color="#797979" stop-opacity="0"/>
</linearGradient>
<linearGradient id="paint4_linear_10998_7924" x1="334.905" y1="124.353" x2="395.587" y2="197.429" gradientUnits="userSpaceOnUse">
<stop stop-color="#B4B4B4" stop-opacity="0.5"/>
<stop offset="1" stop-color="#797979" stop-opacity="0"/>
</linearGradient>
<clipPath id="clip0_10998_7924">
<path d="M0 32C0 14.3269 14.3269 0 32 0H402C419.673 0 434 14.3269 434 32V324H0V32Z" fill="white"/>
</clipPath>
<clipPath id="clip1_10998_7924">
<rect x="56.9746" y="140.518" width="57.4684" height="57.4684" rx="9.57807" transform="rotate(-15.7232 56.9746 140.518)" fill="white"/>
</clipPath>
<clipPath id="clip2_10998_7924">
<rect width="38.3123" height="38.3123" fill="white" transform="translate(68.7891 147.142) rotate(-15.7232)"/>
</clipPath>
<clipPath id="clip3_10998_7924">
<rect x="325.449" y="126.244" width="58.623" height="58.623" rx="9.77051" transform="rotate(15 325.449 126.244)" fill="white"/>
</clipPath>
<clipPath id="clip4_10998_7924">
<rect width="43.9673" height="43.9673" fill="white" transform="translate(330.631 135.219) rotate(15)"/>
</clipPath>
<clipPath id="clip5_10998_7924">
<rect width="11" height="11" fill="white" transform="translate(140 284)"/>
</clipPath>
</defs>
</svg>
