<svg width="347" height="359" viewBox="0 0 347 359" fill="none" xmlns="http://www.w3.org/2000/svg">
<path d="M0 32C0 14.3269 14.3269 0 32 0H347V359H32C14.3269 359 0 344.673 0 327V32Z" fill="#F1F1F1"/>
<circle cx="174.552" cy="172" r="119.931" stroke="url(#paint0_radial_11000_9069)" stroke-opacity="0.4" stroke-width="1.78313" stroke-linecap="round" stroke-dasharray="2.55 5.1"/>
<rect x="143.208" y="263.139" width="57.5843" height="57.5843" rx="14.0599" fill="#F9F9F9"/>
<rect x="143.208" y="263.139" width="57.5843" height="57.5843" rx="14.0599" stroke="url(#paint1_linear_11000_9069)" stroke-width="1.44641"/>
<path d="M186.33 277.484C187.22 277.484 187.941 278.203 187.941 279.089V304.775C187.941 305.661 187.22 306.38 186.33 306.38H157.322C156.432 306.38 155.711 305.661 155.711 304.775V279.089C155.711 278.203 156.432 277.484 157.322 277.484H186.33ZM184.718 290.327H158.934V303.169H184.718V290.327ZM184.718 280.695H158.934V287.116H184.718V280.695ZM170.215 282.3V285.511H166.992V282.3H170.215ZM163.768 282.3V285.511H160.545V282.3H163.768Z" fill="#275570"/>
<g clip-path="url(#clip0_11000_9069)">
<rect x="24" y="141.379" width="56.1379" height="56.1379" rx="13.3366" fill="#F9F9F9"/>
<path d="M66.3961 155.001C67.2861 155.001 68.0076 155.72 68.0076 156.606V182.292C68.0076 183.178 67.2861 183.897 66.3961 183.897H37.3889C36.4988 183.897 35.7773 183.178 35.7773 182.292V156.606C35.7773 155.72 36.4988 155.001 37.3889 155.001H66.3961ZM64.7845 167.844H39.0004V180.686H64.7845V167.844ZM64.7845 158.212H39.0004V164.633H64.7845V158.212ZM50.2809 159.817V163.028H47.0579V159.817H50.2809ZM43.8349 159.817V163.028H40.6119V159.817H43.8349Z" fill="#275570"/>
</g>
<rect x="23.2768" y="140.656" width="57.5843" height="57.5843" rx="14.0599" stroke="url(#paint2_linear_11000_9069)" stroke-width="1.44641"/>
<g clip-path="url(#clip1_11000_9069)">
<rect x="263.861" y="141.379" width="56.1379" height="56.1379" rx="13.3366" fill="#F9F9F9"/>
<path d="M306.257 155.001C307.147 155.001 307.869 155.72 307.869 156.606V182.292C307.869 183.178 307.147 183.897 306.257 183.897H277.25C276.36 183.897 275.639 183.178 275.639 182.292V156.606C275.639 155.72 276.36 155.001 277.25 155.001H306.257ZM304.646 167.844H278.862V180.686H304.646V167.844ZM304.646 158.212H278.862V164.633H304.646V158.212ZM290.142 159.817V163.028H286.919V159.817H290.142ZM283.696 159.817V163.028H280.473V159.817H283.696Z" fill="#275570"/>
</g>
<rect x="263.138" y="140.656" width="57.5843" height="57.5843" rx="14.0599" stroke="url(#paint3_linear_11000_9069)" stroke-width="1.44641"/>
<rect x="143.208" y="23.2768" width="57.5843" height="57.5843" rx="14.0599" fill="#F9F9F9"/>
<rect x="143.208" y="23.2768" width="57.5843" height="57.5843" rx="14.0599" stroke="url(#paint4_linear_11000_9069)" stroke-width="1.44641"/>
<path d="M186.33 37.6211C187.22 37.6211 187.941 38.3398 187.941 39.2264V64.9118C187.941 65.7985 187.22 66.5172 186.33 66.5172H157.322C156.432 66.5172 155.711 65.7985 155.711 64.9118V39.2264C155.711 38.3398 156.432 37.6211 157.322 37.6211H186.33ZM184.718 50.4638H158.934V63.3065H184.718V50.4638ZM184.718 40.8318H158.934V47.2531H184.718V40.8318ZM170.215 42.4371V45.6478H166.992V42.4371H170.215ZM163.768 42.4371V45.6478H160.545V42.4371H163.768Z" fill="#275570"/>
<rect x="240.258" y="248.552" width="25.5172" height="25.5172" rx="12.7586" fill="white"/>
<path d="M257.788 263.693L256.595 262.501L257.788 261.309C259.104 259.992 259.104 257.857 257.788 256.54C256.471 255.223 254.336 255.223 253.019 256.54L251.826 257.732L250.634 256.54L251.826 255.348C253.802 253.372 257.004 253.372 258.98 255.348C260.955 257.323 260.955 260.526 258.98 262.501L257.788 263.693ZM255.403 266.078L254.211 267.27C252.236 269.245 249.033 269.245 247.058 267.27C245.082 265.294 245.082 262.092 247.058 260.117L248.25 258.924L249.442 260.117L248.25 261.309C246.933 262.626 246.933 264.761 248.25 266.078C249.567 267.394 251.702 267.394 253.019 266.078L254.211 264.885L255.403 266.078ZM255.403 257.732L256.595 258.924L250.634 264.885L249.442 263.693L255.403 257.732Z" fill="#F2652D"/>
<rect x="82.6895" y="248.552" width="25.5172" height="25.5172" rx="12.7586" fill="white"/>
<path d="M100.219 263.693L99.027 262.501L100.219 261.309C101.536 259.992 101.536 257.857 100.219 256.54C98.9023 255.223 96.7672 255.223 95.4503 256.54L94.2581 257.732L93.0659 256.54L94.2581 255.348C96.2334 253.372 99.436 253.372 101.411 255.348C103.387 257.323 103.387 260.526 101.411 262.501L100.219 263.693ZM97.8347 266.078L96.6425 267.27C94.6673 269.245 91.4646 269.245 89.4893 267.27C87.514 265.294 87.514 262.092 89.4893 260.117L90.6815 258.924L91.8737 260.117L90.6815 261.309C89.3646 262.626 89.3646 264.761 90.6815 266.078C91.9984 267.394 94.1335 267.394 95.4503 266.078L96.6425 264.885L97.8347 266.078ZM97.8347 257.732L99.027 258.924L93.0659 264.885L91.8737 263.693L97.8347 257.732Z" fill="#F2652D"/>
<rect x="240.258" y="67.3794" width="25.5172" height="25.5172" rx="12.7586" fill="white"/>
<path d="M257.788 82.5203L256.595 81.3281L257.788 80.1359C259.104 78.819 259.104 76.6839 257.788 75.3671C256.471 74.0502 254.336 74.0502 253.019 75.3671L251.826 76.5593L250.634 75.3671L251.826 74.1748C253.802 72.1995 257.004 72.1995 258.98 74.1748C260.955 76.1502 260.955 79.3528 258.98 81.3281L257.788 82.5203ZM255.403 84.9048L254.211 86.097C252.236 88.0722 249.033 88.0722 247.058 86.097C245.082 84.1216 245.082 80.919 247.058 78.9437L248.25 77.7515L249.442 78.9437L248.25 80.1359C246.933 81.4528 246.933 83.5879 248.25 84.9048C249.567 86.2216 251.702 86.2216 253.019 84.9048L254.211 83.7125L255.403 84.9048ZM255.403 76.5593L256.595 77.7515L250.634 83.7125L249.442 82.5203L255.403 76.5593Z" fill="#F2652D"/>
<rect x="82.6895" y="67.3794" width="25.5172" height="25.5172" rx="12.7586" fill="white"/>
<path d="M100.219 82.5203L99.027 81.3281L100.219 80.1359C101.536 78.819 101.536 76.6839 100.219 75.3671C98.9023 74.0502 96.7672 74.0502 95.4503 75.3671L94.2581 76.5593L93.0659 75.3671L94.2581 74.1748C96.2334 72.1995 99.436 72.1995 101.411 74.1748C103.387 76.1502 103.387 79.3528 101.411 81.3281L100.219 82.5203ZM97.8347 84.9048L96.6425 86.097C94.6673 88.0722 91.4646 88.0722 89.4893 86.097C87.514 84.1216 87.514 80.919 89.4893 78.9437L90.6815 77.7515L91.8737 78.9437L90.6815 80.1359C89.3646 81.4528 89.3646 83.5879 90.6815 84.9048C91.9984 86.2216 94.1335 86.2216 95.4503 84.9048L96.6425 83.7125L97.8347 84.9048ZM97.8347 76.5593L99.027 77.7515L93.0659 83.7125L91.8737 82.5203L97.8347 76.5593Z" fill="#F2652D"/>
<g filter="url(#filter0_d_11000_9069)">
<rect x="130.837" y="138.837" width="82.3254" height="82.3254" rx="17.1627" fill="#F2652D"/>
<rect x="130.837" y="138.837" width="82.3254" height="82.3254" rx="17.1627" stroke="url(#paint5_linear_11000_9069)" stroke-width="2.32541"/>
<path d="M171.999 169.665C181.132 169.665 188.535 177.069 188.535 186.202C188.535 195.334 181.132 202.738 171.999 202.738C162.866 202.738 155.463 195.334 155.463 186.202C155.463 177.069 162.866 169.665 171.999 169.665ZM171.999 173.799C165.15 173.799 159.597 179.352 159.597 186.202C159.597 193.051 165.15 198.604 171.999 198.604C178.849 198.604 184.401 193.051 184.401 186.202C184.401 179.352 178.849 173.799 171.999 173.799ZM171.999 176.9L174.733 182.439L180.846 183.327L176.422 187.639L177.466 193.727L171.999 190.852L166.532 193.727L167.576 187.639L163.153 183.327L169.266 182.439L171.999 176.9ZM184.401 159.33V165.531L181.583 167.883C179.297 166.684 176.759 165.901 174.068 165.634L174.066 159.328L184.401 159.33ZM169.932 159.328L169.932 165.633C167.242 165.901 164.703 166.683 162.417 167.882L159.597 165.531V159.33L169.932 159.328Z" fill="white"/>
</g>
<defs>
<filter id="filter0_d_11000_9069" x="88.8195" y="103.711" width="166.361" height="166.359" filterUnits="userSpaceOnUse" color-interpolation-filters="sRGB">
<feFlood flood-opacity="0" result="BackgroundImageFix"/>
<feColorMatrix in="SourceAlpha" type="matrix" values="0 0 0 0 0 0 0 0 0 0 0 0 0 0 0 0 0 0 127 0" result="hardAlpha"/>
<feOffset dy="6.89011"/>
<feGaussianBlur stdDeviation="20.4272"/>
<feComposite in2="hardAlpha" operator="out"/>
<feColorMatrix type="matrix" values="0 0 0 0 0 0 0 0 0 0 0 0 0 0 0 0 0 0 0.1 0"/>
<feBlend mode="normal" in2="BackgroundImageFix" result="effect1_dropShadow_11000_9069"/>
<feBlend mode="normal" in="SourceGraphic" in2="effect1_dropShadow_11000_9069" result="shape"/>
</filter>
<radialGradient id="paint0_radial_11000_9069" cx="0" cy="0" r="1" gradientUnits="userSpaceOnUse" gradientTransform="translate(174.552 172) rotate(90) scale(119.931)">
<stop stop-color="white"/>
<stop offset="1" stop-color="#999999" stop-opacity="0.6"/>
</radialGradient>
<linearGradient id="paint1_linear_11000_9069" x1="152.986" y1="262.051" x2="193.731" y2="323.622" gradientUnits="userSpaceOnUse">
<stop stop-color="#B4B4B4" stop-opacity="0.4"/>
<stop offset="1" stop-color="#797979" stop-opacity="0.09"/>
</linearGradient>
<linearGradient id="paint2_linear_11000_9069" x1="33.0545" y1="139.568" x2="73.7998" y2="201.139" gradientUnits="userSpaceOnUse">
<stop stop-color="#B4B4B4" stop-opacity="0.4"/>
<stop offset="1" stop-color="#797979" stop-opacity="0.09"/>
</linearGradient>
<linearGradient id="paint3_linear_11000_9069" x1="272.916" y1="139.568" x2="313.661" y2="201.139" gradientUnits="userSpaceOnUse">
<stop stop-color="#B4B4B4" stop-opacity="0.4"/>
<stop offset="1" stop-color="#797979" stop-opacity="0.09"/>
</linearGradient>
<linearGradient id="paint4_linear_11000_9069" x1="152.986" y1="22.1891" x2="193.731" y2="83.7597" gradientUnits="userSpaceOnUse">
<stop stop-color="#B4B4B4" stop-opacity="0.4"/>
<stop offset="1" stop-color="#797979" stop-opacity="0.09"/>
</linearGradient>
<linearGradient id="paint5_linear_11000_9069" x1="122.833" y1="67.0833" x2="193.992" y2="227.73" gradientUnits="userSpaceOnUse">
<stop stop-color="#959595" stop-opacity="0.5"/>
<stop offset="1" stop-color="#2B2B2B" stop-opacity="0"/>
</linearGradient>
<clipPath id="clip0_11000_9069">
<rect x="24" y="141.379" width="56.1379" height="56.1379" rx="13.3366" fill="white"/>
</clipPath>
<clipPath id="clip1_11000_9069">
<rect x="263.861" y="141.379" width="56.1379" height="56.1379" rx="13.3366" fill="white"/>
</clipPath>
</defs>
</svg>
