<svg width="662" height="400" viewBox="0 0 662 400" fill="none" xmlns="http://www.w3.org/2000/svg">
<g filter="url(#filter0_f_11722_17971)">
<ellipse cx="354.776" cy="194.891" rx="254.34" ry="127.891" fill="white" fill-opacity="0.2"/>
</g>
<path d="M264.629 163.717L264.629 110.465C264.629 101.629 271.792 94.4653 280.629 94.4653H360.232C369.069 94.4653 376.232 101.629 376.232 110.465V147.717C376.232 156.553 383.396 163.717 392.232 163.717H427.704" stroke="white" stroke-opacity="0.3"/>
<path d="M254.29 209.796V292.993C254.29 299.621 248.918 304.993 242.29 304.993H128.803M234.578 187.199H189.844C183.216 187.199 177.844 181.826 177.844 175.199V120.829C177.844 114.202 172.471 108.829 165.844 108.829H128.803M282.176 209.796V261.742C282.176 268.369 287.549 273.742 294.176 273.742H341.334C347.961 273.742 353.334 279.114 353.334 285.742V304.532C353.334 311.16 358.706 316.532 365.334 316.532H445.666C452.294 316.532 457.666 311.16 457.666 304.532V209.796M477.86 195.372H535.094C541.721 195.372 547.094 200.745 547.094 207.372V268.954C547.094 275.581 552.467 280.954 559.094 280.954H576.422M477.86 174.698H552.883C559.511 174.698 564.883 169.325 564.883 162.698V87.1934" stroke="white" stroke-opacity="0.3"/>
<path fill-rule="evenodd" clip-rule="evenodd" d="M454.299 178.064H266.789V176.064H454.299V178.064ZM454.299 186.662H266.789V184.662H454.299V186.662ZM266.789 195.26H454.299V193.26H266.789V195.26Z" fill="url(#paint0_linear_11722_17971)"/>
<g filter="url(#filter1_di_11722_17971)">
<rect x="230.248" y="151.139" width="69.2344" height="69.2344" rx="16" fill="#F2652D" shape-rendering="crispEdges"/>
<rect x="229.748" y="150.639" width="70.2344" height="70.2344" rx="16.5" stroke="url(#paint1_linear_11722_17971)" shape-rendering="crispEdges"/>
<path d="M279.866 170.756C280.786 170.756 281.533 171.503 281.533 172.423V199.09C281.533 200.01 280.786 200.756 279.866 200.756H249.866C248.945 200.756 248.199 200.01 248.199 199.09V172.423C248.199 171.503 248.945 170.756 249.866 170.756H279.866ZM278.199 184.09H251.533V197.423H278.199V184.09ZM278.199 174.09H251.533V180.756H278.199V174.09ZM263.199 175.756V179.09H259.866V175.756H263.199ZM256.533 175.756V179.09H253.199V175.756H256.533Z" fill="white"/>
</g>
<g filter="url(#filter2_di_11722_17971)">
<rect x="419.682" y="151.139" width="69.2344" height="69.2344" rx="16" fill="#F2652D" shape-rendering="crispEdges"/>
<rect x="419.182" y="150.639" width="70.2344" height="70.2344" rx="16.5" stroke="url(#paint2_linear_11722_17971)" shape-rendering="crispEdges"/>
<path d="M455.979 179.353C455.832 179.315 455.677 179.321 455.533 179.371C455.389 179.421 455.263 179.512 455.171 179.633C455.08 179.755 455.026 179.901 455.017 180.053C455.008 180.205 455.044 180.356 455.121 180.487C455.198 180.618 455.313 180.724 455.45 180.79C455.586 180.857 455.74 180.881 455.891 180.86C456.042 180.839 456.183 180.774 456.297 180.673C456.41 180.572 456.492 180.439 456.53 180.292C456.58 180.095 456.55 179.885 456.447 179.71C456.344 179.534 456.176 179.406 455.979 179.353Z" fill="white"/>
<path d="M450.653 183.069C450.603 182.982 450.535 182.907 450.454 182.847C450.374 182.788 450.282 182.745 450.184 182.722C450.037 182.683 449.882 182.689 449.738 182.739C449.594 182.789 449.468 182.881 449.377 183.002C449.285 183.124 449.231 183.269 449.222 183.421C449.213 183.573 449.249 183.724 449.326 183.856C449.403 183.987 449.518 184.093 449.655 184.159C449.792 184.225 449.945 184.25 450.096 184.229C450.247 184.208 450.388 184.143 450.502 184.042C450.615 183.941 450.697 183.808 450.735 183.661C450.78 183.46 450.751 183.25 450.653 183.069Z" fill="white"/>
<path d="M450.428 181.837C450.707 181.915 450.966 182.054 451.184 182.245L454.14 180.507C454.079 180.231 454.079 179.945 454.14 179.67C454.254 179.231 454.537 178.856 454.928 178.626C455.318 178.397 455.784 178.332 456.222 178.445C456.661 178.559 457.036 178.842 457.266 179.233C457.495 179.623 457.56 180.089 457.447 180.527C457.384 180.765 457.273 180.987 457.12 181.18L458.914 184.242C459.19 184.181 459.476 184.181 459.751 184.242C460.035 184.319 460.295 184.466 460.507 184.671L464.078 182.589L468.527 171.935C468.581 171.807 468.609 171.669 468.609 171.53C468.61 171.39 468.583 171.252 468.529 171.123C468.476 170.994 468.398 170.877 468.299 170.779C468.201 170.68 468.084 170.602 467.955 170.549C467.804 170.489 467.642 170.464 467.48 170.475C467.318 170.485 467.161 170.533 467.02 170.612L447.592 182.041L448.758 182.285C448.975 182.073 449.243 181.921 449.536 181.842C449.829 181.763 450.138 181.762 450.432 181.837" fill="white"/>
<path d="M460.979 186.368C460.923 186.585 460.825 186.789 460.689 186.968C460.554 187.147 460.385 187.297 460.192 187.411C459.999 187.525 459.785 187.599 459.563 187.63C459.341 187.662 459.114 187.649 458.897 187.592C458.68 187.536 458.476 187.437 458.297 187.302C458.118 187.167 457.968 186.998 457.854 186.805C457.74 186.611 457.666 186.398 457.635 186.175C457.604 185.953 457.617 185.727 457.673 185.51C457.75 185.226 457.897 184.966 458.102 184.755L456.347 181.755C456.031 181.86 455.691 181.874 455.368 181.795C455.082 181.723 454.821 181.575 454.612 181.367L451.673 183.082C451.745 183.363 451.745 183.658 451.673 183.939C451.624 184.158 451.532 184.364 451.402 184.547C451.273 184.73 451.109 184.885 450.919 185.005C450.73 185.124 450.519 185.205 450.298 185.243C450.077 185.281 449.851 185.274 449.633 185.225C449.414 185.175 449.208 185.083 449.025 184.954C448.842 184.824 448.687 184.66 448.567 184.471C448.448 184.281 448.367 184.07 448.329 183.849C448.292 183.629 448.298 183.403 448.347 183.184L446.428 182.776L440.508 186.265C440.387 186.335 440.282 186.428 440.198 186.539C440.114 186.65 440.053 186.777 440.018 186.912C439.984 187.047 439.977 187.188 439.998 187.326C440.019 187.463 440.067 187.595 440.14 187.714C440.225 187.855 440.34 187.974 440.478 188.062C440.616 188.151 440.773 188.206 440.936 188.225L451.977 189.47L454.714 200.245C454.766 200.46 454.885 200.653 455.054 200.796C455.223 200.939 455.433 201.025 455.654 201.041H455.796C455.993 201.03 456.182 200.962 456.341 200.846C456.5 200.731 456.623 200.571 456.693 200.388L463.511 184.082L461.022 185.531C461.048 185.81 461.034 186.092 460.98 186.368" fill="white"/>
<path d="M459.51 185.149C459.363 185.111 459.208 185.117 459.064 185.167C458.92 185.217 458.795 185.308 458.703 185.429C458.611 185.551 458.557 185.697 458.548 185.849C458.539 186.001 458.576 186.152 458.653 186.283C458.73 186.414 458.844 186.52 458.981 186.586C459.118 186.653 459.271 186.677 459.422 186.656C459.573 186.635 459.714 186.57 459.828 186.469C459.942 186.368 460.023 186.235 460.061 186.088C460.109 185.891 460.078 185.683 459.975 185.507C459.872 185.332 459.706 185.204 459.51 185.149Z" fill="white"/>
</g>
<g filter="url(#filter3_d_11722_17971)">
<circle cx="266.791" cy="100.175" r="23.0781" fill="#F2652D"/>
<circle cx="266.791" cy="100.175" r="22.5781" stroke="white" stroke-opacity="0.5"/>
</g>
<path d="M266.129 107.2C264.917 108.125 263.379 108.538 261.866 108.342C260.941 107.13 260.529 105.592 260.724 104.079L262.468 105.086C262.502 105.609 262.638 106.123 262.873 106.599C263.402 106.564 263.916 106.425 264.386 106.193L266.129 107.2ZM270.372 104.304L270.905 106.945L270.046 108.432L257.698 101.304L258.557 99.8163L261.111 98.957L263.697 94.4773C265.249 91.7892 268.502 90.6182 271.689 91.3281C273.898 93.7332 274.51 97.1359 272.958 99.824L270.372 104.304ZM268.83 105.672L268.492 103.996L271.415 98.9329C272.447 97.1442 272.177 94.8139 270.743 92.9672C268.427 92.6492 266.274 93.5797 265.241 95.3684L262.318 100.431L260.697 100.977L268.83 105.672ZM267.437 98.6941C266.584 98.202 266.292 97.1119 266.784 96.2596C267.277 95.4071 268.366 95.115 269.219 95.6072C270.071 96.0994 270.363 97.1894 269.871 98.0418C269.379 98.8942 268.289 99.1863 267.437 98.6941Z" fill="white"/>
<g filter="url(#filter4_d_11722_17971)">
<circle cx="120.63" cy="108.829" r="15.3854" fill="#F2652D"/>
<circle cx="120.63" cy="108.829" r="14.8854" stroke="white" stroke-opacity="0.5"/>
</g>
<path d="M118.308 101.304V102.886C116.125 103.769 114.585 105.91 114.585 108.41C114.585 111.7 117.252 114.367 120.542 114.367C123.042 114.367 125.182 112.827 126.066 110.644H127.648C126.699 113.665 123.876 115.856 120.542 115.856C116.43 115.856 113.096 112.522 113.096 108.41C113.096 105.076 115.287 102.253 118.308 101.304ZM120.542 100.963C124.655 100.963 127.988 104.297 127.988 108.41C127.988 108.661 127.976 108.909 127.952 109.154H119.797V101C120.042 100.976 120.291 100.963 120.542 100.963ZM121.287 102.499V107.665H126.453C126.117 104.97 123.981 102.835 121.287 102.499Z" fill="white"/>
<g filter="url(#filter5_d_11722_17971)">
<circle cx="120.629" cy="305.955" r="20.1934" fill="#F2652D"/>
<circle cx="120.629" cy="305.955" r="19.6934" stroke="white" stroke-opacity="0.5"/>
</g>
<path d="M117.562 299.409C114.683 299.409 112.35 301.743 112.35 304.622C112.35 307.5 114.683 309.834 117.562 309.834H118.359C118.325 309.591 118.307 309.342 118.307 309.089C118.307 308.837 118.325 308.588 118.359 308.345H117.562C115.506 308.345 113.839 306.678 113.839 304.622C113.839 302.565 115.506 300.898 117.562 300.898H123.519C125.575 300.898 127.242 302.565 127.242 304.622C127.242 304.877 127.217 305.126 127.168 305.367C127.604 305.794 127.965 306.298 128.23 306.856C128.552 306.178 128.732 305.421 128.732 304.622C128.732 301.743 126.398 299.409 123.519 299.409H117.562ZM123.519 306.856C122.285 306.856 121.285 307.856 121.285 309.089C121.285 310.323 122.285 311.323 123.519 311.323C124.753 311.323 125.753 310.323 125.753 309.089C125.753 307.856 124.753 306.856 123.519 306.856ZM119.796 309.089C119.796 307.033 121.463 305.366 123.519 305.366C125.575 305.366 127.242 307.033 127.242 309.089C127.242 309.848 127.015 310.554 126.625 311.143L128.514 313.031L127.46 314.084L125.572 312.196C124.984 312.586 124.278 312.813 123.519 312.813C121.463 312.813 119.796 311.146 119.796 309.089Z" fill="white"/>
<g filter="url(#filter6_d_11722_17971)">
<circle cx="563.922" cy="100.175" r="23.0781" fill="#F2652D"/>
<circle cx="563.922" cy="100.175" r="22.5781" stroke="white" stroke-opacity="0.5"/>
</g>
<g clip-path="url(#clip0_11722_17971)">
<path d="M562.654 104.771C562.654 104.771 568.535 104.063 571.613 105.84L572.422 105.623C572.869 105.503 573.134 105.044 573.015 104.597L571.7 99.6909C572.35 99.3242 572.696 98.5523 572.494 97.7983C572.292 97.0442 571.606 96.5487 570.86 96.5561L569.546 91.6501C569.426 91.2032 568.966 90.938 568.52 91.0578L567.71 91.2746C565.933 94.3525 560.486 96.6794 560.486 96.6794L557.249 97.5467C556.355 97.7862 555.825 98.7049 556.065 99.5987L557.365 104.454C557.605 105.348 558.524 105.878 559.417 105.638L560.227 105.422L562.12 109.251L563.738 108.817L562.654 104.771ZM562.464 97.59C562.986 97.3232 563.625 96.9762 564.304 96.5615C565.555 95.7982 567.112 94.7067 568.269 93.3579L571.055 103.756C569.379 103.166 567.485 103 566.02 102.964C565.224 102.945 564.497 102.964 563.912 102.993L562.464 97.59ZM557.683 99.165L560.92 98.2978L562.221 103.153L558.984 104.02L557.683 99.165Z" fill="white"/>
</g>
<g filter="url(#filter7_d_11722_17971)">
<circle cx="351.993" cy="273.963" r="19.2318" fill="#F2652D"/>
<circle cx="351.993" cy="273.963" r="18.7318" stroke="white" stroke-opacity="0.5"/>
</g>
<path d="M357.47 266C357.908 266 358.263 266.358 358.263 266.8V269.806L356.678 271.406V267.6H345.585V280.4H356.678V278.194L358.263 276.594V281.2C358.263 281.642 357.908 282 357.47 282H344.792C344.355 282 344 281.642 344 281.2V266.8C344 266.358 344.355 266 344.792 266H357.47ZM358.879 271.446L360 272.577L353.837 278.8L352.714 278.798L352.716 277.669L358.879 271.446ZM351.924 274V275.6H347.962V274H351.924ZM354.301 270.8V272.4H347.962V270.8H354.301Z" fill="white"/>
<g filter="url(#filter8_d_11722_17971)">
<circle cx="458.42" cy="312.337" r="20.6637" fill="#F2652D"/>
<circle cx="458.42" cy="312.337" r="20.1637" stroke="white" stroke-opacity="0.5"/>
</g>
<path d="M452.649 306.358V318.272H464.564V319.761H451.16V306.358H452.649ZM464.037 308.81L465.09 309.863L460.84 314.113L458.607 311.879L455.41 315.075L454.357 314.022L458.607 309.773L460.84 312.006L464.037 308.81Z" fill="white"/>
<g filter="url(#filter9_d_11722_17971)">
<circle cx="586.999" cy="280.954" r="25.0013" fill="#F2652D"/>
<circle cx="586.999" cy="280.954" r="24.5013" stroke="white" stroke-opacity="0.5"/>
</g>
<path d="M587 288.5C582.858 288.5 579.5 285.142 579.5 281C579.5 276.858 582.858 273.5 587 273.5C591.142 273.5 594.5 276.858 594.5 281C594.5 285.142 591.142 288.5 587 288.5ZM585.283 286.751C584.561 285.219 584.118 283.531 584.02 281.75H581.046C581.343 284.132 583.037 286.081 585.283 286.751ZM585.523 281.75C585.636 283.579 586.158 285.297 587 286.814C587.842 285.297 588.364 283.579 588.477 281.75H585.523ZM592.954 281.75H589.98C589.882 283.531 589.439 285.219 588.717 286.751C590.963 286.081 592.656 284.132 592.954 281.75ZM581.046 280.25H584.02C584.118 278.469 584.561 276.781 585.283 275.249C583.037 275.919 581.343 277.868 581.046 280.25ZM585.523 280.25H588.477C588.364 278.421 587.842 276.703 587 275.186C586.158 276.703 585.636 278.421 585.523 280.25ZM588.717 275.249C589.439 276.781 589.882 278.469 589.98 280.25H592.954C592.656 277.868 590.963 275.919 588.717 275.249Z" fill="white"/>
<defs>
<filter id="filter0_f_11722_17971" x="0.835548" y="-32.6" width="707.88" height="454.983" filterUnits="userSpaceOnUse" color-interpolation-filters="sRGB">
<feFlood flood-opacity="0" result="BackgroundImageFix"/>
<feBlend mode="normal" in="SourceGraphic" in2="BackgroundImageFix" result="shape"/>
<feGaussianBlur stdDeviation="49.8" result="effect1_foregroundBlur_11722_17971"/>
</filter>
<filter id="filter1_di_11722_17971" x="224.948" y="146.839" width="79.8344" height="79.8344" filterUnits="userSpaceOnUse" color-interpolation-filters="sRGB">
<feFlood flood-opacity="0" result="BackgroundImageFix"/>
<feColorMatrix in="SourceAlpha" type="matrix" values="0 0 0 0 0 0 0 0 0 0 0 0 0 0 0 0 0 0 127 0" result="hardAlpha"/>
<feMorphology radius="1" operator="erode" in="SourceAlpha" result="effect1_dropShadow_11722_17971"/>
<feOffset dy="1"/>
<feGaussianBlur stdDeviation="2.65"/>
<feComposite in2="hardAlpha" operator="out"/>
<feColorMatrix type="matrix" values="0 0 0 0 0 0 0 0 0 0 0 0 0 0 0 0 0 0 0.12 0"/>
<feBlend mode="normal" in2="BackgroundImageFix" result="effect1_dropShadow_11722_17971"/>
<feBlend mode="normal" in="SourceGraphic" in2="effect1_dropShadow_11722_17971" result="shape"/>
<feColorMatrix in="SourceAlpha" type="matrix" values="0 0 0 0 0 0 0 0 0 0 0 0 0 0 0 0 0 0 127 0" result="hardAlpha"/>
<feMorphology radius="4" operator="erode" in="SourceAlpha" result="effect2_innerShadow_11722_17971"/>
<feOffset dx="3" dy="3"/>
<feGaussianBlur stdDeviation="2.5"/>
<feComposite in2="hardAlpha" operator="arithmetic" k2="-1" k3="1"/>
<feColorMatrix type="matrix" values="0 0 0 0 1 0 0 0 0 1 0 0 0 0 1 0 0 0 0.4 0"/>
<feBlend mode="normal" in2="shape" result="effect2_innerShadow_11722_17971"/>
</filter>
<filter id="filter2_di_11722_17971" x="414.382" y="146.839" width="79.8344" height="79.8344" filterUnits="userSpaceOnUse" color-interpolation-filters="sRGB">
<feFlood flood-opacity="0" result="BackgroundImageFix"/>
<feColorMatrix in="SourceAlpha" type="matrix" values="0 0 0 0 0 0 0 0 0 0 0 0 0 0 0 0 0 0 127 0" result="hardAlpha"/>
<feMorphology radius="1" operator="erode" in="SourceAlpha" result="effect1_dropShadow_11722_17971"/>
<feOffset dy="1"/>
<feGaussianBlur stdDeviation="2.65"/>
<feComposite in2="hardAlpha" operator="out"/>
<feColorMatrix type="matrix" values="0 0 0 0 0 0 0 0 0 0 0 0 0 0 0 0 0 0 0.12 0"/>
<feBlend mode="normal" in2="BackgroundImageFix" result="effect1_dropShadow_11722_17971"/>
<feBlend mode="normal" in="SourceGraphic" in2="effect1_dropShadow_11722_17971" result="shape"/>
<feColorMatrix in="SourceAlpha" type="matrix" values="0 0 0 0 0 0 0 0 0 0 0 0 0 0 0 0 0 0 127 0" result="hardAlpha"/>
<feMorphology radius="4" operator="erode" in="SourceAlpha" result="effect2_innerShadow_11722_17971"/>
<feOffset dx="3" dy="3"/>
<feGaussianBlur stdDeviation="2.5"/>
<feComposite in2="hardAlpha" operator="arithmetic" k2="-1" k3="1"/>
<feColorMatrix type="matrix" values="0 0 0 0 1 0 0 0 0 1 0 0 0 0 1 0 0 0 0.4 0"/>
<feBlend mode="normal" in2="shape" result="effect2_innerShadow_11722_17971"/>
</filter>
<filter id="filter3_d_11722_17971" x="232.513" y="69.8967" width="68.5562" height="68.5562" filterUnits="userSpaceOnUse" color-interpolation-filters="sRGB">
<feFlood flood-opacity="0" result="BackgroundImageFix"/>
<feColorMatrix in="SourceAlpha" type="matrix" values="0 0 0 0 0 0 0 0 0 0 0 0 0 0 0 0 0 0 127 0" result="hardAlpha"/>
<feOffset dy="4"/>
<feGaussianBlur stdDeviation="5.6"/>
<feComposite in2="hardAlpha" operator="out"/>
<feColorMatrix type="matrix" values="0 0 0 0 0 0 0 0 0 0 0 0 0 0 0 0 0 0 0.15 0"/>
<feBlend mode="normal" in2="BackgroundImageFix" result="effect1_dropShadow_11722_17971"/>
<feBlend mode="normal" in="SourceGraphic" in2="effect1_dropShadow_11722_17971" result="shape"/>
</filter>
<filter id="filter4_d_11722_17971" x="94.0441" y="86.2438" width="53.1715" height="53.171" filterUnits="userSpaceOnUse" color-interpolation-filters="sRGB">
<feFlood flood-opacity="0" result="BackgroundImageFix"/>
<feColorMatrix in="SourceAlpha" type="matrix" values="0 0 0 0 0 0 0 0 0 0 0 0 0 0 0 0 0 0 127 0" result="hardAlpha"/>
<feOffset dy="4"/>
<feGaussianBlur stdDeviation="5.6"/>
<feComposite in2="hardAlpha" operator="out"/>
<feColorMatrix type="matrix" values="0 0 0 0 0 0 0 0 0 0 0 0 0 0 0 0 0 0 0.15 0"/>
<feBlend mode="normal" in2="BackgroundImageFix" result="effect1_dropShadow_11722_17971"/>
<feBlend mode="normal" in="SourceGraphic" in2="effect1_dropShadow_11722_17971" result="shape"/>
</filter>
<filter id="filter5_d_11722_17971" x="89.2355" y="278.562" width="62.7867" height="62.7867" filterUnits="userSpaceOnUse" color-interpolation-filters="sRGB">
<feFlood flood-opacity="0" result="BackgroundImageFix"/>
<feColorMatrix in="SourceAlpha" type="matrix" values="0 0 0 0 0 0 0 0 0 0 0 0 0 0 0 0 0 0 127 0" result="hardAlpha"/>
<feOffset dy="4"/>
<feGaussianBlur stdDeviation="5.6"/>
<feComposite in2="hardAlpha" operator="out"/>
<feColorMatrix type="matrix" values="0 0 0 0 0 0 0 0 0 0 0 0 0 0 0 0 0 0 0.15 0"/>
<feBlend mode="normal" in2="BackgroundImageFix" result="effect1_dropShadow_11722_17971"/>
<feBlend mode="normal" in="SourceGraphic" in2="effect1_dropShadow_11722_17971" result="shape"/>
</filter>
<filter id="filter6_d_11722_17971" x="529.644" y="69.8967" width="68.5562" height="68.5562" filterUnits="userSpaceOnUse" color-interpolation-filters="sRGB">
<feFlood flood-opacity="0" result="BackgroundImageFix"/>
<feColorMatrix in="SourceAlpha" type="matrix" values="0 0 0 0 0 0 0 0 0 0 0 0 0 0 0 0 0 0 127 0" result="hardAlpha"/>
<feOffset dy="4"/>
<feGaussianBlur stdDeviation="5.6"/>
<feComposite in2="hardAlpha" operator="out"/>
<feColorMatrix type="matrix" values="0 0 0 0 0 0 0 0 0 0 0 0 0 0 0 0 0 0 0.15 0"/>
<feBlend mode="normal" in2="BackgroundImageFix" result="effect1_dropShadow_11722_17971"/>
<feBlend mode="normal" in="SourceGraphic" in2="effect1_dropShadow_11722_17971" result="shape"/>
</filter>
<filter id="filter7_d_11722_17971" x="321.562" y="247.531" width="60.8629" height="60.8634" filterUnits="userSpaceOnUse" color-interpolation-filters="sRGB">
<feFlood flood-opacity="0" result="BackgroundImageFix"/>
<feColorMatrix in="SourceAlpha" type="matrix" values="0 0 0 0 0 0 0 0 0 0 0 0 0 0 0 0 0 0 127 0" result="hardAlpha"/>
<feOffset dy="4"/>
<feGaussianBlur stdDeviation="5.6"/>
<feComposite in2="hardAlpha" operator="out"/>
<feColorMatrix type="matrix" values="0 0 0 0 0 0 0 0 0 0 0 0 0 0 0 0 0 0 0.15 0"/>
<feBlend mode="normal" in2="BackgroundImageFix" result="effect1_dropShadow_11722_17971"/>
<feBlend mode="normal" in="SourceGraphic" in2="effect1_dropShadow_11722_17971" result="shape"/>
</filter>
<filter id="filter8_d_11722_17971" x="426.556" y="284.473" width="63.7281" height="63.7271" filterUnits="userSpaceOnUse" color-interpolation-filters="sRGB">
<feFlood flood-opacity="0" result="BackgroundImageFix"/>
<feColorMatrix in="SourceAlpha" type="matrix" values="0 0 0 0 0 0 0 0 0 0 0 0 0 0 0 0 0 0 127 0" result="hardAlpha"/>
<feOffset dy="4"/>
<feGaussianBlur stdDeviation="5.6"/>
<feComposite in2="hardAlpha" operator="out"/>
<feColorMatrix type="matrix" values="0 0 0 0 0 0 0 0 0 0 0 0 0 0 0 0 0 0 0.15 0"/>
<feBlend mode="normal" in2="BackgroundImageFix" result="effect1_dropShadow_11722_17971"/>
<feBlend mode="normal" in="SourceGraphic" in2="effect1_dropShadow_11722_17971" result="shape"/>
</filter>
<filter id="filter9_d_11722_17971" x="550.798" y="248.753" width="72.402" height="72.4024" filterUnits="userSpaceOnUse" color-interpolation-filters="sRGB">
<feFlood flood-opacity="0" result="BackgroundImageFix"/>
<feColorMatrix in="SourceAlpha" type="matrix" values="0 0 0 0 0 0 0 0 0 0 0 0 0 0 0 0 0 0 127 0" result="hardAlpha"/>
<feOffset dy="4"/>
<feGaussianBlur stdDeviation="5.6"/>
<feComposite in2="hardAlpha" operator="out"/>
<feColorMatrix type="matrix" values="0 0 0 0 0 0 0 0 0 0 0 0 0 0 0 0 0 0 0.15 0"/>
<feBlend mode="normal" in2="BackgroundImageFix" result="effect1_dropShadow_11722_17971"/>
<feBlend mode="normal" in="SourceGraphic" in2="effect1_dropShadow_11722_17971" result="shape"/>
</filter>
<linearGradient id="paint0_linear_11722_17971" x1="284.098" y1="185.662" x2="318.244" y2="247.242" gradientUnits="userSpaceOnUse">
<stop offset="0.015" stop-color="white" stop-opacity="0"/>
<stop offset="0.52" stop-color="white"/>
<stop offset="1" stop-color="white" stop-opacity="0"/>
</linearGradient>
<linearGradient id="paint1_linear_11722_17971" x1="264.865" y1="151.139" x2="264.865" y2="220.374" gradientUnits="userSpaceOnUse">
<stop stop-color="white" stop-opacity="0.5"/>
<stop offset="1" stop-color="white" stop-opacity="0"/>
</linearGradient>
<linearGradient id="paint2_linear_11722_17971" x1="454.299" y1="151.139" x2="454.299" y2="220.374" gradientUnits="userSpaceOnUse">
<stop stop-color="white" stop-opacity="0.5"/>
<stop offset="1" stop-color="white" stop-opacity="0"/>
</linearGradient>
<clipPath id="clip0_11722_17971">
<rect width="20.1052" height="20.1052" fill="white" transform="translate(551.686 92.9668) rotate(-15)"/>
</clipPath>
</defs>
</svg>
