<svg width="308" height="154" viewBox="0 0 308 154" fill="none" xmlns="http://www.w3.org/2000/svg">
<mask id="path-1-inside-1_3728_7527" fill="white">
<path d="M0.558641 153.497C0.558638 112.787 16.7306 73.7446 45.5169 44.9583C74.3031 16.172 113.346 8.10868e-05 154.056 7.44543e-05C194.766 6.78218e-05 233.808 16.172 262.594 44.9583C291.381 73.7446 307.553 112.787 307.553 153.497L216.891 153.497C216.891 136.832 210.271 120.849 198.487 109.065C186.703 97.2815 170.721 90.6613 154.056 90.6613C137.391 90.6613 121.408 97.2815 109.624 109.065C97.8401 120.849 91.2199 136.832 91.2199 153.497L0.558641 153.497Z"/>
</mask>
<path d="M0.558641 153.497C0.558638 112.787 16.7306 73.7446 45.5169 44.9583C74.3031 16.172 113.346 8.10868e-05 154.056 7.44543e-05C194.766 6.78218e-05 233.808 16.172 262.594 44.9583C291.381 73.7446 307.553 112.787 307.553 153.497L216.891 153.497C216.891 136.832 210.271 120.849 198.487 109.065C186.703 97.2815 170.721 90.6613 154.056 90.6613C137.391 90.6613 121.408 97.2815 109.624 109.065C97.8401 120.849 91.2199 136.832 91.2199 153.497L0.558641 153.497Z" stroke="#F58E64" stroke-width="302" mask="url(#path-1-inside-1_3728_7527)"/>
</svg>
