<svg width="303" height="151" viewBox="0 0 303 151" fill="none" xmlns="http://www.w3.org/2000/svg">
<mask id="path-1-inside-1_3728_7528" fill="white">
<path d="M302.011 -0.00524902C302.011 40.0439 286.102 78.4527 257.783 106.772C229.463 135.091 191.055 151 151.006 151C110.956 151 72.5475 135.091 44.2285 106.772C15.9095 78.4528 6.04725e-06 40.0439 0 -0.00522622L89.1896 -0.00523969C89.1896 16.3893 95.7024 32.1124 107.295 43.7052C118.888 55.2979 134.611 61.8106 151.005 61.8106C167.4 61.8106 183.123 55.2979 194.716 43.7052C206.309 32.1124 212.821 16.3893 212.821 -0.00524902H302.011Z"/>
</mask>
<path d="M302.011 -0.00524902C302.011 40.0439 286.102 78.4527 257.783 106.772C229.463 135.091 191.055 151 151.006 151C110.956 151 72.5475 135.091 44.2285 106.772C15.9095 78.4528 6.04725e-06 40.0439 0 -0.00522622L89.1896 -0.00523969C89.1896 16.3893 95.7024 32.1124 107.295 43.7052C118.888 55.2979 134.611 61.8106 151.005 61.8106C167.4 61.8106 183.123 55.2979 194.716 43.7052C206.309 32.1124 212.821 16.3893 212.821 -0.00524902H302.011Z" stroke="#F58E64" stroke-width="302" mask="url(#path-1-inside-1_3728_7528)"/>
</svg>
