<svg width="512" height="512" viewBox="0 0 512 512" fill="none" xmlns="http://www.w3.org/2000/svg">
<path d="M332.228 182.944L179.368 256.057C175.953 257.7 173.854 261.287 174.152 265.108C175.471 282.397 177.711 298.536 180.752 310.314C180.752 310.314 182.918 320.164 185.067 325.218C187.582 332.755 193.089 339.186 199.694 343.498C207.107 348.338 215.531 350.73 223.954 350.038C225.596 349.704 232.443 348.821 238.347 347.619C274.197 341.524 346.298 311.588 375.968 290.457C380.463 287.496 391.406 278.903 395.335 273.304C398.919 267.775 401.184 261.657 401.892 254.818C402.38 246.158 399.995 237.571 395.17 230.474C391.725 225.684 379.704 213.914 379.3 213.65C370.602 205.431 357.625 195.06 341.89 183.85C339.071 181.836 335.305 181.475 332.228 182.944Z" fill="#F2652D"/>
<path opacity="0.4" d="M280.612 167.295C287.368 164.084 287.54 154.6 281.065 150.743C265.858 141.728 252.105 134.327 241.533 129.349C241.187 129.419 222.204 120.947 214.334 120.323C199.947 118.799 186.31 125.337 178.75 137.002L178.121 137.973C173.439 145.621 169.676 165.931 170.08 166.195C168.176 176.422 166.979 190.613 166.407 206.347C166.161 213.438 173.583 218.457 179.995 215.391L280.612 167.295Z" fill="#FAC1AB"/>
</svg>
